<svg width="20" height="20" viewBox="0 0 20 20" fill="none" xmlns="http://www.w3.org/2000/svg">
<path d="M10.0002 19.9998C15.5228 19.9998 19.9998 15.5229 19.9998 10.0003C19.9998 4.47769 15.5228 0.000732422 10.0002 0.000732422C4.47763 0.000732422 0.000671387 4.47769 0.000671387 10.0003C0.000671387 15.5229 4.47763 19.9998 10.0002 19.9998Z" fill="white"/>
<path d="M0.00012207 10.0002C0.00012207 13.7589 2.07502 17.0315 5.14067 18.7398V1.26013C2.07502 2.96854 0.00012207 6.24104 0.00012207 10.0002Z" fill="#D32027"/>
<path d="M9.99992 19.9997C9.88482 19.9997 9.77412 19.9958 9.66125 19.9939C9.77344 19.9977 9.8863 19.9997 9.99992 19.9997Z" fill="white"/>
<path d="M9.99984 0C9.99667 0 9.99401 0.00016889 9.99084 0.00016889C9.99393 0.00016889 9.99676 0 9.99984 0C15.5228 0 15.5228 20 9.99984 20C11.7607 20 13.414 19.5432 14.8511 18.7443V1.25557C13.4139 0.456636 11.7606 0 9.99984 0Z" fill="#F3F1F2"/>
<path d="M14.8512 1.25574V18.7443C17.9214 17.0372 20 13.762 20 10.0002C20 6.23795 17.9215 2.96275 14.8512 1.25574Z" fill="#D32027"/>
<path d="M9.99979 0C9.99662 0 9.99396 0 9.99079 0C8.23028 0.00156223 6.57698 0.459803 5.14044 1.26V18.7395C6.48679 19.4897 8.0239 19.9394 9.66112 19.9938C9.77402 19.9957 9.88469 19.9997 9.99979 19.9997C15.5227 19.9998 15.5227 0 9.99979 0Z" fill="#F3F1F2"/>
<path d="M13.8805 9.81929C13.743 9.68794 13.4608 9.70246 13.4105 9.48409C13.3438 8.94773 13.5906 8.63541 13.7463 8.27699C12.9584 8.46125 12.3373 8.76457 12.3379 7.87469C11.8855 8.42781 11.3992 8.98088 11.1983 8.88047C10.913 8.71281 11.4721 7.28923 11.5332 6.53383C11.2572 6.65982 10.7286 6.93613 10.7286 6.93613C10.7286 6.93613 10.2481 5.99634 9.99377 5.53278V5.52771C9.99284 5.52864 9.99284 5.52944 9.99251 5.53024C9.99187 5.52961 9.99187 5.52868 9.99124 5.52771V5.53278C9.73655 5.99634 9.2564 6.93613 9.2564 6.93613C9.2564 6.93613 8.72743 6.65982 8.45176 6.53383C8.51256 7.28936 9.07167 8.71293 8.78633 8.88047C8.58535 8.98105 8.09916 8.42781 7.64713 7.87469C7.64713 8.76457 7.02629 8.46129 6.23871 8.27699C6.39409 8.63524 6.64088 8.94756 6.57362 9.48409C6.52405 9.70246 6.24171 9.68794 6.10419 9.81929C7.01822 10.733 8.60241 11.4117 7.84781 12.1661L9.88226 11.9763C9.94889 12.6637 9.73368 13.5074 9.92047 13.9768C9.96422 13.9768 9.94986 13.9768 9.99107 13.9768C9.9917 13.9768 9.99263 13.9768 9.9936 13.9768C10.0346 13.9768 10.0195 13.9768 10.0629 13.9768C10.2535 13.4905 10.0358 12.6639 10.1024 11.9763L12.1366 12.1661C11.3827 11.4117 12.9668 10.733 13.8805 9.81929Z" fill="#D32027"/>
</svg>
