<svg width="20" height="20" viewBox="0 0 20 20" fill="none" xmlns="http://www.w3.org/2000/svg">
<g clip-path="url(#clip0_151_905)">
<path d="M1.72854e-05 10.0004C1.73512e-05 15.523 4.47697 20 9.99958 20C15.5222 20 19.9991 15.523 19.9991 10.0004C19.9991 4.47781 15.5222 0.000854546 9.99958 0.000854611C4.47697 0.000854677 1.72195e-05 4.47781 1.72854e-05 10.0004Z" fill="white"/>
<path d="M13.334 19.4285L13.334 13.2673C11.1978 13.5348 8.84407 13.5365 6.70523 13.2724L6.70523 19.4418C7.73724 19.8018 8.84516 19.9999 9.99987 19.9999C11.1694 20.0001 12.2911 19.7974 13.334 19.4285Z" fill="#EFEFEF"/>
<path d="M13.3341 13.2672L13.3341 19.4284C13.3373 19.4273 13.3399 19.4264 13.3428 19.4253C16.9514 18.1454 19.6064 14.8534 19.9589 10.8979C19.1198 12.4286 16.4615 12.8756 13.3341 13.2672Z" fill="#E73B36"/>
<path d="M0.0413752 10.8981C0.394441 14.8606 3.0586 18.1573 6.67691 19.4321C6.68653 19.4354 6.69599 19.4383 6.70532 19.4417L6.70532 13.2722C3.56101 12.884 0.883927 12.435 0.0413752 10.8981Z" fill="#3757A6"/>
<path d="M9.99987 3.97589e-08C8.84516 5.35286e-08 7.73724 0.198151 6.70523 0.558141L6.70523 13.787C8.84424 14.0512 11.1978 14.0494 13.334 13.782L13.334 0.571398C12.2911 0.202542 11.1694 2.58125e-08 9.99987 3.97589e-08Z" fill="#EFEFEF"/>
<path d="M13.3427 0.574334C13.3398 0.573236 13.3371 0.572265 13.334 0.571167L13.334 13.7819C16.4614 13.3903 19.1197 12.4284 19.9587 10.898C19.985 10.6019 20 10.3025 20 9.99973C20 5.64962 17.2215 1.94999 13.3427 0.574334Z" fill="#E73B36"/>
<path d="M6.70532 13.7871L6.70532 0.558228C6.69599 0.561563 6.68653 0.564561 6.67691 0.567854C2.78812 1.93806 3.72539e-05 5.64255 3.73059e-05 9.99983C3.73095e-05 10.3027 0.0148989 10.6021 0.0414149 10.8981C0.883925 12.435 3.56101 13.3988 6.70532 13.7871Z" fill="#3757A6"/>
</g>
<defs>
<clipPath id="clip0_151_905">
<rect width="20" height="20" fill="white" transform="translate(20) rotate(90)"/>
</clipPath>
</defs>
</svg>
