<svg width="20" height="20" viewBox="0 0 20 20" fill="none" xmlns="http://www.w3.org/2000/svg">
<path d="M10.0004 20C15.523 20 20 15.523 20 10.0004C20 4.47781 15.523 0.000854492 10.0004 0.000854492C4.47781 0.000854492 0.000854492 4.47781 0.000854492 10.0004C0.000854492 15.523 4.47781 20 10.0004 20Z" fill="white"/>
<path d="M19.4285 6.66577H13.2673C13.5348 8.80194 13.5365 11.1557 13.2723 13.2945H19.4417C19.8017 12.2627 19.9999 11.1546 19.9999 10C20 8.83031 19.7973 7.70863 19.4285 6.66577Z" fill="#DB2727"/>
<path d="M13.2671 6.6657H19.4283C19.4272 6.66254 19.4263 6.65988 19.4252 6.65701C18.1453 3.04833 14.8533 0.393326 10.8979 0.0408936C12.4285 0.879941 12.8756 3.53828 13.2671 6.6657Z" fill="#151515"/>
<path d="M10.8981 19.9584C14.8606 19.6053 18.1573 16.9412 19.4322 13.3228C19.4355 13.3132 19.4383 13.3038 19.4418 13.2944H13.2722C12.884 16.4388 12.4351 19.1159 10.8981 19.9584Z" fill="#F8D12E"/>
<path d="M0 10C0 11.1547 0.198151 12.2627 0.558141 13.2945H13.787C14.0512 11.1555 14.0494 8.80194 13.782 6.66577H0.571441C0.202584 7.70867 0 8.83035 0 10Z" fill="#DB2727"/>
<path d="M0.574395 6.65715C0.573297 6.65998 0.572326 6.66268 0.571228 6.66585H13.782C13.3904 3.53842 12.4285 0.88013 10.898 0.0410826C10.6019 0.0148624 10.3026 0 9.99975 0C5.64959 0 1.94996 2.77833 0.574395 6.65715Z" fill="#151515"/>
<path d="M13.7871 13.2944H0.558167C0.561502 13.3038 0.5645 13.3132 0.567793 13.3228C1.938 17.2116 5.64253 19.9997 9.99977 19.9997C10.3026 19.9997 10.602 19.9849 10.898 19.9583C12.435 19.1159 13.3988 16.4388 13.7871 13.2944Z" fill="#F8D12E"/>
</svg>
