<svg width="20" height="20" viewBox="0 0 20 20" fill="none" xmlns="http://www.w3.org/2000/svg">
<g clip-path="url(#clip0_151_924)">
<path d="M9.99964 1.68483e-05C4.47704 1.66727e-05 7.86947e-05 4.47697 7.85191e-05 9.99958C7.83436e-05 15.5222 4.47704 19.9991 9.99964 19.9991C15.5222 19.9991 19.9992 15.5222 19.9992 9.99958C19.9992 4.47697 15.5222 1.70238e-05 9.99964 1.68483e-05Z" fill="white"/>
<path d="M0.571503 13.334L6.73267 13.334C6.46519 11.1978 6.46346 8.84407 6.7276 6.70523L0.558204 6.70523C0.198215 7.73724 6.30852e-05 8.84516 6.30485e-05 9.99987C-0.000105789 11.1694 0.202647 12.2911 0.571503 13.334Z" fill="#3757A6"/>
<path d="M6.73283 13.3341L0.571631 13.3341C0.572728 13.3373 0.573698 13.3399 0.574797 13.3428C1.85469 16.9514 5.14666 19.6064 9.10211 19.9589C7.57142 19.1198 7.12445 16.4615 6.73283 13.3341Z" fill="#E73B36"/>
<path d="M9.10187 0.0413771C5.13936 0.394442 1.84266 3.0586 0.567833 6.67691C0.564497 6.68653 0.561668 6.69599 0.558207 6.70532L6.72777 6.70532C7.11597 3.56101 7.56492 0.883928 9.10187 0.0413771Z" fill="#EFEFEF"/>
<path d="M19.9999 9.99987C19.9999 8.84516 19.8018 7.73724 19.4418 6.70523L6.21291 6.70523C5.94876 8.84423 5.9505 11.1978 6.21798 13.334L19.4285 13.334C19.7974 12.2911 19.9999 11.1694 19.9999 9.99987Z" fill="#3757A6"/>
<path d="M19.4257 13.3427C19.4268 13.3398 19.4277 13.3371 19.4288 13.334L6.2181 13.334C6.60967 16.4614 7.57159 19.1197 9.10203 19.9587C9.39805 19.985 9.69745 20 10.0003 20C14.3504 20 18.05 17.2215 19.4257 13.3427Z" fill="#E73B36"/>
<path d="M6.21288 6.70532L19.4418 6.70532C19.4384 6.69599 19.4354 6.68653 19.4321 6.67691C18.0619 2.78812 14.3575 3.8939e-05 10.0002 3.88005e-05C9.6973 3.87909e-05 9.39795 0.0149004 9.10192 0.0414163C7.56498 0.883926 6.60116 3.56101 6.21288 6.70532Z" fill="#EFEFEF"/>
</g>
<defs>
<clipPath id="clip0_151_924">
<rect width="20" height="20" fill="white" transform="translate(20 20) rotate(-180)"/>
</clipPath>
</defs>
</svg>
