<svg width="20" height="20" viewBox="0 0 20 20" fill="none" xmlns="http://www.w3.org/2000/svg">
<g clip-path="url(#clip0_151_775)">
<path d="M19.9556 10.9351H0.0449829V10.9354H19.9556V10.9351Z" fill="#C42126"/>
<path d="M18.918 5.4762H1.08221V5.47649H18.918V5.4762Z" fill="#C42126"/>
<path d="M19.6264 7.29565H0.372803V7.29595H19.6264V7.29565Z" fill="#C42126"/>
<path d="M4.29794 18.213H15.7021L15.7027 18.2124H4.2973L4.29794 18.213Z" fill="#C42126"/>
<path d="M9.99974 0C9.80332 0 9.60846 0.00709344 9.41504 0.0181558H10.5846C10.391 0.00709344 10.1962 0 9.99974 0Z" fill="#C42126"/>
<path d="M19.9582 9.11536H0.0412598V9.11565H19.9582V9.11536Z" fill="#C42126"/>
<path d="M12.9556 3.6569H17.7307C17.1635 2.96643 16.5043 2.35521 15.774 1.83777H12.1884C12.4851 2.35977 12.7402 2.97572 12.9556 3.6569Z" fill="#E7E7E7"/>
<path d="M12.1883 1.83766H15.774C14.2917 0.787198 12.512 0.129366 10.5847 0.0180664H10.2769C11.184 0.132237 11.6006 0.803581 12.1883 1.83766Z" fill="#DC3027"/>
<path d="M19.6272 7.29594C19.4494 6.66183 19.2109 6.05344 18.9179 5.47681H13.4244C13.5357 6.06088 13.6235 6.67095 13.6885 7.29594H19.6272Z" fill="#E7E7E7"/>
<path d="M13.1155 5.47653H18.9179C18.5872 4.82617 18.19 4.21588 17.7308 3.6571H12.6622C12.841 4.22285 12.9927 4.83314 13.1155 5.47653Z" fill="#DC3027"/>
<path d="M13.8987 10.9349H19.9548C19.9835 10.6271 19.9998 10.3153 19.9998 10.0001C19.9998 9.70186 19.9841 9.4074 19.9586 9.1156H13.9001C13.9198 9.72065 13.9195 10.3301 13.8987 10.9349Z" fill="#E7E7E7"/>
<path d="M19.959 9.11552C19.9042 8.4907 19.7917 7.88282 19.6273 7.29639H13.4335C13.4957 7.89211 13.5368 8.5016 13.5569 9.11552H19.959Z" fill="#DC3027"/>
<path d="M13.3199 14.5737H18.8918C19.1889 13.9977 19.4311 13.3888 19.6127 12.7543H13.5893C13.523 13.3802 13.433 13.9901 13.3199 14.5737Z" fill="#E7E7E7"/>
<path d="M19.6126 12.7546C19.7804 12.1683 19.897 11.5604 19.9549 10.9354H13.71C13.6887 11.5498 13.6463 12.1591 13.5829 12.7546H19.6126Z" fill="#DC3027"/>
<path d="M15.7027 18.2128C16.4436 17.6974 17.1121 17.0856 17.6883 16.3937H12.9964C12.7771 17.0777 12.5167 17.6927 12.2147 18.2128H15.7027Z" fill="#E7E7E7"/>
<path d="M12.8199 16.3934H17.6883C18.1529 15.8353 18.5561 15.225 18.8916 14.574H13.279C13.1544 15.2178 13.0011 15.8284 12.8199 16.3934Z" fill="#DC3027"/>
<path d="M9.63766 19.9929C9.61743 19.9923 9.59725 19.9914 9.57703 19.9907C9.59725 19.9913 9.61748 19.9923 9.63766 19.9929Z" fill="#DC3027"/>
<path d="M10.0001 20.0001C12.1201 20.0001 14.0845 19.3384 15.7023 18.2134H12.0832C11.4408 19.32 11.017 20.0001 10.0001 20.0001Z" fill="#DC3027"/>
<path d="M10.0001 20.0001C9.87862 20.0001 9.75799 19.9973 9.6377 19.993C9.75925 19.9971 9.88001 20.0001 10.0001 20.0001Z" fill="#C42126"/>
<path d="M12.5194 1.83777H4.22611C3.49569 2.35521 2.83664 2.96639 2.26929 3.6569H13.2865C13.0711 2.97572 12.8161 2.35977 12.5194 1.83777Z" fill="#F3F4F5"/>
<path d="M4.22614 1.83766H12.5194C11.9316 0.803581 11.184 0.132237 10.2768 0.0180664H9.4152C7.48794 0.129366 5.70828 0.787198 4.22614 1.83766Z" fill="#E73625"/>
<path d="M0.373047 7.29594H14.0039C13.9388 6.67083 13.851 6.06088 13.7397 5.47681H1.08231C0.789238 6.05349 0.550847 6.66183 0.373047 7.29594Z" fill="#F3F4F5"/>
<path d="M2.2694 3.65698C1.81057 4.21576 1.413 4.826 1.08252 5.4764H13.7398C13.6171 4.83314 13.4653 4.22289 13.2866 3.65698C13.2866 3.65698 2.2694 3.65698 2.2694 3.65698Z" fill="#E73625"/>
<path d="M0.00012207 10.0001C0.00012207 10.3153 0.0165468 10.6271 0.0451316 10.9349H14.1261C14.1469 10.3301 14.1472 9.72078 14.1275 9.11572H0.0413316C0.0157445 9.4074 0.00012207 9.70186 0.00012207 10.0001Z" fill="#F3F4F5"/>
<path d="M0.0412598 9.11552H14.1273C14.1072 8.50147 14.066 7.89215 14.0039 7.29639H0.372836C0.208462 7.88295 0.0958962 8.4907 0.0412598 9.11552Z" fill="#E73625"/>
<path d="M13.9989 12.7545H0.387329C0.56893 13.3893 0.811289 13.9979 1.10828 14.5739H13.7295C13.8426 13.9905 13.9324 13.3806 13.9989 12.7545Z" fill="#F3F4F5"/>
<path d="M0.387284 12.7546H13.9988C14.0622 12.1591 14.1046 11.5496 14.1259 10.9354H0.0449829C0.102913 11.5605 0.219617 12.1683 0.387284 12.7546Z" fill="#E73625"/>
<path d="M4.29742 18.2128H12.489C12.7911 17.6925 13.0516 17.0777 13.2708 16.3937H2.31189C2.88806 17.0856 3.55641 17.6974 4.29742 18.2128Z" fill="#F3F4F5"/>
<path d="M1.10858 14.5739C1.44413 15.2248 1.84735 15.8351 2.31189 16.3933H13.2708C13.4518 15.8283 13.6051 15.2178 13.7296 14.5739H1.10858Z" fill="#E73625"/>
<path d="M9.57695 19.9907C9.59717 19.9913 9.61735 19.9923 9.63758 19.9929C9.75792 19.9972 9.87855 20 9.99994 20C11.017 20 11.8462 19.32 12.4887 18.2133H4.29803C5.80738 19.263 7.61907 19.9091 9.57695 19.9907Z" fill="#E73625"/>
<path d="M9.79319 0.00512695C4.66873 0.109375 0.492046 4.06604 0.0425415 9.09896H9.79336V0.00512695H9.79319Z" fill="#283991"/>
<path d="M2.00089 5.66577L2.15323 6.13487H2.64681L2.24751 6.42494L2.40002 6.89437L2.00089 6.60413L1.60188 6.89437L1.75409 6.42494L1.35492 6.13487H1.8485L2.00089 5.66577Z" fill="#EFEFEF"/>
<path d="M2.00089 7.32312L2.15323 7.79251H2.64681L2.24751 8.08258L2.40002 8.55202L2.00089 8.26178L1.60188 8.55202L1.75409 8.08258L1.35492 7.79251H1.8485L2.00089 7.32312Z" fill="#EFEFEF"/>
<path d="M3.65859 3.17932L3.81097 3.64859H4.30439L3.90521 3.93883L4.05759 4.40792L3.65859 4.11802L3.25941 4.40792L3.4118 3.93883L3.01245 3.64859H3.50604L3.65859 3.17932Z" fill="#EFEFEF"/>
<path d="M3.65859 4.83667L3.81097 5.30593H4.30439L3.90521 5.59584L4.05759 6.06527L3.65859 5.77537L3.25941 6.06527L3.4118 5.59584L3.01245 5.30593H3.50604L3.65859 4.83667Z" fill="#EFEFEF"/>
<path d="M3.65859 6.49438L3.81097 6.96382H4.30439L3.90521 7.25355L4.05759 7.72299L3.65859 7.43279L3.25941 7.72299L3.4118 7.25355L3.01245 6.96382H3.50604L3.65859 6.49438Z" fill="#EFEFEF"/>
<path d="M0.742539 7.7229L0.59003 7.25347L0.989205 6.96356H0.495916L0.484853 6.92932C0.430681 7.09686 0.381745 7.26643 0.336609 7.4379L0.343576 7.4327L0.742539 7.7229Z" fill="#EFEFEF"/>
<path d="M1.60203 5.23666L2.00104 4.94646L2.40021 5.23666L2.2477 4.76723L2.64688 4.47703H2.15329L2.00091 4.00793L1.84853 4.47703H1.66663C1.63285 4.52821 1.60017 4.57967 1.56732 4.63161L1.75428 4.76723L1.60203 5.23666Z" fill="#EFEFEF"/>
<path d="M3.65849 2.46011L4.05749 2.75002L3.90511 2.28092L4.30412 1.99072H4.01911C3.77705 2.17169 3.54351 2.36321 3.31914 2.56529L3.25897 2.75002L3.65849 2.46011Z" fill="#EFEFEF"/>
<path d="M4.91681 1.9215L5.31598 1.6313L5.71499 1.9215L5.5626 1.45207L5.96161 1.16216H5.46819L5.4475 1.099C5.2803 1.18442 5.11483 1.27329 4.95312 1.36787L5.06902 1.45202L4.91681 1.9215Z" fill="#EFEFEF"/>
<path d="M5.31614 2.35071L5.46852 2.81968H5.96194L5.56277 3.10987L5.71515 3.57931L5.31614 3.28907L4.91696 3.57931L5.06935 3.10987L4.67004 2.81968H5.16359L5.31614 2.35071Z" fill="#EFEFEF"/>
<path d="M5.31614 4.00806L5.46852 4.47703H5.96194L5.56277 4.76722L5.71515 5.23666L5.31614 4.94642L4.91696 5.23666L5.06935 4.76722L4.67004 4.47703H5.16359L5.31614 4.00806Z" fill="#EFEFEF"/>
<path d="M5.31614 5.66577L5.46852 6.13487H5.96194L5.56277 6.42494L5.71515 6.89437L5.31614 6.60413L4.91696 6.89437L5.06935 6.42494L4.67004 6.13487H5.16359L5.31614 5.66577Z" fill="#EFEFEF"/>
<path d="M5.31614 7.32312L5.46852 7.79251H5.96194L5.56277 8.08258L5.71515 8.55202L5.31614 8.26178L4.91696 8.55202L5.06935 8.08258L4.67004 7.79251H5.16359L5.31614 7.32312Z" fill="#EFEFEF"/>
<path d="M6.97385 1.52161L7.12624 1.99087H7.61965L7.22065 2.28111L7.37286 2.75021L6.97385 2.46031L6.57455 2.75021L6.72706 2.28111L6.32776 1.99087H6.8213L6.97385 1.52161Z" fill="#EFEFEF"/>
<path d="M6.97385 3.17932L7.12624 3.64859H7.61965L7.22065 3.93883L7.37286 4.40792L6.97385 4.11802L6.57455 4.40792L6.72706 3.93883L6.32776 3.64859H6.8213L6.97385 3.17932Z" fill="#EFEFEF"/>
<path d="M6.97385 4.83667L7.12624 5.30593H7.61965L7.22065 5.59584L7.37286 6.06527L6.97385 5.77537L6.57455 6.06527L6.72706 5.59584L6.32776 5.30593H6.8213L6.97385 4.83667Z" fill="#EFEFEF"/>
<path d="M6.97385 6.49438L7.12624 6.96382H7.61965L7.22065 7.25355L7.37286 7.72299L6.97385 7.43279L6.57455 7.72299L6.72706 7.25355L6.32776 6.96382H6.8213L6.97385 6.49438Z" fill="#EFEFEF"/>
<path d="M8.6312 0.692993L8.78359 1.16226H9.277L8.87783 1.45216L9.03021 1.9216L8.6312 1.63136L8.2319 1.9216L8.38441 1.45216L7.98511 1.16226H8.47852L8.6312 0.692993Z" fill="#EFEFEF"/>
<path d="M8.6312 2.35071L8.78359 2.81968H9.277L8.87783 3.10987L9.03021 3.57931L8.6312 3.28907L8.2319 3.57931L8.38441 3.10987L7.98511 2.81968H8.47852L8.6312 2.35071Z" fill="#EFEFEF"/>
<path d="M8.6312 4.00806L8.78359 4.47703H9.277L8.87783 4.76722L9.03021 5.23666L8.6312 4.94642L8.2319 5.23666L8.38441 4.76722L7.98511 4.47703H8.47852L8.6312 4.00806Z" fill="#EFEFEF"/>
<path d="M8.6312 5.66577L8.78359 6.13487H9.277L8.87783 6.42494L9.03021 6.89437L8.6312 6.60413L8.2319 6.89437L8.38441 6.42494L7.98511 6.13487H8.47852L8.6312 5.66577Z" fill="#EFEFEF"/>
<path d="M8.6312 7.32312L8.78359 7.79251H9.277L8.87783 8.08258L9.03021 8.55202L8.6312 8.26178L8.2319 8.55202L8.38441 8.08258L7.98511 7.79251H8.47852L8.6312 7.32312Z" fill="#EFEFEF"/>
</g>
<defs>
<clipPath id="clip0_151_775">
<rect width="20" height="20" fill="white"/>
</clipPath>
</defs>
</svg>
