<svg width="16" height="16" viewBox="0 0 16 16" fill="none" xmlns="http://www.w3.org/2000/svg">
<path fill-rule="evenodd" clip-rule="evenodd" d="M8 16C12.4183 16 16 12.4183 16 8C16 3.58172 12.4183 0 8 0C3.58172 0 0 3.58172 0 8C0 12.4183 3.58172 16 8 16ZM12.3738 6.37377C12.7643 5.98325 12.7643 5.35008 12.3738 4.95956C11.9832 4.56904 11.3501 4.56904 10.9596 4.95956L6.66667 9.25245L5.04044 7.62623C4.64992 7.2357 4.01675 7.2357 3.62623 7.62623C3.2357 8.01675 3.2357 8.64992 3.62623 9.04044L5.95956 11.3738C6.1471 11.5613 6.40145 11.6667 6.66667 11.6667C6.93188 11.6667 7.18624 11.5613 7.37377 11.3738L12.3738 6.37377Z" fill="#2C9757"/>
</svg>
