<svg width="50" height="50" viewBox="0 0 50 50" fill="none" xmlns="http://www.w3.org/2000/svg">
<path d="M0.50094 2.64486H0.501123L0.500757 2.63133C0.469927 1.49258 1.36576 0.540389 2.50923 0.49998H47.4908C48.6342 0.540388 49.53 1.49247 49.4992 2.63136L49.4991 2.63136V2.64486V38.915H49.4989L49.4992 38.9285C49.5301 40.0673 48.6342 41.0194 47.4907 41.0598H33.0146H32.2047L32.5677 41.7839L34.2343 45.1086L34.3726 45.3846H34.6813H37.4995C38.6052 45.3846 39.4994 46.2784 39.4994 47.3782C39.4994 48.478 38.6052 49.3718 37.4995 49.3718H12.5005C11.3948 49.3718 10.5006 48.478 10.5006 47.3782C10.5006 46.2784 11.3948 45.3846 12.5005 45.3846H15.3187H15.6274L15.7657 45.1086L17.4322 41.7839L17.7952 41.0598H16.9853H2.50926C1.36578 41.0194 0.469927 40.0673 0.500757 38.9285L0.50094 38.9285V38.915V2.64486ZM2.50086 1.16235H2.47517L2.44961 1.16498C1.69222 1.24304 1.12843 1.89991 1.16752 2.65907V34.9102V35.4102H1.6675H48.3324H48.8324V34.9102V2.65901C48.8716 1.89985 48.3077 1.24303 47.5504 1.16498L47.5248 1.16235H47.4991H2.50086ZM32.8181 45.3846H33.628L33.265 44.6605L31.5984 41.3358L31.4601 41.0598H31.1514H18.8486H18.5399L18.4016 41.3358L16.735 44.6605L16.372 45.3846H17.1819H32.8181ZM47.4991 40.3974H47.5248L47.5504 40.3947C48.3078 40.3167 48.8716 39.6598 48.8325 38.9007V36.5726V36.0727H48.3325H1.6676H1.16761V36.5726V38.9007C1.1284 39.6599 1.69228 40.3167 2.44961 40.3947L2.47517 40.3974H2.50086H47.4991ZM37.4995 48.7093C38.2347 48.7093 38.8328 48.1146 38.8328 47.3782C38.8328 46.6419 38.2348 46.0469 37.4995 46.047C37.4995 46.047 37.4994 46.047 37.4994 46.047H12.5005C11.7654 46.047 11.1672 46.6419 11.1672 47.3782C11.1672 48.1144 11.7653 48.7093 12.5005 48.7093H37.4995Z" fill="#152F82" stroke="#152F82" stroke-width="0.999961"/>
</svg>
