<svg width="18" height="14" viewBox="0 0 18 14" fill="none" xmlns="http://www.w3.org/2000/svg">
<defs>
<linearGradient id="paint0_linear" x1="8.982" y1="12.175" x2="8.982" y2="13.9751" gradientUnits="userSpaceOnUse">
<stop stop-color="#FFB901"/>
<stop offset="1" stop-color="#FD7500"/>
</linearGradient>
<linearGradient id="paint1_linear" x1="8.98996" y1="0.0250244" x2="8.98996" y2="11.2683" gradientUnits="userSpaceOnUse">
<stop stop-color="#FFB901"/>
<stop offset="1" stop-color="#FD7500"/>
</linearGradient>
</defs>
<path d="M15.7725 12.1751H2.1915C2.12904 12.1748 2.06722 12.1876 2.00997 12.2126C1.95273 12.2375 1.9013 12.2742 1.85897 12.3201C1.81665 12.366 1.78434 12.4202 1.76412 12.4793C1.74389 12.5384 1.73619 12.6011 1.7415 12.6633L1.782 13.1493C1.80067 13.3749 1.90368 13.5852 2.07048 13.7382C2.23728 13.8913 2.45563 13.9758 2.682 13.9751H15.282C15.5084 13.9758 15.7267 13.8913 15.8935 13.7382C16.0603 13.5852 16.1633 13.3749 16.182 13.1493L16.2225 12.6633C16.2278 12.6011 16.2201 12.5384 16.1999 12.4793C16.1797 12.4202 16.1473 12.366 16.105 12.3201C16.0627 12.2742 16.0113 12.2375 15.954 12.2126C15.8968 12.1876 15.835 12.1748 15.7725 12.1751Z" fill="url(#paint0_linear)"/>
<path d="M1.26899 8.57502L1.55699 10.375C1.55699 10.3975 1.55699 10.42 1.55699 10.4425L1.59074 10.8565C1.60035 10.9691 1.65197 11.074 1.73534 11.1503C1.81871 11.2266 1.92774 11.2687 2.04074 11.2683H15.921C16.034 11.2687 16.143 11.2266 16.2264 11.1503C16.3098 11.074 16.3614 10.9691 16.371 10.8565L16.407 10.4493C16.407 10.4268 16.407 10.4043 16.407 10.3818L16.695 8.58177L17.739 2.01627C17.7603 1.90478 17.7603 1.79027 17.739 1.67877C17.7401 1.66079 17.7401 1.64276 17.739 1.62477C17.7327 1.59158 17.7229 1.55915 17.7097 1.52802L17.6962 1.49202C17.6924 1.47947 17.6871 1.46739 17.6805 1.45602C17.6714 1.43437 17.6608 1.41333 17.649 1.39302C17.6463 1.38392 17.6417 1.37548 17.6355 1.36827C17.6098 1.32732 17.5812 1.28823 17.55 1.25127C17.55 1.25127 17.55 1.24002 17.5365 1.23327C17.5119 1.20608 17.4856 1.18053 17.4577 1.15677C17.4384 1.13765 17.4173 1.12033 17.3947 1.10502L17.3767 1.09377C17.3341 1.0624 17.2881 1.03598 17.2395 1.01502C17.212 1.00146 17.1834 0.990173 17.154 0.981274C17.1322 0.972474 17.1096 0.965695 17.0865 0.961024C17.0622 0.953628 17.0374 0.948358 17.0122 0.945274C16.9868 0.942939 16.9612 0.942939 16.9357 0.945274C16.8655 0.936283 16.7945 0.936283 16.7242 0.945274H16.677C16.6502 0.949902 16.6239 0.956674 16.5982 0.965524C16.5728 0.972522 16.548 0.981551 16.524 0.992524L16.4542 1.02402C16.4308 1.03585 16.4082 1.04939 16.3867 1.06452C16.3575 1.08477 16.326 1.10727 16.2967 1.13202C16.2675 1.15677 16.2967 1.13202 16.2967 1.13202L13.221 3.85002C13.1762 3.89009 13.1237 3.92077 13.0668 3.94024C13.01 3.95972 12.9497 3.96759 12.8897 3.96339C12.8298 3.9592 12.7712 3.94302 12.7176 3.91582C12.664 3.88862 12.6163 3.85095 12.5775 3.80502L9.69974 0.382774L9.67049 0.346774C9.61988 0.285459 9.56078 0.231668 9.49499 0.187024L9.42749 0.144275C9.31846 0.0804888 9.19744 0.0398919 9.07199 0.0250244H8.98199H8.89199C8.76688 0.0385047 8.64588 0.0775634 8.53649 0.139774L8.46899 0.182525C8.44631 0.197753 8.42452 0.21428 8.40374 0.232024C8.35216 0.27566 8.3054 0.324689 8.26424 0.378274L5.38199 3.80727C5.34317 3.8532 5.29553 3.89087 5.2419 3.91807C5.18827 3.94527 5.12973 3.96145 5.06974 3.96564C5.00976 3.96984 4.94954 3.96197 4.89264 3.94249C4.83575 3.92302 4.78333 3.89234 4.73849 3.85227L1.70549 1.15002C1.70549 1.15002 1.64474 1.10277 1.61549 1.08252C1.52366 1.02069 1.42038 0.977852 1.31174 0.956524H1.26449C1.24506 0.954313 1.22543 0.954313 1.20599 0.956524L1.10699 0.925024C1.05644 0.925047 1.00599 0.929565 0.956244 0.938524C0.931083 0.941608 0.906239 0.946878 0.881994 0.954274C0.858922 0.958945 0.836327 0.965723 0.814494 0.974524C0.785121 0.983423 0.756525 0.994711 0.728994 1.00827C0.680405 1.02923 0.634358 1.05565 0.591744 1.08702C0.55503 1.1101 0.521062 1.13727 0.490494 1.16802L0.431994 1.22652C0.431994 1.22652 0.431994 1.23777 0.418494 1.24452C0.387295 1.28148 0.358725 1.32057 0.332994 1.36152C0.326802 1.36873 0.322202 1.37717 0.319494 1.38627C0.307656 1.40658 0.297134 1.42762 0.287994 1.44927C0.281395 1.46064 0.276112 1.47272 0.272244 1.48527L0.258744 1.52127C0.245611 1.5524 0.235806 1.58483 0.229494 1.61802C0.229494 1.63602 0.229494 1.65402 0.229494 1.67202C0.228431 1.6757 0.228431 1.6796 0.229494 1.68327C0.227283 1.70346 0.227283 1.72383 0.229494 1.74402C0.220449 1.8327 0.225001 1.92223 0.242994 2.00952L1.26899 8.57502Z" fill="url(#paint1_linear)"/>
</svg>
