<svg width="20" height="16" viewBox="0 0 20 16" fill="none" xmlns="http://www.w3.org/2000/svg">
<defs>
<linearGradient id="paint0_linear_172_4657" x1="10" y1="0" x2="10" y2="16" gradientUnits="userSpaceOnUse">
<stop stop-color="#FAB406"/>
<stop offset="1" stop-color="#FF7F03"/>
</linearGradient>
</defs>
<path fill-rule="evenodd" clip-rule="evenodd" d="M9.76303 0.0662887C9.71122 0.104117 8.83679 1.66511 7.81977 3.53522C6.8028 5.40532 5.94903 6.94264 5.92264 6.9514C5.89619 6.96022 4.68636 6.02348 3.23408 4.86984C1.7818 3.71614 0.533954 2.75649 0.461049 2.73727C0.290263 2.69226 0.0636944 2.81865 0.00278524 2.99293C-0.0346218 3.09989 0.294517 4.16693 1.61385 8.21652L3.27192 13.3057H10.001H16.7301L18.3872 8.21652C19.7074 4.16214 20.0347 3.1 19.9972 2.99293C19.936 2.81854 19.7094 2.69226 19.5388 2.73744C19.4658 2.75671 18.2192 3.71674 16.7684 4.87087C15.3176 6.02495 14.1079 6.96164 14.08 6.95238C14.0521 6.94308 13.2016 5.41398 12.19 3.55438C11.1784 1.69472 10.3178 0.133673 10.2777 0.0853935C10.1906 -0.0192209 9.89526 -0.0302156 9.76303 0.0662887ZM3.45639 14.9658C3.45639 15.7097 3.4661 15.792 3.56545 15.8911C3.67326 15.9987 3.7472 16 9.9999 16C16.2526 16 16.3265 15.9987 16.4343 15.8911C16.5337 15.792 16.5434 15.7097 16.5434 14.9658V14.1494H9.9999H3.45639V14.9658Z" fill="url(#paint0_linear_172_4657)"/>
</svg>
