<svg width="50" height="50" viewBox="0 0 50 50" fill="none" xmlns="http://www.w3.org/2000/svg">
<g clip-path="url(#clip0_139_3778)">
<path d="M24.9999 5.63086C14.3282 5.63086 5.64502 14.2919 5.64502 24.9368C5.64502 35.5818 14.328 44.2428 24.9999 44.2428C35.6718 44.2428 44.3548 35.5818 44.3548 24.9368C44.3548 14.2919 35.6716 5.63086 24.9999 5.63086ZM24.9999 42.634C15.2168 42.634 7.25796 34.6952 7.25796 24.9368C7.25796 15.1784 15.2168 7.23972 24.9999 7.23972C34.783 7.23972 42.7419 15.1784 42.7419 24.9368C42.7419 34.6952 34.783 42.634 24.9999 42.634Z" fill="#152F82"/>
<path d="M46.6423 12.4677L45.2472 13.2736C47.3013 16.8114 48.3875 20.8447 48.3875 24.9368C48.3875 37.7994 37.8957 48.2648 25.0005 48.2648C12.1053 48.2648 1.61342 37.7994 1.61342 24.9368C1.61342 12.0742 12.1053 1.60886 25.0005 1.60886C28.6746 1.60886 32.3085 2.48644 35.5642 4.13229C35.5151 4.35595 35.4844 4.58755 35.4844 4.82658C35.4844 6.60116 36.9312 8.0443 38.7103 8.0443C40.4893 8.0443 41.9361 6.60116 41.9361 4.82658C41.9361 3.052 40.4893 1.60886 38.7103 1.60886C37.7499 1.60886 36.8965 2.0376 36.3046 2.70368C32.8206 0.940416 28.9312 0 25.0005 0C11.215 0 0.000488281 11.1862 0.000488281 24.9368C0.000488281 38.6875 11.215 49.8737 25.0005 49.8737C38.786 49.8737 50.0005 38.6875 50.0005 24.9368C50.0005 20.5625 48.8401 16.2499 46.6423 12.4677ZM38.7101 3.21772C39.5996 3.21772 40.323 3.93921 40.323 4.82658C40.323 5.71395 39.5997 6.43544 38.7101 6.43544C37.8205 6.43544 37.0972 5.71395 37.0972 4.82658C37.0972 3.93921 37.8207 3.21772 38.7101 3.21772Z" fill="#152F82"/>
<path d="M12.563 26.6756L14.1206 20.627H14.937L14.8457 22.186L13.1807 28.4275H12.332L12.563 26.6756ZM11.3975 20.627L12.6597 26.6274L12.7725 28.4275H11.8701L10.0601 20.627H11.3975ZM16.7041 26.6113L17.9502 20.627H19.293L17.4829 28.4275H16.5806L16.7041 26.6113ZM15.2539 20.627L16.7954 26.6917L17.021 28.4275H16.1724L14.5342 22.186L14.4482 20.627H15.2539Z" fill="#152F82"/>
<path d="M23.6824 26.6756L25.2401 20.627H26.0565L25.9652 22.186L24.3001 28.4275H23.4515L23.6824 26.6756ZM22.5169 20.627L23.7791 26.6274L23.8919 28.4275H22.9896L21.1795 20.627H22.5169ZM27.8236 26.6113L29.0696 20.627H30.4124L28.6024 28.4275H27.7L27.8236 26.6113ZM26.3734 20.627L27.9149 26.6917L28.1404 28.4275H27.2918L25.6536 22.186L25.5677 20.627H26.3734Z" fill="#152F82"/>
<path d="M34.8019 26.6756L36.3595 20.627H37.1759L37.0846 22.186L35.4196 28.4275H34.5709L34.8019 26.6756ZM33.6364 20.627L34.8986 26.6274L35.0114 28.4275H34.109L32.299 20.627H33.6364ZM38.943 26.6113L40.1891 20.627H41.5319L39.7218 28.4275H38.8195L38.943 26.6113ZM37.4928 20.627L39.0343 26.6917L39.2599 28.4275H38.4113L36.7731 22.186L36.6871 20.627H37.4928Z" fill="#152F82"/>
</g>
<defs>
<clipPath id="clip0_139_3778">
<rect width="50" height="49.8737" fill="white" transform="translate(0.000488281)"/>
</clipPath>
</defs>
</svg>
