<svg width="34" height="20" viewBox="0 0 34 20" fill="none" xmlns="http://www.w3.org/2000/svg">
<path d="M4 20C6.20914 20 8 18.2091 8 16C8 13.7909 6.20914 12 4 12C1.79086 12 0 13.7909 0 16C0 18.2091 1.79086 20 4 20Z" fill="#DE8A0B"/>
<path d="M17 8C19.2091 8 21 6.20914 21 4C21 1.79086 19.2091 0 17 0C14.7909 0 13 1.79086 13 4C13 6.20914 14.7909 8 17 8Z" fill="#FDAC32"/>
<path d="M30 20C32.2091 20 34 18.2091 34 16C34 13.7909 32.2091 12 30 12C27.7909 12 26 13.7909 26 16C26 18.2091 27.7909 20 30 20Z" fill="#DE3E0B"/>
</svg>
