<svg fill="none" height="48" viewBox="0 0 48 48" width="48" xmlns="http://www.w3.org/2000/svg"><g stroke="#fafafa" stroke-width="2"><circle cx="24" cy="24" r="20.375"/><circle cx="24" cy="24" r="20.375"/><g stroke-linecap="round"><path d="m32.25 23.625c0 1.6317-.4839 3.2267-1.3904 4.5834-.9065 1.3568-2.195 2.4142-3.7025 3.0386s-3.1663.7878-4.7666.4695c-1.6003-.3184-3.0703-1.1041-4.2241-2.2579"/><path d="m18 32.1713v-2.9211"/><path d="m20.9211 29.25h-2.9211"/><path d="m15.75 23.9214c0-1.6317.4839-3.2268 1.3904-4.5835s2.195-2.4141 3.7025-3.0385c1.5075-.6245 3.1663-.7878 4.7666-.4695s3.0704 1.104 4.2241 2.2578"/><path d="m30 15.375v2.9211"/><path d="m27.0789 18.2963h2.9211"/></g></g></svg>