<svg width="74" height="98" viewBox="0 0 74 98" fill="none" xmlns="http://www.w3.org/2000/svg">
<path d="M53.9974 18.889C54.642 17.2348 55.0919 15.5113 55.3383 13.7532C54.7972 13.4916 54.246 13.2431 53.6769 13.0209C50.4628 11.7657 47.0063 11.2546 43.5665 11.5259C40.1267 11.7972 36.7931 12.8438 33.8155 14.5873C30.838 16.3308 28.2939 18.7259 26.374 21.5929C24.4542 24.4599 23.2084 27.7244 22.7302 31.1415C23.2713 31.4033 23.8224 31.6518 24.3917 31.8738C27.1882 32.9652 30.1724 33.4951 33.1737 33.4332C36.175 33.3713 39.1347 32.7189 41.8839 31.5131C44.633 30.3074 47.1178 28.5719 49.1962 26.4059C51.2747 24.2398 52.9061 21.6856 53.9974 18.889Z" fill="#76C526"/>
<path d="M53.9976 18.8887C54.3373 18.0168 54.6227 17.1247 54.8523 16.2175C52.0487 20.7869 47.7289 24.226 42.6474 25.9341C37.5658 27.6421 32.0458 27.5105 27.0514 25.5623C26.4821 25.3402 25.931 25.0917 25.3901 24.8301C25.5072 24.0006 25.6694 23.178 25.876 22.3661C24.2377 25.045 23.167 28.0318 22.7302 31.1414C23.2713 31.4032 23.8222 31.6516 24.3917 31.8737C27.1883 32.9651 30.1724 33.495 33.1738 33.4331C36.1751 33.3711 39.1348 32.7187 41.884 31.5129C44.6332 30.3071 47.1179 28.5717 49.1964 26.4056C51.2748 24.2395 52.9063 21.6853 53.9976 18.8887Z" fill="#5FA412"/>
<path d="M42.7107 20.3188C42.7107 20.3188 34.3496 23.0664 22.7302 31.1415" stroke="#363A5A" stroke-width="2" stroke-linecap="round" stroke-linejoin="round"/>
<path d="M19.4144 20.8011C19.4144 20.8011 22.8145 37.457 26.4958 42.0795" stroke="#363A5A" stroke-width="2" stroke-linecap="round" stroke-linejoin="round"/>
<path d="M59.8079 55.1011C59.8043 58.6777 59.09 62.2179 57.7065 65.516C56.323 68.8141 54.2979 71.8044 51.7488 74.3132C49.1998 76.8219 46.1775 78.7991 42.8578 80.1299C39.538 81.4606 35.9869 82.1184 32.4107 82.0649C28.8346 82.0115 25.3047 81.2479 22.0262 79.8185C18.7477 78.3892 15.7859 76.3226 13.3129 73.7387C10.84 71.1549 8.90512 68.1054 7.62081 64.7674C6.33649 61.4294 5.72833 57.8695 5.83164 54.2944C6.22635 40.3184 16.8506 28.8363 31.0676 30.0555C32.2155 30.1568 33.3688 30.1826 34.5201 30.1325C48.8088 29.4729 59.8079 40.7587 59.8079 55.1011Z" fill="#FF7D00"/>
<path d="M53.0587 37.5468C54.2231 40.7431 54.8141 44.1199 54.8045 47.5217C54.794 52.352 53.5943 57.1054 51.3112 61.3621C49.0281 65.6187 45.732 69.2477 41.7139 71.9286C37.6959 74.6094 33.0795 76.2595 28.2725 76.7332C23.4655 77.207 18.6158 76.4897 14.1517 74.6448C17.9802 78.2888 22.7932 80.7302 27.9951 81.6667C33.1969 82.6032 38.5592 81.9937 43.4182 79.9138C48.2772 77.8338 52.4196 74.3746 55.3327 69.9644C58.2458 65.5542 59.8017 60.3866 59.8078 55.1011C59.8078 48.2178 57.2735 42.0395 53.0587 37.5468Z" fill="#FF6C22"/>
<path d="M14.1555 45.8632C13.9499 45.8631 13.7478 45.8101 13.5686 45.7093C13.3894 45.6086 13.239 45.4635 13.132 45.2879C13.025 45.1123 12.9649 44.9122 12.9575 44.7067C12.9501 44.5013 12.9956 44.2973 13.0897 44.1145C17.6506 35.2459 26.6022 34.1551 26.9811 34.1129C27.2973 34.0774 27.6146 34.169 27.8633 34.3675C28.112 34.5659 28.2717 34.8551 28.3072 35.1713C28.3427 35.4875 28.2512 35.8049 28.0527 36.0536C27.8542 36.3023 27.565 36.462 27.2488 36.4975C26.9213 36.5356 19.1807 37.517 15.2233 45.212C15.1224 45.4083 14.9694 45.5729 14.781 45.6878C14.5926 45.8027 14.3762 45.8634 14.1555 45.8632Z" fill="#FF9636"/>
<path d="M14.8754 54.2613C15.4055 54.2613 15.8352 53.8316 15.8352 53.3015C15.8352 52.7714 15.4055 52.3417 14.8754 52.3417C14.3453 52.3417 13.9156 52.7714 13.9156 53.3015C13.9156 53.8316 14.3453 54.2613 14.8754 54.2613Z" fill="#FF9636"/>
<path d="M22.0737 72.0172C22.6038 72.0172 23.0335 71.5874 23.0335 71.0574C23.0335 70.5273 22.6038 70.0976 22.0737 70.0976C21.5436 70.0976 21.1139 70.5273 21.1139 71.0574C21.1139 71.5874 21.5436 72.0172 22.0737 72.0172Z" fill="#FF9636"/>
<path d="M15.3553 65.5386C16.1504 65.5386 16.795 64.8941 16.795 64.099C16.795 63.3039 16.1504 62.6593 15.3553 62.6593C14.5602 62.6593 13.9156 63.3039 13.9156 64.099C13.9156 64.8941 14.5602 65.5386 15.3553 65.5386Z" fill="#FF9636"/>
<path d="M26.0328 59.0602C26.4966 59.0602 26.8726 58.6842 26.8726 58.2204C26.8726 57.7565 26.4966 57.3806 26.0328 57.3806C25.569 57.3806 25.193 57.7565 25.193 58.2204C25.193 58.6842 25.569 59.0602 26.0328 59.0602Z" fill="#FF9636"/>
<path d="M41.2021 67.9976C39.84 83.4346 50.4719 92.4648 55.9581 95.0502C69.7303 87.4831 71.2816 73.8622 70.3357 67.9976C57.4715 61.3385 45.5532 65.223 41.2021 67.9976Z" fill="#075681" stroke="#008AAD"/>
<path d="M55.9341 80.4471C55.4684 80.4471 55.0902 80.7914 55.0902 81.2148C55.0902 81.639 55.468 81.9825 55.9341 81.9825C56.4002 81.9825 56.7776 81.6386 56.7776 81.2148C56.7776 80.791 56.4002 80.4471 55.9341 80.4471ZM62.427 74.6799C60.6917 73.1936 58.3848 72.3752 55.9316 72.3752C53.4784 72.3752 51.1715 73.1936 49.4362 74.6807C49.1298 74.9431 49.1298 75.3681 49.4362 75.6309C49.5891 75.762 49.79 75.8277 49.9905 75.8277C50.191 75.8277 50.3919 75.762 50.5453 75.6309C51.9839 74.3979 53.897 73.7911 55.9312 73.7911C57.9662 73.7911 59.8789 74.3979 61.3175 75.6302C61.6239 75.8926 62.1202 75.8926 62.427 75.6302C62.7329 75.3677 62.7334 74.9423 62.427 74.6799ZM55.9249 75.0626C54.1118 75.0626 52.4072 75.7035 51.1249 76.867C50.8051 77.1575 50.8051 77.6282 51.1249 77.9187C51.285 78.0644 51.4947 78.137 51.7045 78.137C51.9142 78.137 52.1239 78.0643 52.2836 77.9187C53.2561 77.0361 54.5497 76.5016 55.9249 76.5016C57.2996 76.5016 58.5937 77.0365 59.5658 77.9187C59.886 78.2092 60.4046 78.2092 60.7244 77.9187C61.0447 77.6282 61.0447 77.1575 60.7244 76.867C59.4422 75.7035 57.7371 75.0626 55.9249 75.0626ZM55.932 77.7512C54.9065 77.7512 53.9429 78.1274 53.2175 78.8102C52.9169 79.093 52.9169 79.5526 53.2175 79.8354C53.3671 79.9764 53.5642 80.0471 53.7613 80.0471C53.958 80.0471 54.1547 79.9764 54.3047 79.8354C54.7393 79.4258 55.3172 79.1764 55.932 79.1764C56.5461 79.1764 57.124 79.4254 57.5594 79.8346C57.8599 80.1174 58.3461 80.1174 58.6471 79.8346C58.9468 79.5518 58.9468 79.093 58.6471 78.8102C57.9216 78.1274 56.9575 77.7512 55.932 77.7512Z" fill="white"/>
<path d="M41.3116 64.5C39.6303 63.5333 34.8791 65.331 31.5 64.5" stroke="#363A5A"/>
<ellipse cx="29.031" cy="55.7225" rx="2.24171" ry="0.640489" fill="#FF6C22"/>
<ellipse cx="49.8469" cy="55.4023" rx="1.92147" ry="0.320244" fill="#FF6C22"/>
<ellipse cx="48.2679" cy="50.7001" rx="2.45933" ry="5.29701" fill="#363A5A"/>
<ellipse cx="49.2968" cy="48.8848" rx="1.13507" ry="2.27015" fill="white"/>
<path d="M51.2948 44.5458C51.0425 43.7891 50.1219 42.3891 48.4571 42.8432" stroke="#363A5A"/>
<circle cx="47.7004" cy="49.9433" r="0.378358" fill="white"/>
<circle cx="48.6463" cy="51.6459" r="0.567537" fill="white"/>
<ellipse cx="30.4852" cy="50.7" rx="2.45933" ry="5.29701" fill="#363A5A"/>
<ellipse cx="31.5286" cy="48.8656" rx="1.13507" ry="2.27015" fill="white"/>
<path d="M28 43.5937C28.5699 43.0356 30.0282 42.2105 31.302 43.3745" stroke="#363A5A"/>
<circle cx="29.5392" cy="50.3216" r="0.378358" fill="white"/>
<circle cx="30.4852" cy="52.0241" r="0.567537" fill="white"/>
</svg>
