<svg width="210" height="236" viewBox="0 0 210 236" fill="none" xmlns="http://www.w3.org/2000/svg">
<defs>
<linearGradient id="paint0_linear_139_7404" x1="174.238" y1="150.228" x2="174.238" y2="191.103" gradientUnits="userSpaceOnUse">
<stop stop-color="#3FB1EE"/>
<stop offset="1" stop-color="#1588C6"/>
</linearGradient>
<linearGradient id="paint1_linear_139_7404" x1="148.823" y1="191.103" x2="148.823" y2="204.476" gradientUnits="userSpaceOnUse">
<stop stop-color="#3FB1EE"/>
<stop offset="1" stop-color="#1588C6"/>
</linearGradient>
<linearGradient id="paint2_linear_139_7404" x1="199.653" y1="191.103" x2="199.653" y2="204.476" gradientUnits="userSpaceOnUse">
<stop stop-color="#3FB1EE"/>
<stop offset="1" stop-color="#1588C6"/>
</linearGradient>
<linearGradient id="paint3_linear_139_7404" x1="13.4358" y1="54.7516" x2="13.4358" y2="57.014" gradientUnits="userSpaceOnUse">
<stop stop-color="#3FB1EE"/>
<stop offset="1" stop-color="#1588C6"/>
</linearGradient>
<linearGradient id="paint4_linear_139_7404" x1="13.4358" y1="55.5057" x2="13.4358" y2="56.9826" gradientUnits="userSpaceOnUse">
<stop stop-color="#0084C7"/>
<stop offset="1" stop-color="#69CAFD" stop-opacity="0"/>
</linearGradient>
<linearGradient id="paint5_linear_139_7404" x1="13.4358" y1="56.6118" x2="13.4358" y2="72.0468" gradientUnits="userSpaceOnUse">
<stop stop-color="#3FB1EE"/>
<stop offset="1" stop-color="#1588C6"/>
</linearGradient>
<linearGradient id="paint6_linear_139_7404" x1="33.1751" y1="44.3945" x2="33.1751" y2="46.657" gradientUnits="userSpaceOnUse">
<stop stop-color="#3FB1EE"/>
<stop offset="1" stop-color="#1588C6"/>
</linearGradient>
<linearGradient id="paint7_linear_139_7404" x1="33.1751" y1="45.1487" x2="33.1751" y2="46.6256" gradientUnits="userSpaceOnUse">
<stop stop-color="#0084C7"/>
<stop offset="1" stop-color="#69CAFD" stop-opacity="0"/>
</linearGradient>
<linearGradient id="paint8_linear_139_7404" x1="33.1751" y1="46.2548" x2="33.1751" y2="61.6898" gradientUnits="userSpaceOnUse">
<stop stop-color="#3FB1EE"/>
<stop offset="1" stop-color="#1588C6"/>
</linearGradient>
<linearGradient id="paint9_linear_139_7404" x1="51.6587" y1="33.8364" x2="51.6587" y2="36.0989" gradientUnits="userSpaceOnUse">
<stop stop-color="#3FB1EE"/>
<stop offset="1" stop-color="#1588C6"/>
</linearGradient>
<linearGradient id="paint10_linear_139_7404" x1="51.6587" y1="34.5906" x2="51.6587" y2="36.0675" gradientUnits="userSpaceOnUse">
<stop stop-color="#0084C7"/>
<stop offset="1" stop-color="#69CAFD" stop-opacity="0"/>
</linearGradient>
<linearGradient id="paint11_linear_139_7404" x1="51.6587" y1="35.6967" x2="51.6587" y2="51.1317" gradientUnits="userSpaceOnUse">
<stop stop-color="#3FB1EE"/>
<stop offset="1" stop-color="#1588C6"/>
</linearGradient>
<linearGradient id="paint12_linear_139_7404" x1="185.062" y1="32.9314" x2="185.062" y2="61.9412" gradientUnits="userSpaceOnUse">
<stop stop-color="#3FB1EE"/>
<stop offset="1" stop-color="#1588C6"/>
</linearGradient>
<linearGradient id="paint13_linear_139_7404" x1="187.694" y1="53.9868" x2="187.694" y2="41.0154" gradientUnits="userSpaceOnUse">
<stop stop-color="#3FB1EE"/>
<stop offset="1" stop-color="#1588C6"/>
</linearGradient>
<linearGradient id="paint14_linear_139_7404" x1="185.929" y1="45.1656" x2="185.929" y2="38.8308" gradientUnits="userSpaceOnUse">
<stop stop-color="#3FB1EE"/>
<stop offset="1" stop-color="#1588C6"/>
</linearGradient>
<linearGradient id="paint15_linear_139_7404" x1="185.062" y1="104.375" x2="185.062" y2="133.385" gradientUnits="userSpaceOnUse">
<stop stop-color="#3FB1EE"/>
<stop offset="1" stop-color="#1588C6"/>
</linearGradient>
<linearGradient id="paint16_linear_139_7404" x1="184.233" y1="112.52" x2="184.233" y2="125.491" gradientUnits="userSpaceOnUse">
<stop stop-color="#3FB1EE"/>
<stop offset="1" stop-color="#1588C6"/>
</linearGradient>
<linearGradient id="paint17_linear_139_7404" x1="185.966" y1="110.308" x2="185.966" y2="116.643" gradientUnits="userSpaceOnUse">
<stop stop-color="#3FB1EE"/>
<stop offset="1" stop-color="#1588C6"/>
</linearGradient>
<linearGradient id="paint18_linear_139_7404" x1="185.062" y1="68.7788" x2="185.062" y2="97.7886" gradientUnits="userSpaceOnUse">
<stop stop-color="#3FB1EE"/>
<stop offset="1" stop-color="#1588C6"/>
</linearGradient>
<linearGradient id="paint19_linear_139_7404" x1="185.188" y1="77.5773" x2="185.188" y2="86.9791" gradientUnits="userSpaceOnUse">
<stop stop-color="#3FB1EE"/>
<stop offset="1" stop-color="#1588C6"/>
</linearGradient>
<linearGradient id="paint20_linear_139_7404" x1="52.3368" y1="175.818" x2="52.3368" y2="182.858" gradientUnits="userSpaceOnUse">
<stop stop-color="#0084C7"/>
<stop offset="1" stop-color="#69CAFD" stop-opacity="0"/>
</linearGradient>
<linearGradient id="paint21_linear_139_7404" x1="32.8738" y1="175.818" x2="32.8738" y2="182.858" gradientUnits="userSpaceOnUse">
<stop stop-color="#0084C7"/>
<stop offset="1" stop-color="#69CAFD" stop-opacity="0"/>
</linearGradient>
<linearGradient id="paint22_linear_139_7404" x1="8.63912" y1="175.818" x2="8.63912" y2="182.858" gradientUnits="userSpaceOnUse">
<stop stop-color="#0084C7"/>
<stop offset="1" stop-color="#69CAFD" stop-opacity="0"/>
</linearGradient>
<linearGradient id="paint23_linear_139_7404" x1="5.14834" y1="140.474" x2="5.14834" y2="178.38" gradientUnits="userSpaceOnUse">
<stop stop-color="#0084C7"/>
<stop offset="1" stop-color="#69CAFD" stop-opacity="0"/>
</linearGradient>
<clipPath id="clip0_139_7404">
<rect width="210" height="236" fill="white"/>
</clipPath>
</defs>
<g clip-path="url(#clip0_139_7404)">
<path d="M142.043 191.103H206.434L208.493 150.228H139.983L142.043 191.103Z" fill="url(#paint0_linear_139_7404)" fill-opacity="0.25"/>
<path d="M150.983 191.103L150.38 195.527L149.125 204.476H146.664V191.103H150.983Z" fill="url(#paint1_linear_139_7404)" fill-opacity="0.25"/>
<path d="M197.493 191.103L198.096 195.527L199.352 204.476H201.813V191.103H197.493Z" fill="url(#paint2_linear_139_7404)" fill-opacity="0.25"/>
<path d="M20.9949 164.456L14.4152 164.607L11.05 164.657C9.94495 164.657 8.78973 164.657 7.68473 164.707H7.48382V164.506L7.43359 158.875V158.624H7.68473L14.3147 158.674C16.5247 158.674 18.7347 158.724 20.9447 158.775H21.0954V158.925C21.0954 159.881 21.0452 160.836 21.0452 161.791L20.9949 164.456ZM20.9949 164.456L20.9447 161.59C20.9447 160.635 20.8945 159.73 20.8945 158.825L21.0452 158.976C18.8352 159.026 16.6252 159.076 14.4152 159.076L7.78518 159.127L8.03632 158.875L7.98609 164.506L7.78518 164.305C8.89018 164.305 9.99518 164.305 11.05 164.355L14.365 164.406L20.9949 164.456Z" fill="#EBEBEB"/>
<path d="M13.5613 171.545L6.98158 171.696L3.61636 171.746C2.51136 171.746 1.35613 171.746 0.251136 171.796H0.0502272V171.595L0 165.914V165.663H0.251136L6.88113 165.713C9.09113 165.713 11.3011 165.763 13.5111 165.813H13.6618V165.964C13.6618 166.92 13.6116 167.875 13.6116 168.83L13.5613 171.545ZM13.5613 171.545L13.5111 168.679C13.5111 167.724 13.4609 166.819 13.4609 165.914L13.6116 166.065C11.4016 166.115 9.19158 166.165 6.98158 166.165L0.351591 166.216L0.502272 165.914L0.452045 171.545L0.251136 171.344C1.35613 171.344 2.46113 171.344 3.51591 171.394L6.8309 171.444L13.5613 171.545Z" fill="#EBEBEB"/>
<path d="M183.681 101.811L177.101 101.962L173.736 102.012C172.631 102.012 171.476 102.012 170.371 102.062H170.17V101.861L170.12 96.2301V95.9788H170.371L177.001 96.029C179.211 96.029 181.421 96.0793 183.631 96.1296H183.781V96.2804C183.781 97.2357 183.731 98.1909 183.731 99.1462L183.681 101.811ZM183.681 101.811L183.631 98.9451C183.631 97.9898 183.58 97.0849 183.58 96.1799L183.731 96.3307C181.521 96.381 179.311 96.4313 177.101 96.4313L170.471 96.4815L170.722 96.2301L170.672 101.861L170.471 101.66C171.576 101.66 172.681 101.66 173.736 101.71L177.051 101.761L183.681 101.811Z" fill="#EBEBEB"/>
<path d="M176.247 108.9L169.668 109.051L166.302 109.101C165.197 109.101 164.042 109.101 162.937 109.151H162.736V108.95L162.686 103.319V103.068H162.937L169.567 103.118C171.777 103.118 173.987 103.168 176.197 103.219H176.348V103.369C176.348 104.325 176.298 105.28 176.298 106.235L176.247 108.9ZM176.247 108.9L176.197 106.034C176.197 105.079 176.147 104.174 176.147 103.269L176.298 103.42C174.088 103.47 171.878 103.52 169.668 103.52L163.038 103.571L163.289 103.319L163.238 108.95L163.038 108.749C164.143 108.749 165.248 108.749 166.302 108.799L169.617 108.85L176.247 108.9Z" fill="#EBEBEB"/>
<path d="M168.864 101.811L162.284 101.962L158.919 102.012C157.814 102.012 156.659 102.012 155.554 102.062H155.353V101.861L155.303 96.2301V95.9788H155.554L162.184 96.029C164.394 96.029 166.604 96.0793 168.814 96.1296H168.964V96.2804C168.964 97.2357 168.914 98.1909 168.914 99.1462L168.864 101.811ZM168.864 101.811L168.814 98.9451C168.814 97.9898 168.763 97.0849 168.763 96.1799L168.914 96.3307C166.704 96.381 164.494 96.4313 162.284 96.4313L155.654 96.4815L155.905 96.2301L155.855 101.861L155.654 101.66C156.759 101.66 157.864 101.66 158.919 101.71L162.234 101.761L168.864 101.811Z" fill="#EBEBEB"/>
<path d="M209.849 171.545L203.27 171.696L199.904 171.746C198.799 171.746 197.644 171.746 196.539 171.796H196.338V171.595L196.288 165.964V165.713H196.539L203.169 165.763C205.379 165.763 207.589 165.813 209.799 165.864H209.95V166.015C209.95 166.97 209.9 167.925 209.9 168.88L209.849 171.545ZM209.849 171.545L209.799 168.679C209.799 167.724 209.749 166.819 209.749 165.914L209.9 166.065C207.69 166.115 205.48 166.165 203.27 166.165L196.64 166.216L196.891 165.964L196.84 171.595L196.64 171.394C197.745 171.394 198.85 171.394 199.904 171.444L203.219 171.495L209.849 171.545Z" fill="#EBEBEB"/>
<path d="M202.416 33.937L195.836 34.0878L192.471 34.1381C191.366 34.1381 190.211 34.1381 189.106 34.1884H188.905V33.9873L188.854 28.3562V28.1049H189.106L195.735 28.1551C197.945 28.1551 200.155 28.2054 202.365 28.2557H202.516V28.4065C202.516 29.3618 202.466 30.317 202.466 31.2723L202.416 33.937ZM202.416 33.937L202.365 31.0712C202.365 30.1159 202.315 29.2109 202.315 28.306L202.466 28.4568C200.256 28.5071 198.046 28.5573 195.836 28.5573L189.206 28.6076L189.457 28.3562L189.357 33.937L189.156 33.7359C190.261 33.7359 191.366 33.7359 192.421 33.7861L195.735 33.8364L202.416 33.937Z" fill="#EBEBEB"/>
<path d="M209.849 41.026L203.27 41.1768L199.904 41.2271C198.799 41.2271 197.644 41.2271 196.539 41.2774H196.338V41.0763L196.288 35.4452V35.1938H196.539L203.169 35.2441C205.379 35.2441 207.589 35.2944 209.799 35.3447H209.95V35.4955C209.95 36.4508 209.9 37.406 209.9 38.3613L209.849 41.026ZM209.849 41.026L209.799 38.1602C209.799 37.2049 209.749 36.2999 209.749 35.395L209.9 35.5458C207.69 35.5961 205.48 35.6463 203.27 35.6463L196.64 35.6966L196.891 35.4452L196.84 41.0763L196.64 40.8751C197.745 40.8751 198.85 40.8751 199.904 40.9254L203.219 40.9757L209.849 41.026Z" fill="#EBEBEB"/>
<path d="M20.9949 33.937L14.4152 34.0878L11.05 34.1381C9.94495 34.1381 8.78973 34.1381 7.68473 34.1884H7.48382V33.9873L7.43359 28.3562V28.1049H7.68473L14.3147 28.1551C16.5247 28.1551 18.7347 28.2054 20.9447 28.2557H21.0954V28.4065C21.0954 29.3618 21.0452 30.317 21.0452 31.2723L20.9949 33.937ZM20.9949 33.937L20.9447 31.0712C20.9447 30.1159 20.8945 29.2109 20.8945 28.306L21.0452 28.4568C18.8352 28.5071 16.6252 28.5573 14.4152 28.5573L7.78518 28.6076L8.03632 28.3562L7.98609 33.9873L7.68473 33.6856C8.78973 33.6856 9.89473 33.6856 10.9495 33.7359L14.2645 33.7861L20.9949 33.937Z" fill="#EBEBEB"/>
<path d="M13.7126 0H13.1093V57.4163H13.7126V0Z" fill="#90D2F5"/>
<path d="M15.1184 54.7516H11.7532V57.014H15.1184V54.7516Z" fill="url(#paint3_linear_139_7404)"/>
<path d="M15.1184 55.5057H11.7532V57.014H15.1184V55.5057Z" fill="url(#paint4_linear_139_7404)"/>
<path d="M10.8491 72.0469C10.8491 73.4547 12.0043 74.611 13.4107 74.611C14.8171 74.611 15.9723 73.4547 15.9723 72.0469C15.9723 70.6392 14.8171 69.4828 13.4107 69.4828C12.0043 69.4828 10.8491 70.6392 10.8491 72.0469Z" fill="#90D2F5"/>
<path d="M5.02271 72.0468H21.8488L18.785 66.6169L16.2736 56.6118H10.5477L8.03634 66.6169L5.02271 72.0468Z" fill="url(#paint5_linear_139_7404)"/>
<path d="M33.5021 0H32.8988V47.1095H33.5021V0Z" fill="#90D2F5"/>
<path d="M34.8577 44.3945H31.4925V46.657H34.8577V44.3945Z" fill="url(#paint6_linear_139_7404)"/>
<path d="M34.8577 45.1487H31.4925V46.657H34.8577V45.1487Z" fill="url(#paint7_linear_139_7404)"/>
<path d="M30.5884 61.6899C30.5884 63.0976 31.7436 64.254 33.15 64.254C34.5563 64.254 35.7116 63.0976 35.7116 61.6899C35.7116 60.2821 34.5563 59.1257 33.15 59.1257C31.7436 59.1257 30.5884 60.2821 30.5884 61.6899Z" fill="#90D2F5"/>
<path d="M24.762 61.6898H41.5881L38.5243 56.3102L36.0632 46.2548H30.287L27.8259 56.3102L24.762 61.6898Z" fill="url(#paint8_linear_139_7404)"/>
<path d="M51.9857 0H51.3824V36.5011H51.9857V0Z" fill="#90D2F5"/>
<path d="M53.3413 33.8364H49.9761V36.0989H53.3413V33.8364Z" fill="url(#paint9_linear_139_7404)"/>
<path d="M53.3413 34.5906H49.9761V36.0989H53.3413V34.5906Z" fill="url(#paint10_linear_139_7404)"/>
<path d="M49.072 51.1316C49.072 52.5394 50.2272 53.6957 51.6336 53.6957C53.0399 53.6957 54.1951 52.5394 54.1951 51.1316C54.1951 49.7239 53.0399 48.5675 51.6336 48.5675C50.2272 48.5172 49.072 49.6736 49.072 51.1316Z" fill="#90D2F5"/>
<path d="M43.2456 51.1317H60.0717L57.0581 45.7018L54.5467 35.6967H48.7706L46.3095 45.7018L43.2456 51.1317Z" fill="url(#paint11_linear_139_7404)"/>
<path d="M196.991 32.9314H173.133V61.9412H196.991V32.9314Z" fill="url(#paint12_linear_139_7404)" fill-opacity="0.25"/>
<path d="M194.329 35.5961H175.896V59.2765H194.329V35.5961Z" fill="white"/>
<path d="M176.6 35.5961H175.896V59.2765H176.6V35.5961Z" fill="#90D2F5" fill-opacity="0.14"/>
<path d="M197.745 32.9314H197.041V61.9412H197.745V32.9314Z" fill="#90D2F5" fill-opacity="0.14"/>
<path d="M185.535 53.9868H189.854V41.0154H185.535V53.9868Z" fill="url(#paint13_linear_139_7404)" fill-opacity="0.25"/>
<path d="M180.128 45.1656H191.73V38.8308H180.128V45.1656Z" stroke="url(#paint14_linear_139_7404)" stroke-opacity="0.25" stroke-miterlimit="10"/>
<path d="M196.991 104.375H173.133V133.385H196.991V104.375Z" fill="url(#paint15_linear_139_7404)" fill-opacity="0.25"/>
<path d="M194.329 107.04H175.896V130.72H194.329V107.04Z" fill="white"/>
<path d="M176.6 107.04H175.896V130.72H176.6V107.04Z" fill="#90D2F5" fill-opacity="0.14"/>
<path d="M197.745 104.375H197.041V133.385H197.745V104.375Z" fill="#90D2F5" fill-opacity="0.14"/>
<path d="M186.393 112.52H182.074V125.491H186.393V112.52Z" fill="url(#paint16_linear_139_7404)" fill-opacity="0.25"/>
<path d="M191.767 110.308H180.165V116.643H191.767V110.308Z" stroke="url(#paint17_linear_139_7404)" stroke-opacity="0.25" stroke-miterlimit="10"/>
<path d="M196.991 68.7788H173.133V97.7886H196.991V68.7788Z" fill="url(#paint18_linear_139_7404)" fill-opacity="0.25"/>
<path d="M194.329 71.4435H175.896V95.1239H194.329V71.4435Z" fill="white"/>
<path d="M176.6 71.4435H175.896V95.1239H176.6V71.4435Z" fill="#90D2F5" fill-opacity="0.14"/>
<path d="M197.745 68.7788H197.041V97.7886H197.745V68.7788Z" fill="#90D2F5" fill-opacity="0.14"/>
<path d="M187.046 77.5773H183.329V86.9791H187.046V77.5773Z" fill="url(#paint19_linear_139_7404)" fill-opacity="0.25"/>
<path d="M204.676 225.744C204.676 231.425 160.074 236 105.075 236C50.0766 236 5.42456 231.425 5.42456 225.744C5.42456 220.062 50.0263 215.487 105.025 215.487C160.024 215.487 204.676 220.113 204.676 225.744Z" fill="#90D2F5" fill-opacity="0.24"/>
<path d="M0.351562 204.325L26.5199 204.225L52.6883 204.175L105.075 204.074L157.412 204.175L183.58 204.225L209.799 204.325L183.58 204.476L157.412 204.527L105.075 204.577L52.6883 204.527L26.5199 204.476L0.351562 204.325Z" fill="#263238"/>
<path d="M147.517 26.496H62.583C57.8616 26.496 53.9941 30.4176 53.9941 35.2442V210.208C53.9941 215.035 57.8616 218.956 62.583 218.956H147.517C152.239 218.956 156.106 215.035 156.106 210.208V35.2442C156.106 30.4176 152.239 26.496 147.517 26.496ZM150.732 204.828C150.732 209.454 147.266 213.174 143.047 213.174H67.0532C62.7839 213.174 59.3685 209.454 59.3685 204.828V41.8807C59.3685 32.4789 62.8341 32.0264 67.0532 32.0264H82.2721C83.1762 32.0264 83.8793 33.032 83.8793 34.2889V34.8419C83.8793 37.758 85.4866 37.758 87.4455 37.758H122.655C124.614 37.758 126.221 37.758 126.221 34.8419V34.2889C126.221 33.032 126.924 32.0264 127.828 32.0264H143.047C147.316 32.0264 150.732 33.2834 150.732 41.8807V204.828Z" fill="#455A64"/>
<path d="M150.732 41.8808V204.828C150.732 209.454 147.266 213.174 143.047 213.174H67.0532C62.7839 213.174 59.3685 209.454 59.3685 204.828V41.8808C59.3685 32.479 62.8341 32.0265 67.0532 32.0265H82.2721C83.1762 32.0265 83.8794 33.032 83.8794 34.289V34.842C83.8794 37.7581 85.4866 37.7581 87.4455 37.7581H122.655C124.614 37.7581 126.221 37.7581 126.221 34.842V34.289C126.221 33.032 126.924 32.0265 127.828 32.0265H143.047C147.266 32.0265 150.732 33.2834 150.732 41.8808Z" fill="white"/>
<path d="M150.732 41.8808V60.2319H59.3685V41.8808C59.3685 32.479 62.8341 32.0265 67.0532 32.0265H82.2721C83.1762 32.0265 83.8794 33.032 83.8794 34.289V34.842C83.8794 37.7581 85.4866 37.7581 87.4455 37.7581H122.655C124.614 37.7581 126.221 37.7581 126.221 34.842V34.289C126.221 33.032 126.924 32.0265 127.828 32.0265H143.047C147.266 32.0265 150.732 33.2834 150.732 41.8808Z" fill="#FFC727"/>
<path d="M79.6603 35.6967C79.6101 35.747 79.5598 35.7972 79.5096 35.8475C79.4594 35.8978 79.4594 35.8978 79.4092 35.9481C79.0073 35.5459 78.5553 35.3448 78.0028 35.3448C77.4503 35.3448 76.9982 35.5459 76.5964 35.9481C76.5462 35.8978 76.5462 35.8978 76.496 35.8475C76.4457 35.7972 76.3955 35.747 76.3453 35.6967C76.3955 35.6464 76.4457 35.5961 76.5462 35.5459C76.6969 35.4453 76.8476 35.3448 76.9982 35.2945C77.1991 35.1939 77.3498 35.1436 77.5507 35.0934C77.6512 35.0934 77.7516 35.0431 77.8521 35.0431C77.9023 35.0431 78.1032 35.0431 78.1032 35.0431C78.1535 35.0431 78.2539 35.0431 78.3041 35.0431C78.5051 35.0431 78.6557 35.0934 78.8064 35.1436C78.9069 35.1939 79.0576 35.2442 79.158 35.2945C79.2585 35.3448 79.4092 35.4453 79.5096 35.5459C79.5598 35.5961 79.6101 35.6464 79.6603 35.6967Z" fill="white"/>
<path d="M77.0485 36.4006C76.948 36.3 76.8978 36.2497 76.7974 36.1492C77.0485 35.8978 77.3499 35.747 77.7517 35.6967C78.3042 35.6464 78.7562 35.7972 79.158 36.1492C79.0576 36.2497 79.0074 36.3 78.9069 36.4006C78.6558 36.1492 78.3042 35.9983 77.9526 35.9983C77.6512 35.9983 77.3499 36.1492 77.0485 36.4006Z" fill="white"/>
<path d="M78.7562 36.6017C78.6557 36.7023 78.6055 36.7526 78.5051 36.8531C78.3544 36.7023 78.2037 36.652 78.0028 36.652C77.8019 36.652 77.6512 36.7023 77.5005 36.8531C77.4001 36.7526 77.3498 36.7023 77.2494 36.6017C77.6512 36.2498 78.3041 36.1995 78.7562 36.6017Z" fill="white"/>
<path d="M78.2045 37.0543C78.2045 37.155 78.1038 37.2556 78.0032 37.2556C77.9025 37.2556 77.8019 37.155 77.8019 37.0543C77.8019 36.9537 77.9025 36.853 78.0032 36.853C78.1542 36.853 78.2045 36.9537 78.2045 37.0543Z" fill="white"/>
<path d="M65.3455 36.1492C65.3455 35.7973 65.5967 35.5459 65.9482 35.5459C66.2998 35.5459 66.551 35.7973 66.551 36.1492C66.551 36.5012 66.2998 36.7525 65.9482 36.7525C65.5967 36.7525 65.3455 36.5012 65.3455 36.1492Z" fill="white"/>
<path d="M67.2542 36.1492C67.2542 35.7973 67.5053 35.5459 67.8569 35.5459C68.2085 35.5459 68.4596 35.7973 68.4596 36.1492C68.4596 36.5012 68.2085 36.7525 67.8569 36.7525C67.5053 36.7525 67.2542 36.5012 67.2542 36.1492Z" fill="white"/>
<path d="M69.1628 36.1492C69.1628 35.7973 69.4139 35.5459 69.7655 35.5459C70.1171 35.5459 70.3682 35.7973 70.3682 36.1492C70.3682 36.5012 70.1171 36.7525 69.7655 36.7525C69.4139 36.7525 69.1628 36.5012 69.1628 36.1492Z" fill="white"/>
<path d="M71.0714 36.1492C71.0714 35.7973 71.3226 35.5459 71.6741 35.5459C72.0257 35.5459 72.2769 35.7973 72.2769 36.1492C72.2769 36.5012 72.0257 36.7525 71.6741 36.7525C71.3226 36.7525 71.0714 36.5012 71.0714 36.1492Z" fill="white"/>
<path d="M72.98 36.1492C72.98 35.7973 73.2312 35.5459 73.5828 35.5459C73.9344 35.5459 74.1855 35.7973 74.1855 36.1492C74.1855 36.5012 73.9344 36.7525 73.5828 36.7525C73.2312 36.7525 72.98 36.5012 72.98 36.1492Z" fill="white"/>
<path d="M143.901 37.4564H138.979V35.194H143.901V37.4564ZM139.18 37.205H143.6V35.4454H139.18V37.205Z" fill="white"/>
<path d="M142.545 35.5962H139.38V37.1045H142.545V35.5962Z" fill="white"/>
<path d="M144.353 35.6968H143.901V36.9034H144.353V35.6968Z" fill="white"/>
<path d="M67.7062 55.0533L64.9939 52.5395L67.7062 50.0256L68.108 50.4781L65.898 52.5395L68.108 54.6511L67.7062 55.0533Z" fill="white"/>
<path d="M142.394 50.0256L145.106 52.5395L142.394 55.0533L141.992 54.6511L144.202 52.5395L141.992 50.4781L142.394 50.0256Z" fill="white"/>
<path d="M109.847 34.138H100.253C99.9018 34.138 99.6507 33.8867 99.6507 33.5347C99.6507 33.1828 99.9018 32.9314 100.253 32.9314H109.847C110.198 32.9314 110.45 33.1828 110.45 33.5347C110.45 33.8364 110.198 34.138 109.847 34.138Z" fill="#263238"/>
<path d="M153.106 30.5499C153.091 30.4889 153.104 30.4343 153.089 30.3733C152.977 28.3892 151.422 26.7853 149.434 26.663C149.379 26.6502 149.318 26.6646 149.264 26.6518C149.237 26.6453 149.237 26.6453 149.209 26.6389L61.5006 25.8036C61.4733 25.7972 61.4733 25.7972 61.4396 25.8181C61.3786 25.8325 61.324 25.8196 61.263 25.8341C59.2791 25.9429 57.6781 27.495 57.5595 29.4822C57.5467 29.5368 57.5613 29.5978 57.5485 29.6524C57.5422 29.6797 57.5422 29.6797 57.5358 29.707L56.1608 212.044C56.1496 213.942 57.6629 215.478 59.5604 215.493L148.276 216.335C150.173 216.349 151.707 214.839 151.718 212.942L153.12 30.6109C153.127 30.5836 153.106 30.5499 153.106 30.5499Z" fill="white"/>
<path opacity="0.8" d="M153.91 36.5784L56.6848 35.7726L56.4777 65.2069L153.703 66.0127L153.91 36.5784Z" fill="#90D2F5"/>
<path opacity="0.3" d="M155.294 66.0553L56.4263 65.2355L55.3645 216.193L154.232 217.013L155.294 66.0553Z" fill="#90D2F5"/>
<path d="M56.1339 28.5646L63.3377 23.7279L148.734 24.7383L156.184 31.4105C156.184 31.4105 155.411 39.0258 154.924 39.1413C154.463 39.2632 55.3042 39.5039 55.3483 37.9607C55.3924 36.4174 56.1339 28.5646 56.1339 28.5646Z" fill="#075681"/>
<g opacity="0.5">
<g opacity="0.5">
<g opacity="0.5">
<g opacity="0.5">
<g opacity="0.5">
<path opacity="0.5" d="M65.2463 32.7139C65.2344 33.2579 64.9286 33.704 64.449 33.9077C64.287 33.9847 64.1041 34.028 63.9066 34.0103C63.7027 34.0199 63.5453 33.9541 63.3606 33.8819C62.8883 33.6844 62.5954 33.2126 62.58 32.6622C62.5756 31.9416 63.1781 31.3351 63.9197 31.3657C64.695 31.3754 65.2755 31.9725 65.2463 32.7139Z" fill="white"/>
</g>
</g>
</g>
</g>
<g opacity="0.5">
<g opacity="0.5">
<g opacity="0.5">
<g opacity="0.5">
<path opacity="0.5" d="M69.3237 32.7528C69.3118 33.2968 69.006 33.7429 68.5264 33.9466C68.3644 34.0237 68.1815 34.0669 67.984 34.0493C67.7802 34.0589 67.6164 34.0203 67.4381 33.9208C66.9722 33.696 66.6729 33.2515 66.6574 32.701C66.653 31.9805 67.2555 31.374 67.9971 31.4046C68.7724 31.4143 69.3529 32.0114 69.3237 32.7528Z" fill="white"/>
</g>
</g>
</g>
</g>
<g opacity="0.5">
<g opacity="0.5">
<g opacity="0.5">
<g opacity="0.5">
<path opacity="0.5" d="M73.4045 32.7888C73.3926 33.3328 73.0868 33.7789 72.6072 33.9827C72.4452 34.0597 72.2623 34.103 72.0649 34.0853C71.861 34.0949 71.6972 34.0563 71.5189 33.9568C71.053 33.732 70.7537 33.2875 70.7383 32.737C70.7338 32.0165 71.3363 31.41 72.0779 31.4406C72.8532 31.4503 73.4337 32.0474 73.4045 32.7888Z" fill="white"/>
</g>
</g>
</g>
</g>
</g>
<path d="M151.771 211.051C151.749 213.982 149.352 216.353 146.42 216.325L61.4852 215.531C58.5536 215.503 56.1763 213.101 56.1982 210.17L57.5119 31.7175C57.5283 28.4398 60.2142 25.8192 63.4926 25.8426L147.19 26.6337C150.468 26.657 153.095 29.348 153.078 32.6257L151.771 211.051ZM147.399 22.6529L63.3279 21.8601C57.9271 21.7977 53.5136 26.1417 53.4562 31.5687L52.1507 211.836C52.0997 217.236 56.4538 221.658 61.882 221.727L145.953 222.52C151.354 222.582 155.768 218.238 155.825 212.811L157.131 32.5433C157.182 27.1436 152.827 22.7218 147.399 22.6529Z" fill="#053753"/>
<path d="M104.523 113.274L100.304 108.95L101.71 107.543L104.171 110.056L109.345 102.012L111.052 103.068L104.523 113.274Z" fill="#075681"/>
<path d="M105.678 118.754C99.5503 118.754 94.5778 113.777 94.5778 107.643C94.5778 101.509 99.5503 96.5319 105.678 96.5319C111.806 96.5319 116.778 101.509 116.778 107.643C116.728 113.777 111.756 118.754 105.678 118.754ZM105.678 98.0402C100.404 98.0402 96.0846 102.364 96.0846 107.643C96.0846 112.922 100.404 117.246 105.678 117.246C110.952 117.246 115.271 112.922 115.271 107.643C115.221 102.314 110.952 98.0402 105.678 98.0402Z" fill="#075681"/>
<path d="M91.7148 107.392H88.3998V107.895H91.7148V107.392Z" fill="#075681"/>
<path d="M90.5879 100.387L90.2327 100.742L92.5768 103.089L92.9319 102.733L90.5879 100.387Z" fill="#075681"/>
<path d="M92.5566 112.066L90.2126 114.413L90.5677 114.768L92.9118 112.422L92.5566 112.066Z" fill="#075681"/>
<path d="M122.906 107.392H119.591V107.894H122.906V107.392Z" fill="#075681"/>
<path d="M120.725 100.374L118.381 102.72L118.736 103.076L121.08 100.73L120.725 100.374Z" fill="#075681"/>
<path d="M118.751 112.074L118.396 112.429L120.74 114.775L121.095 114.42L118.751 112.074Z" fill="#075681"/>
<path d="M120.646 133.435H90.6601V143.491H120.646V133.435Z" fill="#075681"/>
<path d="M97.7924 140.273V136.804C97.7924 136.603 97.943 136.502 98.0937 136.502H98.7969C99.9521 136.502 100.856 137.407 100.856 138.564C100.856 139.72 99.9521 140.625 98.7969 140.625H98.0937C97.943 140.625 97.7924 140.474 97.7924 140.273ZM98.4453 139.971H98.7969C99.5503 139.971 100.203 139.318 100.203 138.564C100.203 137.809 99.6005 137.156 98.7969 137.156H98.4453V139.971Z" fill="white"/>
<path d="M105.176 137.005C105.527 137.407 105.778 137.91 105.778 138.513C105.778 139.117 105.527 139.619 105.176 140.022C104.824 140.424 104.322 140.675 103.769 140.675C103.217 140.675 102.664 140.424 102.313 140.022C101.961 139.619 101.71 139.117 101.71 138.513C101.71 137.91 101.911 137.407 102.313 137.005C102.664 136.603 103.167 136.351 103.769 136.351C104.322 136.351 104.824 136.603 105.176 137.005ZM105.126 138.463C105.126 138.061 104.975 137.709 104.724 137.458C104.473 137.206 104.171 137.055 103.769 137.055C103.418 137.055 103.066 137.206 102.815 137.458C102.564 137.709 102.413 138.111 102.413 138.463C102.413 138.865 102.564 139.217 102.815 139.469C103.066 139.72 103.368 139.871 103.769 139.871C104.121 139.871 104.473 139.72 104.724 139.469C104.975 139.267 105.126 138.865 105.126 138.463Z" fill="white"/>
<path d="M107.436 140.273C107.436 140.474 107.285 140.575 107.135 140.575C106.934 140.575 106.833 140.424 106.833 140.273V136.854C106.833 136.754 106.883 136.653 106.984 136.603C107.135 136.502 107.336 136.553 107.436 136.653L109.345 139.268V136.854C109.345 136.703 109.495 136.553 109.646 136.553C109.847 136.553 109.947 136.703 109.947 136.854V140.273C109.947 140.474 109.797 140.575 109.646 140.575C109.546 140.575 109.445 140.524 109.395 140.474C109.395 140.474 109.395 140.474 109.345 140.424L107.486 137.81V140.273H107.436Z" fill="white"/>
<path d="M110.952 140.273V136.804C110.952 136.603 111.103 136.502 111.253 136.502H113.162C113.313 136.502 113.463 136.653 113.463 136.804C113.463 137.005 113.313 137.156 113.162 137.156H111.605V138.212H112.961C113.162 138.212 113.262 138.363 113.262 138.513C113.262 138.715 113.112 138.865 112.961 138.865H111.605V139.971H113.212C113.363 139.971 113.513 140.122 113.513 140.323C113.513 140.524 113.363 140.625 113.212 140.625H111.303C111.103 140.625 110.952 140.474 110.952 140.273Z" fill="white"/>
<path d="M49.9761 175.818L51.1816 183.008L59.2682 226.648H60.5741L54.6975 183.008L53.8436 175.818H49.9761Z" fill="#90D2F5"/>
<path d="M53.8436 175.818H49.9761L51.1816 183.008H54.6975L53.8436 175.818Z" fill="url(#paint20_linear_139_7404)"/>
<path d="M24.6616 226.648H25.9675L34.0039 183.008L35.2093 175.818H31.3921L30.5382 183.008L24.6616 226.648Z" fill="#90D2F5"/>
<path d="M31.3921 175.818L30.5382 183.008H34.0039L35.2093 175.818H31.3921Z" fill="url(#paint21_linear_139_7404)"/>
<path d="M0.401855 226.648H1.70776L9.79435 183.008L10.9998 175.818H7.18253L6.27844 183.008L0.401855 226.648Z" fill="#90D2F5"/>
<path d="M6.27844 183.008H9.79435L10.9998 175.818H7.18253L6.27844 183.008Z" fill="url(#paint22_linear_139_7404)"/>
<path d="M2.46118 179.187H61.6791V172.953H39.5289L32.045 140.474H4.72141L2.46118 179.187Z" fill="#90D2F5"/>
<path d="M2.46118 179.187H5.72595L7.83549 140.474H4.72141L2.46118 179.187Z" fill="url(#paint23_linear_139_7404)"/>
<path d="M67.4552 231.224C66.3502 231.626 33.5518 231.626 32.2961 230.822C32.1454 230.721 32.1454 226.749 32.045 223.682C31.8943 219.057 38.1225 198.343 38.1225 198.343L58.4645 199.348L52.8391 220.213C52.8391 220.213 57.5102 222.274 61.3777 224.135C63.7384 225.241 65.8479 226.297 66.2999 226.649C67.6059 227.604 68.6104 230.822 67.4552 231.224Z" fill="#D3766A"/>
<path d="M67.4552 231.224C66.3502 231.626 33.5518 231.626 32.2961 230.822C32.1454 230.721 32.0952 227.755 32.045 223.682C40.1818 225.341 61.8297 227.956 62.4324 226.246C62.6836 225.543 62.1311 224.788 61.3777 224.084C63.7383 225.191 65.8479 226.246 66.2999 226.598C67.6058 227.604 68.6104 230.822 67.4552 231.224Z" fill="#263238"/>
<path d="M18.8855 166.015C22.9037 170.037 40.1317 178.282 41.4376 181.148C42.5928 183.712 34.6067 211.163 34.6067 211.163L54.2957 214.934C54.2957 214.934 66.0991 182.807 63.1357 172.902C60.323 163.702 28.8808 145.703 28.8808 145.703H16.2235C16.2235 145.703 10.9496 158.121 18.8855 166.015Z" fill="#D3766A"/>
<path opacity="0.1" d="M58.8663 166.92C51.6336 169.534 41.6886 173.757 34.5564 176.02C28.8807 172.551 21.3466 168.478 18.8353 166.015C10.8994 158.121 16.1732 145.703 16.1732 145.703H28.8305C28.8305 145.703 49.5743 157.518 58.8663 166.92Z" fill="black"/>
<path d="M106.934 225.492C105.779 225.743 73.2815 221.319 72.1765 220.414C72.0258 220.314 72.3774 217.347 72.8797 213.325L67.1036 188.74L88.5004 191.354L95.2308 212.47C95.2308 212.47 98.2444 215.336 101.811 217.649C104.021 219.057 105.929 220.364 106.381 220.816C107.536 221.922 108.089 225.241 106.934 225.492Z" fill="#D3766A"/>
<path d="M106.934 225.492C105.779 225.743 73.2815 221.319 72.1766 220.414C72.0259 220.314 72.3775 217.347 72.8797 213.325C80.7152 216.09 101.811 221.571 102.664 219.962C103.016 219.308 102.564 218.504 101.911 217.699C104.121 219.107 106.03 220.414 106.482 220.867C107.536 221.922 108.089 225.241 106.934 225.492Z" fill="#263238"/>
<path d="M93.0208 205.381L71.8752 209.102L63.1356 182.355C63.3868 173.254 62.0809 169.936 56.9074 168.327C48.1679 165.612 26.8716 175.617 17.1777 168.931C9.34227 163.501 15.5704 145.703 15.5704 145.703H38.2229C38.2229 145.703 40.9352 149.021 41.4877 150.982C41.4877 150.982 69.5647 148.82 75.8431 156.814C84.3817 167.473 93.0208 205.381 93.0208 205.381Z" fill="#D3766A"/>
<path d="M46.7615 168.478C48.9715 168.026 51.2318 167.774 53.5422 167.774C54.6974 167.774 55.8527 167.875 56.9577 168.126C57.5102 168.227 58.0627 168.428 58.6152 168.679C59.1677 168.931 59.6699 169.182 60.122 169.534C60.6242 169.886 61.0261 170.288 61.4279 170.741C61.7795 171.193 62.0808 171.696 62.332 172.249C62.784 173.305 63.0351 174.461 63.1858 175.617C63.437 177.88 63.3867 180.193 63.2361 182.455C63.2361 181.299 63.1858 180.193 63.1356 179.036C63.0854 177.93 62.9849 176.774 62.8342 175.668C62.6333 174.562 62.4324 173.455 61.9804 172.45C61.5283 171.444 60.8252 170.59 59.9211 169.986C59.469 169.685 58.9667 169.383 58.4645 169.182C57.9622 168.931 57.4599 168.78 56.9074 168.679C55.8024 168.428 54.6974 168.327 53.5924 168.277C52.4874 168.227 51.3322 168.227 50.2272 168.327C48.9715 168.227 47.8665 168.377 46.7615 168.478Z" fill="#263238"/>
<path d="M15.6709 145.652C15.6709 145.652 9.49298 161.791 15.6709 167.724C21.8489 173.657 29.0816 172.651 46.3597 168.931C46.3597 168.931 55.1997 157.719 60.4234 155.456C65.647 153.194 70.4688 152.993 70.4688 152.993C70.4688 152.993 60.4234 149.725 41.6886 150.429C41.6886 150.429 40.2823 147.462 38.3234 145.652H15.6709Z" fill="#263238"/>
<path d="M37.57 133.787C36.2641 134.792 35.0084 135.547 33.803 136.15C35.8623 132.681 35.5609 124.888 35.3098 125.994C34.1043 131.323 30.7893 137.155 29.4834 137.457C26.068 137.91 22.9539 136.954 20.3421 135.547C23.0041 131.625 22.8534 123.681 22.7028 124.184C20.7439 129.363 16.7759 132.379 16.0728 132.379C13.5112 129.916 12.155 127.452 12.5066 127.201C15.1687 125.391 17.4289 120.715 19.4882 115.788C21.4973 110.911 22.5521 106.285 25.3648 101.911C27.9766 97.9394 33.15 97.1853 36.1134 99.1964C43.8484 104.526 39.2275 132.48 37.57 133.787Z" fill="#263238"/>
<path d="M29.5336 99.3975C27.3739 99.9002 25.6159 101.861 24.5109 103.671C23.0041 106.084 22.0498 108.799 20.7941 111.363C18.3832 116.391 15.3193 121.067 11.4518 125.089C11.3514 125.19 11.5021 125.29 11.6025 125.24C15.7714 122.123 18.6343 117.598 20.9448 112.972C22.1502 110.609 23.0543 108.146 24.2095 105.732C24.8123 104.425 25.5657 103.168 26.4698 102.062C27.3739 101.006 28.4286 100.353 29.6843 99.7494C29.835 99.6488 29.7345 99.3472 29.5336 99.3975Z" fill="#263238"/>
<path d="M58.4143 107.794L52.9395 121.218C52.7386 121.62 52.8893 121.972 53.2911 122.022L60.4736 123.028C60.8754 123.078 61.3777 122.827 61.5786 122.424L67.0533 109C67.2542 108.598 67.1036 108.246 66.7017 108.196L59.5193 107.19C59.1174 107.14 58.6152 107.392 58.4143 107.794Z" fill="#37474F"/>
<path d="M59.2682 107.894L53.7934 121.318C53.5925 121.721 53.7432 122.072 54.145 122.123L61.3275 123.128C61.7293 123.179 62.2316 122.927 62.4325 122.525L67.9072 109.101C68.1082 108.699 67.9575 108.347 67.5557 108.297L60.3731 107.291C59.9713 107.241 59.4691 107.492 59.2682 107.894Z" fill="#455A64"/>
<path d="M61.1265 108.799C61.0763 109.151 60.775 109.352 60.4234 109.302C60.0718 109.252 59.8709 108.95 59.9211 108.598C59.9713 108.246 60.2727 108.045 60.6243 108.095C60.9759 108.146 61.1768 108.498 61.1265 108.799Z" fill="#263238"/>
<path d="M32.3463 125.592C35.1088 134.843 42.5424 147.412 46.3095 148.015C48.1177 148.317 51.2318 149.222 53.8938 147.513C59.6699 143.792 65.2452 135.848 66.8524 131.022C67.4049 129.312 59.469 124.234 58.0124 125.491C54.597 128.407 50.177 134.441 49.6747 134.29C47.7661 133.837 41.1863 126.447 36.5654 121.218C30.9902 114.983 31.2413 121.922 32.3463 125.592Z" fill="#D3766A"/>
<path d="M68.4095 122.022C68.0579 118.352 67.3547 117.447 68.7108 114.179C69.5647 112.017 68.6104 110.559 66.752 112.118C63.7384 114.682 63.1859 119.508 63.4872 121.268L68.4095 122.022Z" fill="#D3766A"/>
<path d="M66.1995 132.53C66.1995 132.53 68.5099 127.804 68.5099 123.832C68.5099 121.067 67.857 115.134 60.775 110.961C59.1175 109.956 56.0034 109.755 58.1632 112.369C59.67 114.229 61.227 114.933 61.9302 116.19C61.9302 116.19 57.9622 116.391 57.0581 118.101C56.6563 118.855 55.5513 120.966 54.9486 122.776C54.9486 122.776 55.3002 123.028 55.8025 123.229C55.8025 123.229 54.9988 124.888 55.9029 127.502L66.1995 132.53Z" fill="#D3766A"/>
<path d="M68.1081 121.218C67.1538 120.112 65.0945 117.899 62.784 116.592C60.2224 115.185 54.8983 113.173 53.8436 115.084C53.0902 116.492 55.049 117.447 55.049 117.447C55.049 117.447 52.6884 117.095 52.2865 118.503C51.9349 119.81 53.492 120.413 53.492 120.413C53.492 120.413 51.9852 120.413 51.8847 121.771C51.734 123.329 54.8983 123.028 56.1038 124.737C56.4554 125.089 68.1081 121.218 68.1081 121.218Z" fill="#D3766A"/>
<path d="M61.7795 119.559C60.7247 118.704 57.8115 117.346 55.1495 117.397C55.0992 117.397 55.049 117.447 55.0992 117.447C58.0626 118 60.6745 119.056 61.7795 119.559C61.7795 119.609 61.7795 119.559 61.7795 119.559Z" fill="#263238"/>
<path d="M60.2727 122.123C59.2681 121.469 56.2043 120.212 53.5422 120.363C53.492 120.363 53.4418 120.413 53.492 120.413C56.6061 120.866 59.1174 121.721 60.2727 122.123C60.2727 122.173 60.2727 122.123 60.2727 122.123Z" fill="#263238"/>
<path d="M66.4005 134.692C66.4005 134.692 57.3596 147.412 53.0903 148.418C48.8209 149.423 46.41 148.669 44.9534 148.217C44.5014 148.066 43.9991 147.714 43.4969 147.211C39.8303 143.692 34.1044 132.279 31.9948 125.994C30.4378 121.318 31.2414 117.397 34.456 119.157C35.2596 119.609 36.1637 120.413 37.2687 121.62C42.6932 127.754 49.1725 133.787 49.5241 133.687C49.8757 133.586 54.2957 128.458 54.2957 128.458L66.4005 134.692Z" fill="#075681"/>
<path d="M64.2908 136.904C63.889 136.602 59.7704 134.239 58.8663 133.737C57.9622 133.234 54.2956 131.173 53.2911 130.77C53.2408 130.77 53.1906 130.821 53.2408 130.821C54.0947 131.424 57.8115 133.485 58.7156 134.038C59.6197 134.541 63.7383 136.804 64.2406 137.005C64.2908 137.005 64.2908 136.954 64.2908 136.904Z" fill="#263238"/>
<path opacity="0.1" d="M56.1038 146.557C54.9486 147.513 53.944 148.166 53.0399 148.367C48.7706 149.373 46.3597 148.619 44.9031 148.166C44.4511 148.015 43.9488 147.663 43.4465 147.161C39.7799 143.641 34.054 132.228 31.9445 125.944C30.5381 121.67 31.0906 118.101 33.5518 118.754C39.2274 125.743 50.0263 139.066 56.1038 146.557Z" fill="black"/>
<path d="M40.0814 139.066L41.0357 148.518L12.808 149.071C12.808 149.071 19.3375 125.24 24.4607 119.961C27.9264 116.391 31.8441 116.793 34.3052 119.408C34.908 120.061 41.3873 127.955 42.0904 131.826C42.6429 135.245 40.0814 139.066 40.0814 139.066Z" fill="#075681"/>
<path d="M36.7664 137.96C35.5107 138.061 34.255 138.161 33.0495 138.463C32.4468 138.614 31.8441 138.764 31.2414 138.915C30.94 139.016 30.6386 139.066 30.3373 139.167C30.0359 139.267 29.6843 139.317 29.3829 139.317C29.3327 139.317 29.3327 139.368 29.3829 139.368C29.6843 139.368 29.9857 139.418 30.287 139.368C30.5884 139.368 30.8898 139.267 31.1409 139.217C31.7436 139.066 32.3464 138.915 32.9993 138.764C34.255 138.463 35.4604 138.211 36.7161 138.01C36.8166 138.061 36.8166 137.96 36.7664 137.96Z" fill="#263238"/>
<path d="M38.9261 139.016C38.1225 138.865 37.3188 138.815 36.465 138.815C36.0632 138.815 35.6613 138.815 35.2595 138.865C35.0586 138.865 34.8577 138.915 34.6568 138.915C34.4559 138.966 34.255 139.016 34.0038 139.016V139.066C34.2048 139.066 34.4057 139.066 34.6066 139.066C34.8075 139.066 35.0084 139.066 35.2093 139.066C35.6111 139.066 36.0129 139.066 36.4147 139.066C37.2184 139.066 38.022 139.066 38.8759 139.066C38.9763 139.116 38.9763 139.016 38.9261 139.016Z" fill="#263238"/>
<path d="M25.2643 118.704C15.2691 123.782 3.8675 135.195 4.52045 139.016C5.27386 143.239 19.5886 136.1 19.4379 135.446C19.3375 134.893 22.3009 130.368 26.6204 123.832C30.9902 117.195 27.7254 117.447 25.2643 118.704Z" fill="#075681"/>
<path d="M4.52048 139.016C5.37434 141.982 9.79434 143.943 20.4425 149.976C21.8991 150.831 30.5884 141.982 29.0816 141.027C27.173 139.82 19.438 135.446 18.8352 135.195C13.7121 133.184 3.91775 137.005 4.52048 139.016Z" fill="#D3766A"/>
<path d="M26.972 139.77C26.972 139.77 31.5427 142.133 33.5518 144.094C36.2641 146.758 37.5197 150.127 37.9718 151.585C38.8759 154.602 39.0266 162.596 36.7161 163.048C34.6568 163.45 34.9582 155.255 34.9582 155.255C34.9582 155.255 36.0129 163.651 33.4513 163.651C30.8897 163.651 31.7436 154.199 31.7436 154.199C31.7436 154.199 32.6477 162.847 29.9857 162.445C27.9766 162.143 28.2779 153.546 28.2779 153.546C28.2779 153.546 29.0313 160.987 26.9218 160.735C24.6113 160.484 24.4104 152.49 24.4104 152.49C19.1868 151.032 17.3284 148.166 16.2234 146.004C15.922 145.501 26.972 139.77 26.972 139.77Z" fill="#D3766A"/>
<path d="M34.707 152.339C34.8579 153.294 35.059 154.3 35.1092 155.305C35.1595 156.311 35.2098 157.266 35.2098 158.272C35.1595 160.685 34.7573 162.244 34.7573 162.143C35.1092 159.881 34.9081 156.311 34.8076 155.305C34.8076 154.35 34.7573 153.345 34.707 152.339Z" fill="#263238"/>
<path d="M31.1409 152.54C31.2917 153.797 31.4928 155.054 31.5934 156.311C31.6939 157.568 31.6939 158.775 31.6939 160.032C31.6939 160.132 31.6436 160.082 31.6436 159.981C31.5934 158.724 31.4425 157.568 31.342 156.311C31.2414 155.054 31.2414 153.797 31.1409 152.54Z" fill="#263238"/>
<path d="M28.0268 152.188C28.3788 154.099 28.3285 156.06 28.2782 158.02C28.2782 158.121 28.2279 158.071 28.2279 157.97C28.1777 156.009 28.1777 154.501 27.9766 152.239C27.9766 152.138 28.0268 152.138 28.0268 152.188Z" fill="#263238"/>
<path d="M29.2322 140.021C29.2322 140.021 16.9768 149.373 16.8763 149.323C16.7257 149.272 4.72136 142.183 4.52046 139.016C4.31955 135.848 14.2645 133.485 18.785 135.195C23.3054 136.954 29.2322 140.021 29.2322 140.021Z" fill="#075681"/>
<path d="M25.0634 138.664C24.5611 138.965 20.7438 142.083 19.89 142.787C19.0863 143.49 15.6709 146.306 14.8672 147.06C14.817 147.11 14.8672 147.161 14.9175 147.11C15.8216 146.507 19.2872 143.641 20.1411 142.988C20.995 142.284 24.762 139.116 25.1136 138.714C25.1638 138.664 25.1136 138.664 25.0634 138.664Z" fill="#263238"/>
<path d="M13.3605 134.742C14.4152 134.591 17.2782 134.34 19.6389 135.496C19.6891 135.496 19.6389 135.547 19.6389 135.547C17.6298 134.843 14.4152 134.692 13.3605 134.742C13.3605 134.792 13.3102 134.742 13.3605 134.742Z" fill="#263238"/>
<path d="M28.4788 140.574L29.2322 139.971V140.021L26.8213 138.815C26.0177 138.412 25.214 138.01 24.3602 137.658C22.7529 136.904 21.0954 136.15 19.3877 135.496L19.1868 135.396L19.2872 135.195C20.2415 133.485 21.1959 131.826 22.2004 130.167C23.2552 128.508 24.3099 126.949 25.5154 125.391C24.4606 126.999 23.4059 128.659 22.4515 130.318C21.4972 131.977 20.4927 133.636 19.5886 135.345L19.4881 135.094C21.1456 135.798 22.8031 136.552 24.4104 137.357C25.214 137.759 26.0177 138.211 26.8213 138.613C27.6249 139.016 28.3783 139.468 29.182 139.971L29.2322 140.021L29.182 140.072L28.4788 140.574Z" fill="#263238"/>
<path d="M23.1045 129.061C23.4059 128.659 23.7072 128.307 24.0588 127.955C24.4104 127.603 24.762 127.301 25.1638 127.05C24.9127 127.452 24.5611 127.804 24.2597 128.156C24.109 128.307 23.9081 128.508 23.7072 128.659C23.5063 128.81 23.3054 128.96 23.1045 129.061Z" fill="#263238"/>
<path d="M13.3102 147.11C13.8125 147.311 14.3147 147.613 14.7668 147.915C15.2188 148.216 15.6709 148.518 16.1229 148.92C15.6206 148.719 15.1184 148.417 14.6663 148.166C14.2143 147.814 13.712 147.462 13.3102 147.11Z" fill="#263238"/>
<path d="M28.6797 118.603C28.8304 119.357 30.5884 122.726 32.8486 122.625C34.0038 122.575 34.0541 118.503 34.0541 118.503L34.1043 118.201L34.9079 113.978L29.182 110.609C29.182 110.609 28.6797 118.402 28.6797 118.603Z" fill="#D3766A"/>
<path d="M28.9811 113.525C30.3373 116.592 32.8989 117.799 34.1043 118.201L34.9079 113.978L29.182 110.609C29.182 110.609 29.0816 111.967 28.9811 113.525Z" fill="#263238"/>
<path d="M40.7845 107.542C41.4375 115.034 37.0175 116.291 35.4102 116.391C33.9536 116.542 28.9309 116.743 27.5246 109.403C26.1182 102.012 29.383 99.3473 32.698 98.8948C36.0632 98.4423 40.1316 100.051 40.7845 107.542Z" fill="#D3766A"/>
<path d="M39.5289 105.883C39.328 105.883 39.1773 105.833 39.0266 105.783C38.8257 105.732 38.675 105.732 38.5243 105.582C38.4239 105.481 38.4239 105.33 38.5243 105.28C38.675 105.079 38.9261 105.079 39.1773 105.129C39.4284 105.179 39.6293 105.28 39.78 105.431C39.9307 105.582 39.78 105.883 39.5289 105.883Z" fill="#263238"/>
<path d="M34.707 106.034C34.8577 105.984 35.0586 105.933 35.2093 105.933C35.4102 105.883 35.5609 105.883 35.7115 105.732C35.7618 105.632 35.7618 105.481 35.7115 105.431C35.5609 105.23 35.3097 105.23 35.0586 105.28C34.8075 105.33 34.6065 105.431 34.4559 105.632C34.3052 105.783 34.5061 106.084 34.707 106.034Z" fill="#263238"/>
<path d="M35.7623 107.894C35.7623 107.894 35.7623 107.945 35.7623 107.894C35.7623 108.447 35.712 109.051 35.2595 109.252V109.302C35.8628 109.151 35.9131 108.397 35.7623 107.894Z" fill="#263238"/>
<path d="M35.3097 107.391C34.5061 107.391 34.5061 109 35.2595 109.051C36.0129 109.051 35.9627 107.391 35.3097 107.391Z" fill="#263238"/>
<path d="M34.9582 107.492C34.8075 107.593 34.6568 107.744 34.5061 107.794C34.3052 107.794 34.1545 107.643 34.0038 107.492H33.9536C33.9536 107.794 34.0541 108.146 34.4057 108.196C34.707 108.246 34.9582 107.945 35.0084 107.643C35.0586 107.542 35.0084 107.442 34.9582 107.492Z" fill="#263238"/>
<path d="M38.5745 107.794C38.5745 107.743 38.6248 107.794 38.5745 107.794C38.6248 108.347 38.6751 108.95 39.1276 109.101V109.151C38.5745 109.051 38.474 108.246 38.5745 107.794Z" fill="#263238"/>
<path d="M39.0266 107.241C39.8302 107.19 39.9307 108.799 39.1773 108.9C38.4238 108.95 38.3736 107.291 39.0266 107.241Z" fill="#263238"/>
<path d="M39.3783 107.341C39.5293 107.442 39.6299 107.593 39.7809 107.593C39.9822 107.593 40.0829 107.392 40.1835 107.241C40.1835 107.241 40.1835 107.241 40.2339 107.241C40.2339 107.543 40.1835 107.895 39.8816 107.945C39.6299 107.995 39.3783 107.744 39.2776 107.442C39.2776 107.392 39.328 107.291 39.3783 107.341Z" fill="#263238"/>
<path d="M35.6111 111.917C35.7116 112.067 35.812 112.268 35.9627 112.319C36.1134 112.369 36.3645 112.319 36.5152 112.319C36.5152 112.319 36.5655 112.319 36.5152 112.369C36.3645 112.52 36.0632 112.57 35.812 112.52C35.6111 112.419 35.5107 112.218 35.5107 112.017C35.5609 111.917 35.6111 111.917 35.6111 111.917Z" fill="#263238"/>
<path d="M37.9216 110.056C37.9216 110.056 38.022 110.81 38.0723 111.162C38.0723 111.213 36.9673 111.464 36.1636 110.609C36.1134 110.559 36.1636 110.559 36.2139 110.559C36.7161 110.911 37.2184 110.961 37.7709 110.961C37.7709 110.861 37.5198 109.654 37.57 109.654C37.7709 109.654 38.1727 109.755 38.3736 109.805C38.1727 108.196 37.6704 106.688 37.5198 105.079C37.5198 105.029 37.6202 104.978 37.6202 105.029C38.2229 106.637 38.5243 108.447 38.7754 110.106C38.8257 110.358 38.0723 110.106 37.9216 110.056Z" fill="#263238"/>
<path d="M37.57 111.162C37.57 111.162 37.2686 111.565 36.8166 111.766C36.6659 111.816 36.465 111.866 36.3143 111.816C35.9627 111.715 35.9125 111.363 36.0129 111.112C36.0632 110.861 36.1636 110.66 36.1636 110.66C36.1636 110.66 36.6659 111.112 37.57 111.162Z" fill="#263238"/>
<path d="M36.8183 111.766C36.6673 111.817 36.466 111.867 36.315 111.817C35.9627 111.716 35.9124 111.364 36.013 111.112C36.3653 111.112 36.7679 111.364 36.8183 111.766Z" fill="#FF9BBC"/>
<path d="M27.9766 109.202C29.3829 109.403 29.7847 106.185 29.7847 106.185C29.7847 106.185 35.7618 105.28 36.3645 100.403C36.3645 100.403 37.3188 103.52 40.4329 104.978C40.4329 104.978 40.3325 99.6489 36.1134 98.5428C36.1134 98.5428 30.8897 96.5317 27.8761 100.654C24.8625 104.777 27.0222 109.051 27.9766 109.202Z" fill="#263238"/>
<path d="M36.3645 100.051C36.4147 100.805 36.3143 101.559 36.0631 102.263C35.812 102.967 35.4102 103.671 34.9079 104.224C34.8074 104.375 34.6568 104.476 34.5061 104.626L34.3052 104.827C34.2549 104.878 34.1545 104.928 34.054 104.978C33.9033 105.079 33.7527 105.179 33.602 105.28C33.4513 105.381 33.2504 105.481 33.0997 105.531C32.9993 105.582 32.949 105.632 32.8486 105.632L32.5974 105.732L32.0449 105.934C31.6933 106.034 31.2915 106.084 30.9399 106.185C31.2915 106.034 31.6431 105.934 31.9947 105.783L32.497 105.531L32.7481 105.431C32.8486 105.381 32.8988 105.33 32.9993 105.28C33.1499 105.179 33.3006 105.079 33.4513 104.978C33.602 104.878 33.7527 104.777 33.9033 104.677L34.1043 104.526L34.3052 104.325C34.4558 104.174 34.5563 104.073 34.707 103.922C35.2093 103.42 35.5608 102.766 35.8622 102.113C36.0129 101.761 36.1133 101.409 36.2138 101.057C36.3142 100.805 36.3645 100.453 36.3645 100.051Z" fill="#263238"/>
<path d="M28.8807 108.95C28.8807 108.95 27.2232 106.587 26.1684 107.19C25.1136 107.794 26.3191 111.162 27.5748 111.665C28.8304 112.118 29.2825 110.961 29.2825 110.961L28.8807 108.95Z" fill="#D3766A"/>
<path d="M26.52 108.146C26.52 108.146 26.52 108.196 26.52 108.146C27.3738 108.548 27.8259 109.352 28.1775 110.207C27.9263 109.905 27.5747 109.704 27.1227 110.006V110.056C27.4743 109.956 27.7254 110.056 27.9765 110.308C28.1272 110.509 28.2779 110.76 28.3784 111.011C28.4286 111.112 28.5793 111.062 28.529 110.961C28.6295 109.805 27.7254 108.246 26.52 108.146Z" fill="#263238"/>
<path d="M27.7255 111.364C27.7758 111.515 27.9268 111.615 28.1281 111.615C28.2791 111.565 28.3797 111.414 28.3797 111.213C28.3294 111.062 28.1784 110.961 27.9771 110.961C27.7758 111.012 27.6751 111.162 27.7255 111.364Z" fill="#455A64"/>
<path d="M27.8761 111.313C27.8761 111.414 27.9768 111.464 28.0774 111.414C28.1781 111.414 28.2284 111.313 28.1781 111.213C28.1781 111.112 28.0774 111.062 27.9768 111.112C27.9264 111.162 27.8761 111.213 27.8761 111.313Z" fill="#263238"/>
<path d="M27.173 110.961C27.2233 111.062 27.324 111.163 27.475 111.112C27.5756 111.062 27.6763 110.961 27.6259 110.81C27.5756 110.71 27.475 110.609 27.324 110.66C27.2233 110.71 27.1227 110.861 27.173 110.961Z" fill="#455A64"/>
<path d="M24.8625 118.905C24.8625 118.905 28.5291 124.637 32.6979 124.586C36.0129 124.536 36.2641 120.614 36.2641 120.614C36.2641 120.614 34.3052 117.648 30.1866 117.397C27.1729 117.246 24.8625 118.905 24.8625 118.905Z" fill="#D3766A"/>
<path d="M64.8935 91.152C64.2908 97.135 58.9165 101.509 52.8892 100.906C50.4783 100.654 48.3185 99.5985 46.661 98.0902L41.1863 98.8947L43.8986 94.1686C43.2456 92.5598 42.9442 90.7498 43.1451 88.8896C43.7479 82.9066 49.1222 78.5325 55.1495 79.1358C61.1265 79.7894 65.4963 85.1691 64.8935 91.152Z" fill="white"/>
<path d="M64.8935 91.1521C64.6424 93.1631 63.9392 95.1239 62.6836 96.6825C62.3822 97.0847 62.0306 97.4367 61.679 97.8389C61.2772 98.1908 60.9256 98.5428 60.5238 98.7942C59.7201 99.3975 58.8161 99.9002 57.912 100.252C56.9577 100.654 55.9531 100.856 54.9486 100.956C54.4463 101.006 53.944 101.006 53.4417 101.006C52.9395 101.006 52.4372 100.956 51.9349 100.856C49.9258 100.504 48.0674 99.5483 46.5104 98.1908L46.6611 98.2411L41.1863 99.0958L40.7845 99.1461L40.9854 98.7942L43.6977 94.0681V94.2692C42.3918 91.1521 42.6931 87.4316 44.3506 84.5155C45.2045 83.0575 46.3597 81.8005 47.7661 80.8453C49.1724 79.89 50.7797 79.337 52.4372 79.0856C54.0947 78.8845 55.8024 79.0353 57.3595 79.5381C58.9165 80.0911 60.3731 80.9458 61.5786 82.1022C63.9895 84.4149 65.2451 87.8841 64.8935 91.1521ZM64.8935 91.1521C65.2451 87.8338 63.9895 84.4149 61.5786 82.1525C60.3731 80.9961 58.9165 80.1414 57.3595 79.6889C55.8024 79.1861 54.0947 79.0856 52.4874 79.337C50.8802 79.5883 49.3231 80.1917 47.967 81.0967C46.6108 82.0519 45.5058 83.2586 44.7022 84.6663C43.8986 86.0741 43.4465 87.6829 43.2958 89.2918C43.1954 90.9007 43.4465 92.5598 44.0493 94.0681L44.0995 94.1687L44.0493 94.2692L41.2868 98.9953L41.0859 98.6936L46.5606 97.9394H46.6611L46.7113 97.9897C48.1679 99.3472 49.9761 100.302 51.9349 100.705C52.4372 100.805 52.9395 100.856 53.3915 100.906C53.8938 100.956 54.3961 100.906 54.8983 100.906C55.9029 100.805 56.9074 100.654 57.8115 100.252C58.7658 99.9002 59.6699 99.4478 60.4233 98.8444C60.8251 98.5428 61.1767 98.1908 61.5786 97.8892C61.9301 97.5372 62.2817 97.1853 62.5831 96.7831C63.889 95.1239 64.6424 93.1631 64.8935 91.1521Z" fill="#263238"/>
<path d="M52.7386 96.2803L48.0674 91.5543L49.6245 89.9957L52.3368 92.761L58.0124 83.8619L59.8708 85.0686L52.7386 96.2803Z" fill="#075681"/>
<path d="M188 170.439C188 170.439 193.023 152.389 197.041 146.256C201.06 140.122 208.543 133.385 208.543 133.385C208.543 133.385 208.393 161.238 188 170.439Z" fill="#31C259"/>
<path d="M188.402 170.137C190.11 167.322 191.567 164.355 192.973 161.389C193.576 158.171 194.329 154.954 195.484 151.887C195.484 151.836 195.585 151.836 195.585 151.937C194.932 154.803 194.128 157.618 193.425 160.484C195.434 156.11 197.393 151.635 199.804 147.462C200.306 145.451 201.21 143.49 202.114 141.681C202.165 141.63 202.215 141.681 202.215 141.731C201.562 143.139 201.11 144.597 200.658 146.055C201.813 144.194 203.069 142.435 204.475 140.776C204.575 140.675 204.726 140.776 204.676 140.876C201.461 144.999 199.201 149.725 197.092 154.451C199.402 151.987 201.461 149.323 203.42 146.557C203.42 146.507 203.47 146.557 203.47 146.608C201.461 149.775 199.201 152.591 196.69 155.356C195.133 158.825 193.626 162.344 191.767 165.663C195.434 162.545 198.297 158.523 201.11 154.602C201.16 154.501 201.311 154.602 201.26 154.702C198.448 158.976 195.535 162.998 191.516 166.165C190.713 167.623 189.809 169.031 188.804 170.389C188.553 170.59 188.252 170.389 188.402 170.137Z" fill="#263238"/>
<path d="M186.443 172.048C186.443 172.048 195.484 155.406 192.872 139.217C190.261 123.078 187.448 117.296 187.448 117.296C187.448 117.296 173.234 142.485 186.443 172.048Z" fill="#31C259"/>
<path d="M182.777 145.904C183.48 150.579 184.786 154.954 186.242 159.378C186.293 153.445 186.393 147.513 186.544 141.58C185.489 137.96 184.987 134.29 184.836 130.519C184.836 130.418 184.987 130.418 184.987 130.519C185.238 133.737 185.841 136.904 186.594 140.021C186.745 135.144 186.895 130.268 187.046 125.34C187.046 125.24 187.197 125.24 187.197 125.34C187.197 132.983 187.197 140.625 187.147 148.267C188.302 145.3 189.055 142.284 189.758 139.217C189.758 139.167 189.809 139.217 189.809 139.217C189.557 142.787 188.452 146.256 187.147 149.524C187.096 154.401 187.046 159.277 186.946 164.154C188.452 158.976 190.11 153.948 190.562 148.468C190.562 148.418 190.662 148.418 190.662 148.468C190.562 154.501 189.005 160.635 186.996 166.366C186.996 166.417 186.946 166.467 186.895 166.517C186.845 168.277 186.795 170.087 186.745 171.847C186.745 172.098 186.343 172.098 186.343 171.847C186.293 168.176 186.242 164.556 186.242 160.886C184.233 156.21 183.128 150.982 182.676 145.904C182.676 145.853 182.727 145.853 182.777 145.904Z" fill="#263238"/>
<path d="M183.38 143.289C183.681 144.697 183.933 146.256 184.033 147.714C184.033 147.764 183.983 147.764 183.933 147.714C183.581 146.306 183.329 144.798 183.179 143.34C183.179 143.239 183.329 143.189 183.38 143.289Z" fill="#263238"/>
<path d="M188.654 131.122C188.654 131.072 188.754 131.072 188.754 131.122C188.754 132.128 188.553 133.184 188.302 134.139C188.302 134.239 188.151 134.189 188.201 134.089C188.352 133.133 188.503 132.128 188.654 131.122Z" fill="#263238"/>
<path d="M183.179 173.355C183.179 173.355 183.53 155.959 178.558 147.312C173.585 138.664 165.298 134.29 165.298 134.29C165.298 134.29 168.613 164.908 183.179 173.355Z" fill="#31C259"/>
<path d="M174.088 158.473C176.197 161.49 178.256 164.406 180.818 167.02C179.813 163.45 178.658 159.981 177.352 156.512C174.54 154.049 171.777 151.535 170.069 148.166C170.019 148.116 170.12 148.066 170.17 148.116C172.028 151.082 174.489 153.445 177.051 155.758C175.042 150.58 172.731 145.552 170.12 140.625C170.069 140.524 170.22 140.373 170.32 140.524C171.928 143.088 173.384 145.753 174.69 148.468C174.238 146.608 173.836 144.697 173.384 142.887C173.384 142.837 173.435 142.837 173.485 142.887C174.389 145.2 175.243 147.764 175.544 150.278C177.302 154.149 178.759 158.121 179.914 162.193C179.763 159.579 179.613 157.015 179.361 154.401C179.361 154.35 179.462 154.35 179.462 154.401C180.014 157.266 180.265 160.233 180.215 163.149C180.918 165.763 181.521 168.378 182.023 170.992C182.023 171.042 181.923 171.093 181.923 171.042C181.672 169.936 181.37 168.83 181.069 167.724H181.019C178.256 164.959 175.745 161.892 174.088 158.473C174.037 158.473 174.088 158.473 174.088 158.473Z" fill="#263238"/>
<path d="M168.311 144.345C168.864 144.948 169.366 145.552 169.919 146.205C170.371 146.758 170.973 147.261 171.375 147.865C171.375 147.865 171.375 147.915 171.325 147.915C170.672 147.513 170.17 146.859 169.668 146.256C169.165 145.652 168.663 145.049 168.261 144.395C168.211 144.345 168.261 144.295 168.311 144.345Z" fill="#263238"/>
<path d="M197.945 171.193L197.292 179.439L195.384 204.326H178.859L176.95 179.439L176.297 171.193C177.001 171.193 187.046 171.193 187.046 171.193C187.046 171.193 197.292 171.193 197.945 171.193Z" fill="#075681"/>
<path d="M197.946 171.193L197.293 179.439H177.001L176.348 171.193C177.051 171.193 187.096 171.193 187.096 171.193C187.096 171.193 197.293 171.193 197.946 171.193Z" fill="#37474F"/>
<path d="M174.987 173.497H199.448V167.162H174.987V173.497Z" fill="#075681"/>
</g>
</svg>
