<svg width="210" height="236" viewBox="0 0 210 236" fill="none" xmlns="http://www.w3.org/2000/svg">
<defs>
<linearGradient id="paint0_linear_139_6415" x1="17.2522" y1="50.4945" x2="17.2522" y2="59.3379" gradientUnits="userSpaceOnUse">
<stop stop-color="#0084C7"/>
<stop offset="1" stop-color="#69CAFD" stop-opacity="0"/>
</linearGradient>
<linearGradient id="paint1_linear_139_6415" x1="17.2522" y1="68.8655" x2="17.2522" y2="71.8803" gradientUnits="userSpaceOnUse">
<stop stop-color="#0084C7"/>
<stop offset="1" stop-color="#69CAFD" stop-opacity="0"/>
</linearGradient>
<linearGradient id="paint2_linear_139_6415" x1="54.1663" y1="27.813" x2="54.1663" y2="36.6564" gradientUnits="userSpaceOnUse">
<stop stop-color="#0084C7"/>
<stop offset="1" stop-color="#69CAFD" stop-opacity="0"/>
</linearGradient>
<linearGradient id="paint3_linear_139_6415" x1="54.1663" y1="46.184" x2="54.1663" y2="49.1485" gradientUnits="userSpaceOnUse">
<stop stop-color="#0084C7"/>
<stop offset="1" stop-color="#69CAFD" stop-opacity="0"/>
</linearGradient>
<linearGradient id="paint4_linear_139_6415" x1="55.6705" y1="131.714" x2="55.6705" y2="225.788" gradientUnits="userSpaceOnUse">
<stop stop-color="#3FB1EE"/>
<stop offset="1" stop-color="#1588C6"/>
</linearGradient>
<linearGradient id="paint5_linear_139_6415" x1="54.0435" y1="138.743" x2="54.0435" y2="202.714" gradientUnits="userSpaceOnUse">
<stop stop-color="#3FB1EE"/>
<stop offset="1" stop-color="#1588C6"/>
</linearGradient>
<linearGradient id="paint6_linear_139_6415" x1="73.1055" y1="206.545" x2="73.1055" y2="231.854" gradientUnits="userSpaceOnUse">
<stop stop-color="#3FB1EE"/>
<stop offset="1" stop-color="#1588C6"/>
</linearGradient>
<linearGradient id="paint7_linear_139_6415" x1="141.861" y1="205.168" x2="141.861" y2="235.962" gradientUnits="userSpaceOnUse">
<stop stop-color="#3FB1EE"/>
<stop offset="1" stop-color="#1588C6"/>
</linearGradient>
<linearGradient id="paint8_linear_139_6415" x1="18.4434" y1="106.89" x2="18.4434" y2="108.912" gradientUnits="userSpaceOnUse">
<stop stop-color="#3953A4"/>
<stop offset="1" stop-color="#152F82"/>
</linearGradient>
<linearGradient id="paint9_linear_139_6415" x1="20.9431" y1="103.279" x2="20.9431" y2="105.3" gradientUnits="userSpaceOnUse">
<stop stop-color="#3953A4"/>
<stop offset="1" stop-color="#152F82"/>
</linearGradient>
<linearGradient id="paint10_linear_139_6415" x1="23.7316" y1="99.5521" x2="23.7316" y2="101.574" gradientUnits="userSpaceOnUse">
<stop stop-color="#3953A4"/>
<stop offset="1" stop-color="#152F82"/>
</linearGradient>
<clipPath id="clip0_139_6415">
<rect width="210" height="236" fill="white"/>
</clipPath>
</defs>
<g clip-path="url(#clip0_139_6415)">
<path d="M22.1484 192.279L15.4321 192.433L11.9971 192.484C10.8691 192.484 9.68994 192.484 8.56201 192.536H8.35693V192.33L8.30566 186.583V186.327H8.56201L15.3296 186.378C17.5854 186.378 19.8413 186.429 22.0972 186.48H22.251V186.634C22.251 187.609 22.1997 188.584 22.1997 189.559L22.1484 192.279ZM22.1484 192.279L22.0972 189.354C22.0972 188.379 22.0459 187.455 22.0459 186.532L22.1997 186.686C19.9438 186.737 17.688 186.788 15.4321 186.788L8.66455 186.84L8.9209 186.583L8.86963 192.33L8.66455 192.125C9.79248 192.125 10.9204 192.125 11.9971 192.177L15.3809 192.228L22.1484 192.279Z" fill="#EBEBEB"/>
<path d="M14.6118 199.566L7.89551 199.72L4.46045 199.771C3.33252 199.771 2.15332 199.771 1.02539 199.822H0.820313V199.617L0.769043 193.87V193.613H1.02539L7.79297 193.665C10.0488 193.665 12.3047 193.716 14.5605 193.767H14.7144V193.921C14.7144 194.896 14.6631 195.871 14.6631 196.846L14.6118 199.566ZM14.6118 199.566L14.5605 196.641C14.5605 195.666 14.5093 194.742 14.5093 193.819L14.6631 193.972C12.4072 194.024 10.1514 194.075 7.89551 194.075H1.02539L1.28174 193.819L1.23047 199.566L1.02539 199.309C2.15332 199.309 3.28125 199.309 4.35791 199.361L7.7417 199.412L14.6118 199.566Z" fill="#EBEBEB"/>
<path d="M29.6338 199.566L22.9175 199.72L19.4824 199.771C18.3545 199.771 17.1753 199.771 16.0474 199.822H15.8423V199.617L15.791 193.87V193.613H16.0474L22.8149 193.665C25.0708 193.665 27.3267 193.716 29.5825 193.767H29.7363V193.921C29.7363 194.896 29.6851 195.871 29.6851 196.846L29.6338 199.566ZM29.6338 199.566L29.5825 196.641C29.5825 195.666 29.5313 194.742 29.5313 193.819L29.6851 193.972C27.4292 194.024 25.1733 194.075 22.9175 194.075L16.1499 194.126L16.4063 193.87L16.355 199.617L16.1499 199.412C17.2778 199.412 18.4058 199.412 19.4824 199.463L22.8662 199.515L29.6338 199.566Z" fill="#EBEBEB"/>
<path d="M40.1953 109.918L33.479 110.072L30.0439 110.123C28.916 110.123 27.7368 110.123 26.6089 110.174H26.4038V109.969V104.17V103.914H26.6602L33.4277 103.965C35.6836 103.965 37.9395 104.016 40.1953 104.068H40.3491V104.222C40.3491 105.197 40.2978 106.172 40.2978 107.147L40.1953 109.918ZM40.1953 109.918L40.144 106.993C40.144 106.018 40.0928 105.094 40.0928 104.17L40.2466 104.324C37.9907 104.376 35.7349 104.427 33.479 104.427H26.6602L26.9165 104.17L26.8652 109.918L26.6602 109.712C27.7881 109.712 28.916 109.712 29.9927 109.764L33.3765 109.815L40.1953 109.918Z" fill="#EBEBEB"/>
<path d="M32.6587 117.153L25.9424 117.307L22.5073 117.359C21.3794 117.359 20.2002 117.359 19.0723 117.41H18.8672V117.205L18.8159 111.457V111.201H19.0723L25.8398 111.252C28.0957 111.252 30.3516 111.303 32.6074 111.355H32.7612V111.509C32.7612 112.484 32.71 113.459 32.71 114.434L32.6587 117.153ZM32.6587 117.153L32.6074 114.228C32.6074 113.253 32.5562 112.33 32.5562 111.406L32.71 111.56C30.4541 111.611 28.1982 111.663 25.9424 111.663L19.1748 111.714L19.4312 111.457L19.3799 117.205L19.1748 116.999C20.3027 116.999 21.4307 116.999 22.5073 117.051L25.8911 117.102L32.6587 117.153Z" fill="#EBEBEB"/>
<path d="M209.846 133.215L203.13 133.369L199.695 133.42C198.567 133.42 197.388 133.42 196.26 133.472H196.055V133.266L196.003 127.519V127.262H196.26L203.027 127.314C205.283 127.314 207.539 127.365 209.795 127.416H209.949V127.57C209.949 128.545 209.897 129.52 209.897 130.495L209.846 133.215ZM209.846 133.215L209.795 130.29C209.795 129.315 209.744 128.391 209.744 127.468L209.897 127.622C207.642 127.673 205.386 127.724 203.13 127.724L196.362 127.776L196.619 127.519L196.567 133.266L196.362 133.061C197.49 133.061 198.618 133.061 199.695 133.112L203.079 133.164L209.846 133.215Z" fill="#EBEBEB"/>
<path d="M202.258 31.3537L195.542 31.5077L192.107 31.559C190.979 31.559 189.8 31.559 188.672 31.6103H188.467V31.405V25.6577V25.4011H188.723L195.491 25.4524C197.747 25.4524 200.002 25.5038 202.258 25.5551H202.412V25.709C202.412 26.684 202.361 27.659 202.361 28.634L202.258 31.3537ZM202.258 31.3537L202.207 28.4287C202.207 27.4537 202.156 26.5301 202.156 25.6064L202.31 25.7603C200.054 25.8116 197.798 25.863 195.542 25.863L188.774 25.9143L189.031 25.6577L188.979 31.405L188.774 31.1998C189.902 31.1998 191.03 31.1998 192.107 31.2511L195.491 31.3024L202.258 31.3537Z" fill="#EBEBEB"/>
<path d="M209.846 38.6405L203.13 38.7944L199.695 38.8457C198.567 38.8457 197.388 38.8457 196.26 38.897H196.055V38.6918L196.003 32.9444V32.6879H196.26L203.027 32.7392C205.283 32.7392 207.539 32.7905 209.795 32.8418H209.949V32.9958C209.949 33.9708 209.897 34.9458 209.897 35.9207L209.846 38.6405ZM209.846 38.6405L209.795 35.7155C209.795 34.7405 209.744 33.8168 209.744 32.8931L209.897 33.0471C207.642 33.0984 205.386 33.1497 203.13 33.1497L196.362 33.201L196.619 32.9444L196.567 38.6918L196.362 38.4865C197.49 38.4865 198.618 38.4865 199.695 38.5378L203.027 38.4865L209.846 38.6405Z" fill="#EBEBEB"/>
<path d="M22.1484 31.3537L15.4321 31.5077L11.9971 31.559C10.8691 31.559 9.68994 31.559 8.56201 31.6103H8.35693V31.405V25.6577V25.4011H8.61328H15.3809C17.6367 25.4011 19.8926 25.4524 22.1484 25.5038H22.3022V25.6577C22.3022 26.6327 22.251 27.6077 22.251 28.5827L22.1484 31.3537ZM22.1484 31.3537L22.0972 28.4287C22.0972 27.4537 22.0459 26.5301 22.0459 25.6064L22.1997 25.7603C19.9438 25.8116 17.688 25.863 15.4321 25.863L8.66455 25.9143L8.9209 25.6577L8.86963 31.405L8.66455 31.1998C9.79248 31.1998 10.9204 31.1998 11.9971 31.2511L15.3809 31.3024L22.1484 31.3537Z" fill="#EBEBEB"/>
<path d="M177.444 194.896L170.728 195.05L167.292 195.101C166.165 195.101 164.985 195.101 163.857 195.153H163.652V194.948L163.601 189.2V188.944H163.857L170.625 188.995C172.881 188.995 175.137 189.046 177.393 189.098H177.546V189.251C177.546 190.226 177.495 191.201 177.495 192.176L177.444 194.896ZM177.444 194.896L177.393 191.971C177.393 190.996 177.341 190.073 177.341 189.149L177.495 189.303C175.239 189.354 172.983 189.405 170.728 189.405L163.96 189.457L164.216 189.2L164.165 194.948L163.96 194.742C165.088 194.742 166.216 194.742 167.292 194.794L170.676 194.845L177.444 194.896Z" fill="#EBEBEB"/>
<path d="M17.2266 52.2392V0" stroke="#90D2F5" stroke-miterlimit="10"/>
<path d="M34.5044 68.8654L33.1201 71.9443H1.38428L0 68.8654L13.4839 59.526H20.9692L34.5044 68.8654Z" fill="#319FDA"/>
<path d="M21.9434 50.4945L20.9692 59.526H13.4839L12.561 50.4945H21.9434Z" fill="url(#paint0_linear_139_6415)"/>
<path d="M34.5044 68.8655L33.1201 71.9444H1.38428L0 68.8655H34.5044Z" fill="url(#paint1_linear_139_6415)"/>
<path d="M54.1919 29.5577V0" stroke="#90D2F5" stroke-miterlimit="10"/>
<path d="M71.4185 46.1839L70.0342 49.2115H38.2983L36.9141 46.1839L50.4492 36.8445H57.9346L71.4185 46.1839Z" fill="#319FDA"/>
<path d="M58.8574 27.813L57.9346 36.8445H50.4492L49.4751 27.813H58.8574Z" fill="url(#paint2_linear_139_6415)"/>
<path d="M71.4185 46.184L70.0342 49.2116H38.2983L36.9141 46.184H71.4185Z" fill="url(#paint3_linear_139_6415)"/>
<path d="M185.493 187.148C185.955 188.995 186.416 190.842 186.467 192.741C186.416 192.844 186.416 193.203 186.467 193.1C186.467 193.408 186.929 193.357 186.929 193.049C186.929 192.844 186.929 192.638 186.929 192.484C188.005 191.15 189.595 190.278 190.876 189.098C191.902 188.123 192.671 186.994 193.03 185.659C194.106 182.016 193.081 178.116 194.363 174.473C195.439 171.342 197.439 168.571 199.131 165.749C200.874 162.721 202.207 159.54 202.31 155.999C202.412 153.279 202.105 149.687 200.054 147.635C197.849 145.479 195.183 147.07 193.491 149.02C188.621 154.614 186.416 161.644 185.493 168.828C184.98 172.831 184.468 176.833 184.57 180.836C184.673 182.888 184.98 185.044 185.493 187.148Z" fill="#31C259"/>
<path d="M186.467 194.178C186.211 190.432 186.211 186.634 186.621 182.888C186.621 182.888 186.621 182.888 186.621 182.837C186.57 179.809 186.313 176.731 186.416 173.703C186.57 170.367 187.031 167.135 187.749 163.902C187.749 163.85 187.8 163.85 187.8 163.902C187.185 167.083 186.877 170.265 186.724 173.498C186.672 175.242 186.672 176.936 186.775 178.681C186.826 179.245 186.877 179.809 186.877 180.374C188.108 171.804 191.287 163.645 195.952 156.358C196.003 156.256 196.208 156.358 196.106 156.461C192.722 161.952 190.261 168.007 188.723 174.267C191.03 169.957 194.568 166.365 197.183 162.208H197.234C194.875 166.827 191.03 170.47 188.518 175.037C188.108 176.885 187.749 178.783 187.493 180.682C187.134 183.248 186.98 185.865 186.929 188.482C188.364 185.813 189.8 183.299 190.979 180.477C191.03 180.425 191.133 180.477 191.082 180.528C190.107 183.453 188.774 186.583 186.877 189.098C186.877 190.945 186.929 192.792 187.031 194.64C187.339 199.566 188.159 204.441 188.569 209.367C188.569 209.521 188.364 209.521 188.364 209.367C187.339 204.39 186.775 199.207 186.467 194.178Z" fill="#263238"/>
<path d="M191.646 156.153C191.646 156.102 191.697 156.153 191.697 156.153C190.774 158.668 190.312 161.182 189.646 163.696C189.595 163.799 189.441 163.799 189.441 163.645C189.749 161.131 190.671 158.565 191.646 156.153Z" fill="#263238"/>
<path d="M168.831 166.621C169.395 168.058 170.112 169.495 170.881 170.881C172.522 173.806 174.214 176.525 174.521 179.963C174.675 181.503 174.727 183.042 175.188 184.531C175.598 185.813 176.265 186.994 176.982 188.071C178.726 190.637 180.93 192.844 182.571 195.512C184.263 198.283 185.493 201.311 186.262 204.441C186.313 204.595 186.57 204.544 186.519 204.39C186.519 204.39 186.519 204.39 186.519 204.338C186.519 204.338 186.519 204.338 186.519 204.287C186.775 196.949 186.211 189.508 183.955 182.478C182.981 179.399 181.75 176.32 180.417 173.395C179.238 170.829 177.7 168.366 175.598 166.467C174.214 165.236 171.291 162.875 169.343 164.158C168.369 164.723 168.472 165.698 168.831 166.621Z" fill="#31C259"/>
<path d="M176.213 183.248C177.495 185.403 178.982 187.404 180.469 189.406C181.187 190.329 181.904 191.253 182.622 192.177C182.981 192.638 183.34 193.049 183.647 193.511C183.442 192.741 183.289 191.971 183.083 191.202C182.161 187.507 181.238 183.761 179.802 180.169C178.418 176.679 176.572 173.395 174.727 170.162C174.675 170.06 174.829 170.008 174.88 170.111C176.418 172.677 178.008 175.191 179.29 177.911C180.007 179.399 180.623 180.938 181.187 182.529C180.571 179.142 179.802 175.91 178.674 172.625C178.674 172.574 178.726 172.574 178.726 172.625C180.059 175.807 181.033 179.45 181.34 182.888C181.648 183.863 181.956 184.787 182.212 185.762C183.391 189.867 184.365 194.024 185.339 198.18C185.339 195.409 185.134 192.741 184.622 190.021C184.622 189.97 184.724 189.97 184.724 190.021C185.391 192.844 185.698 195.769 185.442 198.642C185.801 200.233 186.16 201.824 186.467 203.415C187.185 206.801 188.057 210.24 188.518 213.678C188.518 213.78 188.416 213.78 188.364 213.678C187.852 211.83 187.544 209.88 187.134 208.033C186.724 206.134 186.313 204.287 185.852 202.388C185.237 199.669 184.57 196.949 183.853 194.178C183.391 193.203 182.52 192.279 181.853 191.458C181.135 190.534 180.417 189.611 179.7 188.687C178.367 186.942 177.188 185.146 176.162 183.196C176.111 183.248 176.213 183.248 176.213 183.248Z" fill="#263238"/>
<path d="M175.906 180.117C177.495 182.17 178.931 184.428 180.059 186.737C180.059 186.788 180.007 186.788 180.007 186.788C178.623 184.582 177.239 182.375 175.803 180.169C175.803 180.117 175.854 180.066 175.906 180.117Z" fill="#263238"/>
<path d="M207.18 173.549C206.206 175.191 205.129 177.141 205.54 179.142C205.796 180.374 206.719 181.4 206.873 182.683C207.231 185.505 204.463 187.353 202.412 188.687C197.388 192.023 190.466 194.948 189.543 201.721C189.492 201.978 189.082 201.926 189.133 201.67V201.619C189.133 201.619 189.133 201.619 189.133 201.567C188.467 198.129 188.518 194.64 189.236 191.253C190.005 187.763 191.492 184.633 193.286 181.554C196.311 176.371 199.541 171.086 204.104 167.083C205.386 166.006 208 164.004 208.975 166.467C209.949 168.931 208.308 171.548 207.18 173.549Z" fill="#31C259"/>
<path d="M202.566 184.582C199.233 188.225 193.901 190.226 191.03 194.28C192.722 188.071 195.542 182.478 199.9 177.603C200.002 177.5 199.849 177.295 199.695 177.398C196.516 180.477 194.158 184.017 192.466 187.917C193.235 185.146 194.312 182.529 195.593 179.912C195.645 179.809 195.491 179.707 195.439 179.809C193.799 182.58 192.773 185.659 192.056 188.79C188.262 197.975 187.903 208.751 188.723 218.45C188.723 218.604 188.928 218.604 188.928 218.45C188.723 210.804 188.826 203.055 190.671 195.615C190.723 195.461 190.774 195.307 190.774 195.153C193.901 190.791 199.182 188.738 202.617 184.633C202.617 184.582 202.566 184.53 202.566 184.582Z" fill="#263238"/>
<path d="M203.335 181.452C201.592 183.042 199.849 184.736 198.105 186.326C198.105 186.326 198.105 186.378 198.157 186.378C200.054 185.095 202.002 183.35 203.489 181.554C203.489 181.452 203.386 181.4 203.335 181.452Z" fill="#263238"/>
<path d="M203.591 174.473C202.002 177.038 200.31 179.45 198.362 181.708C198.311 181.759 198.362 181.759 198.413 181.759C200.566 179.707 202.412 177.244 203.694 174.524C203.694 174.473 203.643 174.421 203.591 174.473Z" fill="#263238"/>
<path d="M195.696 225.275H180.315L182.417 204.595H193.337L195.696 225.275Z" fill="#075681"/>
<path d="M193.696 207.982H182.058L182.417 204.595H193.337L193.696 207.982Z" fill="#263238"/>
<path d="M195.234 202.286H180.828V205.57H195.234V202.286Z" fill="#075681"/>
<path d="M1.58936 225.275L27.5317 225.172L53.5254 225.121L105.41 225.018L157.346 225.121L183.34 225.172L209.282 225.275L183.34 225.429L157.346 225.48L105.41 225.531L53.5254 225.48L27.5317 225.429L1.58936 225.275Z" fill="#263238"/>
<path d="M126.328 41.7704H116.792C116.484 41.7704 116.228 41.514 116.228 41.2062C116.228 40.8984 116.484 40.642 116.792 40.642H126.328C126.636 40.642 126.892 40.8984 126.892 41.2062C126.892 41.514 126.636 41.7704 126.328 41.7704Z" fill="white"/>
<path d="M166.934 49.4682V211.215C166.934 215.782 163.499 219.476 159.295 219.476H83.8258C79.6217 219.476 76.1866 215.782 76.1866 211.215V49.4682C76.1866 40.1288 79.6217 39.7183 83.8258 39.7183H98.9503C99.8219 39.7183 100.54 40.6933 100.54 41.9761V42.4893C100.54 45.4143 102.129 45.4143 104.077 45.4143H139.043C140.991 45.4143 142.581 45.4143 142.581 42.4893V41.9761C142.581 40.7446 143.298 39.7183 144.17 39.7183H159.295C163.499 39.7183 166.934 40.9498 166.934 49.4682Z" fill="white"/>
<path d="M84.2367 54.805L82.6465 53.2655L84.2367 51.7773L84.4931 52.0339L83.1595 53.2655L84.4931 54.5484L84.2367 54.805Z" fill="#DBDBDB"/>
<path d="M156.219 52.7523C156.526 52.7523 156.732 53.0088 156.732 53.2653C156.732 53.573 156.475 53.7782 156.219 53.7782C155.911 53.7782 155.706 53.5217 155.706 53.2653C155.654 53.0088 155.911 52.7523 156.219 52.7523Z" fill="#DBDBDB"/>
<path d="M158.064 52.7523C158.372 52.7523 158.577 53.0088 158.577 53.2653C158.577 53.573 158.321 53.7782 158.064 53.7782C157.757 53.7782 157.551 53.5217 157.551 53.2653C157.551 53.0088 157.757 52.7523 158.064 52.7523Z" fill="#DBDBDB"/>
<path d="M159.961 52.7523C160.269 52.7523 160.474 53.0088 160.474 53.2653C160.474 53.573 160.218 53.7782 159.961 53.7782C159.654 53.7782 159.448 53.5217 159.448 53.2653C159.397 53.0088 159.654 52.7523 159.961 52.7523Z" fill="#DBDBDB"/>
<path d="M96.3356 43.31C96.2843 43.3613 96.233 43.4126 96.1818 43.4639C96.1305 43.5152 96.1305 43.5152 96.0792 43.5665C95.6691 43.2074 95.2076 43.0022 94.6949 43.0022C94.131 43.0022 93.6696 43.2074 93.3107 43.5665C93.2594 43.5152 93.2594 43.5152 93.2081 43.4639C93.1569 43.4126 93.1056 43.3613 93.0543 43.31C93.1056 43.2587 93.1569 43.2074 93.2594 43.1561C93.4132 43.0535 93.5157 42.951 93.6696 42.8997C93.8746 42.7971 94.0284 42.7458 94.2335 42.6945C94.3361 42.6945 94.4386 42.6432 94.5411 42.6432C94.5924 42.6432 94.7975 42.6432 94.7975 42.6432C94.8487 42.6432 94.9513 42.6432 95.0026 42.6432C95.1564 42.6432 95.3614 42.6945 95.5153 42.7458C95.6178 42.7971 95.7716 42.8484 95.8741 42.8997C95.9767 42.951 96.1305 43.0535 96.233 43.1561C96.233 43.2074 96.2843 43.2587 96.3356 43.31Z" fill="#C7C7C7"/>
<path d="M93.7721 44.0284C93.6696 43.9771 93.6183 43.8745 93.5157 43.8232C93.7721 43.5667 94.0797 43.4128 94.4386 43.3615C95.0026 43.3103 95.464 43.4641 95.8741 43.8232C95.7716 43.9258 95.7203 43.9771 95.6178 44.0284C95.3615 43.7719 95.0538 43.618 94.6949 43.618C94.3361 43.618 94.0284 43.7719 93.7721 44.0284Z" fill="#C7C7C7"/>
<path d="M95.4133 44.2338C95.3621 44.2851 95.2595 44.3877 95.2082 44.439C95.0543 44.2851 94.9004 44.2338 94.7465 44.2338C94.5414 44.2338 94.3875 44.2851 94.2849 44.439C94.2336 44.3877 94.131 44.2851 94.0797 44.2338C94.3875 43.8747 95.003 43.8234 95.4133 44.2338Z" fill="#C7C7C7"/>
<path d="M94.9002 44.6958C94.9002 44.7984 94.7976 44.9009 94.695 44.9009C94.5925 44.9009 94.4899 44.7984 94.4899 44.6958C94.4899 44.5932 94.5925 44.4906 94.695 44.4906C94.8489 44.4906 94.9002 44.5932 94.9002 44.6958Z" fill="#C7C7C7"/>
<path d="M82.1339 43.7719C82.1339 43.4641 82.3904 43.1564 82.7494 43.1564C83.0572 43.1564 83.365 43.4128 83.365 43.7719C83.365 44.0797 83.1085 44.3874 82.7494 44.3874C82.3904 44.3874 82.1339 44.0797 82.1339 43.7719Z" fill="#C7C7C7"/>
<path d="M84.0309 43.7719C84.0309 43.4641 84.2874 43.1564 84.6464 43.1564C84.9542 43.1564 85.2619 43.4128 85.2619 43.7719C85.2619 44.0797 85.0055 44.3874 84.6464 44.3874C84.2874 44.3874 84.0309 44.0797 84.0309 43.7719Z" fill="#C7C7C7"/>
<path d="M85.8766 43.7719C85.8766 43.4641 86.1331 43.1564 86.4921 43.1564C86.7999 43.1564 87.1076 43.4128 87.1076 43.7719C87.1076 44.0797 86.8512 44.3874 86.4921 44.3874C86.1843 44.3874 85.8766 44.0797 85.8766 43.7719Z" fill="#C7C7C7"/>
<path d="M87.7736 43.7719C87.7736 43.4641 88.03 43.1564 88.3891 43.1564C88.7481 43.1564 89.0046 43.4128 89.0046 43.7719C89.0046 44.0797 88.7481 44.3874 88.3891 44.3874C88.03 44.3874 87.7736 44.0797 87.7736 43.7719Z" fill="#C7C7C7"/>
<path d="M89.6705 43.7719C89.6705 43.4641 89.927 43.1564 90.2861 43.1564C90.5938 43.1564 90.9016 43.4128 90.9016 43.7719C90.9016 44.0797 90.6451 44.3874 90.2861 44.3874C89.9783 44.3874 89.6705 44.0797 89.6705 43.7719Z" fill="#C7C7C7"/>
<path d="M160.115 45.1053H155.193V42.8484H160.115V45.1053ZM155.449 44.8488H159.859V43.1049H155.449V44.8488Z" fill="#C7C7C7"/>
<path d="M158.782 43.2076H155.603V44.6952H158.782V43.2076Z" fill="#C7C7C7"/>
<path d="M160.525 43.3616H160.115V44.5926H160.525V43.3616Z" fill="#C7C7C7"/>
<path d="M119.15 77.5378C119.15 79.0259 120.33 80.2062 121.816 80.2062C123.303 80.2062 124.482 79.0259 124.482 77.5378C124.482 76.0496 123.303 74.8693 121.816 74.8693C120.381 74.818 119.15 76.0496 119.15 77.5378Z" fill="#FFC727"/>
<path opacity="0.9" d="M106.23 81.0272C106.23 82.464 107.358 83.593 108.794 83.593C110.23 83.593 111.357 82.464 111.357 81.0272C111.357 79.5904 110.23 78.4614 108.794 78.4614C107.41 78.4614 106.23 79.5904 106.23 81.0272Z" fill="#FFC727"/>
<path opacity="0.8" d="M98.2325 89.9048C98.2325 91.239 99.3091 92.3167 100.642 92.3167C101.975 92.3167 103.052 91.239 103.052 89.9048C103.052 88.5706 101.975 87.493 100.642 87.493C99.3091 87.4417 98.2325 88.5706 98.2325 89.9048Z" fill="#FFC727"/>
<path opacity="0.7" d="M97.8736 104.171C99.1478 104.171 100.181 103.137 100.181 101.861C100.181 100.586 99.1478 99.5521 97.8736 99.5521C96.5994 99.5521 95.5665 100.586 95.5665 101.861C95.5665 103.137 96.5994 104.171 97.8736 104.171Z" fill="#FFC727"/>
<path opacity="0.6" d="M98.2838 113.099C98.2838 114.28 99.2579 115.255 100.437 115.255C101.616 115.255 102.59 114.28 102.59 113.099C102.59 111.919 101.616 110.944 100.437 110.944C99.2579 110.944 98.2838 111.919 98.2838 113.099Z" fill="#FFC727"/>
<path opacity="0.5" d="M106.333 122.336C106.333 123.465 107.256 124.389 108.384 124.389C109.512 124.389 110.435 123.465 110.435 122.336C110.435 121.207 109.512 120.284 108.384 120.284C107.256 120.284 106.333 121.207 106.333 122.336Z" fill="#FFC727"/>
<path opacity="0.4" d="M120.022 126.185C120.022 127.211 120.894 128.083 121.919 128.083C122.944 128.083 123.816 127.211 123.816 126.185C123.816 125.158 122.944 124.286 121.919 124.286C120.894 124.286 120.022 125.158 120.022 126.185Z" fill="#FFC727"/>
<path opacity="0.3" d="M133.916 122.028C133.916 123.003 134.685 123.773 135.659 123.773C136.633 123.773 137.402 123.003 137.402 122.028C137.402 121.053 136.633 120.284 135.659 120.284C134.736 120.284 133.916 121.053 133.916 122.028Z" fill="#FFC727"/>
<path opacity="0.2" d="M141.914 112.381C141.914 113.305 142.632 114.023 143.555 114.023C144.478 114.023 145.195 113.305 145.195 112.381C145.195 111.457 144.478 110.739 143.555 110.739C142.632 110.739 141.914 111.457 141.914 112.381Z" fill="#FFC727"/>
<path opacity="0.1" d="M144.529 101.605C144.529 102.426 145.195 103.093 146.016 103.093C146.836 103.093 147.502 102.426 147.502 101.605C147.502 100.784 146.836 100.117 146.016 100.117C145.195 100.117 144.529 100.784 144.529 101.605Z" fill="#FFC727"/>
<path opacity="0.05" d="M142.17 89.135C142.935 89.135 143.555 88.5147 143.555 87.7495C143.555 86.9843 142.935 86.364 142.17 86.364C141.406 86.364 140.786 86.9843 140.786 87.7495C140.786 88.5147 141.406 89.135 142.17 89.135Z" fill="#FFC727"/>
<path opacity="0.01" d="M131.609 79.9496C131.609 80.6167 132.173 81.1812 132.839 81.1812C133.506 81.1812 134.07 80.6167 134.07 79.9496C134.07 79.2825 133.506 78.718 132.839 78.718C132.173 78.718 131.609 79.2825 131.609 79.9496Z" fill="#FFC727"/>
<path d="M121.355 107.609C124.687 107.609 127.354 104.889 127.302 101.554C127.302 98.218 124.585 95.5496 121.252 95.6009C117.92 95.6009 115.305 98.3207 115.305 101.656C115.356 104.94 118.074 107.609 121.355 107.609ZM116.074 101.605C116.074 98.6799 118.381 96.3193 121.304 96.3193C124.226 96.3193 126.584 98.6285 126.584 101.554C126.584 104.479 124.277 106.839 121.355 106.839C118.484 106.89 116.074 104.53 116.074 101.605ZM121.355 107.609C124.687 107.609 127.354 104.889 127.302 101.554C127.302 98.218 124.585 95.5496 121.252 95.6009C117.92 95.6009 115.305 98.3207 115.305 101.656C115.356 104.94 118.074 107.609 121.355 107.609ZM116.074 101.605C116.074 98.6799 118.381 96.3193 121.304 96.3193C124.226 96.3193 126.584 98.6285 126.584 101.554C126.584 104.479 124.277 106.839 121.355 106.839C118.484 106.89 116.074 104.53 116.074 101.605ZM121.355 107.609C124.687 107.609 127.354 104.889 127.302 101.554C127.302 98.218 124.585 95.5496 121.252 95.6009C117.92 95.6009 115.305 98.3207 115.305 101.656C115.356 104.94 118.074 107.609 121.355 107.609ZM116.074 101.605C116.074 98.6799 118.381 96.3193 121.304 96.3193C124.226 96.3193 126.584 98.6285 126.584 101.554C126.584 104.479 124.277 106.839 121.355 106.839C118.484 106.89 116.074 104.53 116.074 101.605ZM121.406 114.228C128.379 114.177 134.019 108.481 133.967 101.502C133.916 94.5233 128.225 88.8786 121.252 88.9299C114.28 88.9812 108.64 94.6773 108.691 101.656C108.743 108.635 114.434 114.28 121.406 114.228ZM114.434 101.656C114.434 97.8075 117.51 94.7286 121.304 94.6772C125.098 94.6772 128.225 97.7562 128.276 101.554C128.276 105.402 125.2 108.481 121.406 108.532C117.561 108.532 114.434 105.454 114.434 101.656ZM115.356 101.605C115.356 104.94 118.074 107.609 121.355 107.557C124.687 107.557 127.354 104.838 127.302 101.502C127.302 98.1667 124.585 95.4983 121.252 95.5496C117.971 95.6009 115.356 98.3206 115.356 101.605ZM116.074 101.605C116.074 98.6799 118.381 96.3193 121.304 96.3193C124.226 96.3193 126.584 98.6285 126.584 101.554C126.584 104.479 124.277 106.839 121.355 106.839C118.484 106.89 116.074 104.53 116.074 101.605ZM121.355 107.609C124.687 107.609 127.354 104.889 127.302 101.554C127.302 98.218 124.585 95.5496 121.252 95.6009C117.92 95.6009 115.305 98.3207 115.305 101.656C115.356 104.94 118.074 107.609 121.355 107.609ZM116.074 101.605C116.074 98.6799 118.381 96.3193 121.304 96.3193C124.226 96.3193 126.584 98.6285 126.584 101.554C126.584 104.479 124.277 106.839 121.355 106.839C118.484 106.89 116.074 104.53 116.074 101.605ZM121.355 107.609C124.687 107.609 127.354 104.889 127.302 101.554C127.302 98.218 124.585 95.5496 121.252 95.6009C117.92 95.6009 115.305 98.3207 115.305 101.656C115.356 104.94 118.074 107.609 121.355 107.609ZM116.074 101.605C116.074 98.6799 118.381 96.3193 121.304 96.3193C124.226 96.3193 126.584 98.6285 126.584 101.554C126.584 104.479 124.277 106.839 121.355 106.839C118.484 106.89 116.074 104.53 116.074 101.605Z" fill="#FFC727"/>
<path d="M118.843 89.4943L123.713 89.443L123.406 86.0049L119.099 86.0562L118.843 89.4943Z" fill="#FFC727"/>
<path d="M128.071 91.0852L131.558 94.472L133.762 91.8549L130.686 88.8273L128.071 91.0852Z" fill="#FFC727"/>
<path d="M133.506 98.7311L133.557 103.606L136.992 103.298L136.941 98.9877L133.506 98.7311Z" fill="#FFC727"/>
<path d="M131.916 108.019L128.533 111.457L131.147 113.664L134.172 110.585L131.916 108.019Z" fill="#FFC727"/>
<path d="M124.277 113.407L119.407 113.459L119.714 116.897L124.021 116.845L124.277 113.407Z" fill="#FFC727"/>
<path d="M115.049 111.868L111.562 108.43L109.358 111.047L112.434 114.126L115.049 111.868Z" fill="#FFC727"/>
<path d="M109.614 104.171L109.563 99.2955L106.128 99.6034L106.179 103.914L109.614 104.171Z" fill="#FFC727"/>
<path d="M111.204 94.9338L114.587 91.4444L111.973 89.2378L108.948 92.3167L111.204 94.9338Z" fill="#FFC727"/>
<path d="M151.655 138.347H91.4137V143.119H151.655V138.347Z" stroke="#FFC727" stroke-width="0.5" stroke-miterlimit="10"/>
<path d="M94.6949 139.27H92.5416V142.247H94.6949V139.27Z" fill="#FFC727"/>
<path d="M97.6686 139.27H95.5153V142.247H97.6686V139.27Z" fill="#FFC727"/>
<path d="M100.693 139.27H98.5402V142.247H100.693V139.27Z" fill="#FFC727"/>
<path d="M103.667 139.27H101.514V142.247H103.667V139.27Z" fill="#FFC727"/>
<path d="M106.692 139.27H104.539V142.247H106.692V139.27Z" fill="#FFC727"/>
<path d="M109.666 139.27H107.512V142.247H109.666V139.27Z" fill="#FFC727"/>
<path d="M112.691 139.27H110.537V142.247H112.691V139.27Z" fill="#FFC727"/>
<path d="M115.664 139.27H113.511V142.247H115.664V139.27Z" fill="#FFC727"/>
<path d="M118.689 139.27H116.536V142.247H118.689V139.27Z" fill="#FFC727"/>
<path d="M121.663 139.27H119.509V142.247H121.663V139.27Z" fill="#FFC727"/>
<path d="M124.636 139.27H122.483V142.247H124.636V139.27Z" fill="#FFC727"/>
<path d="M127.661 139.27H125.508V142.247H127.661V139.27Z" fill="#FFC727"/>
<path d="M144.786 140.04L144.016 141.835C144.016 141.887 143.914 141.938 143.863 141.938H143.811C143.709 141.887 143.709 141.784 143.709 141.733L144.376 140.194H143.606C143.504 140.194 143.452 140.091 143.452 140.04C143.452 139.937 143.504 139.886 143.606 139.886H144.632C144.632 139.886 144.632 139.886 144.683 139.886H144.735C144.786 139.989 144.786 139.989 144.786 140.04Z" fill="#FFC727"/>
<path d="M145.144 140.861C145.144 140.604 145.195 140.348 145.349 140.143C145.452 139.937 145.657 139.784 145.914 139.784C146.17 139.784 146.324 139.937 146.478 140.143C146.632 140.348 146.683 140.604 146.683 140.861C146.683 141.117 146.632 141.374 146.478 141.579C146.375 141.784 146.17 141.938 145.914 141.938C145.657 141.938 145.503 141.784 145.349 141.579C145.247 141.374 145.144 141.117 145.144 140.861ZM146.324 140.861C146.324 140.656 146.273 140.45 146.17 140.348C146.067 140.245 145.965 140.143 145.914 140.143C145.811 140.143 145.708 140.194 145.606 140.348C145.503 140.502 145.452 140.656 145.452 140.861C145.452 141.066 145.503 141.271 145.606 141.374C145.708 141.528 145.811 141.579 145.914 141.579C146.016 141.579 146.119 141.528 146.17 141.374C146.273 141.271 146.324 141.066 146.324 140.861Z" fill="#FFC727"/>
<path d="M147.246 140.348C147.246 140.04 147.451 139.784 147.759 139.784C148.067 139.784 148.272 140.04 148.272 140.297C148.272 140.604 148.067 140.861 147.759 140.861C147.451 140.861 147.246 140.604 147.246 140.348ZM147.964 140.348C147.964 140.194 147.861 140.04 147.708 140.04C147.554 140.04 147.503 140.194 147.503 140.348C147.503 140.502 147.605 140.656 147.759 140.656C147.913 140.656 147.964 140.502 147.964 140.348ZM147.605 141.733L148.989 139.835C148.989 139.784 149.041 139.784 149.092 139.784C149.143 139.784 149.194 139.835 149.194 139.886C149.194 139.937 149.194 139.937 149.143 139.989L147.759 141.887C147.759 141.938 147.708 141.938 147.656 141.938C147.605 141.938 147.554 141.887 147.554 141.835C147.554 141.784 147.605 141.784 147.605 141.733ZM148.528 141.425C148.528 141.117 148.733 140.861 149.041 140.861C149.348 140.861 149.553 141.117 149.553 141.374C149.553 141.681 149.348 141.938 149.041 141.938C148.733 141.938 148.528 141.681 148.528 141.425ZM149.246 141.425C149.246 141.271 149.143 141.117 148.989 141.117C148.836 141.117 148.784 141.271 148.784 141.425C148.784 141.579 148.887 141.733 149.041 141.733C149.194 141.733 149.246 141.579 149.246 141.425Z" fill="#FFC727"/>
<path d="M106.589 148.866C106.589 148.712 106.692 148.61 106.846 148.61C107 148.61 107.102 148.712 107.102 148.866V151.586C107.102 151.74 107 151.842 106.846 151.842C106.692 151.842 106.589 151.74 106.589 151.586V148.866Z" fill="#C7C7C7"/>
<path d="M108.486 151.586C108.486 151.74 108.384 151.843 108.23 151.843C108.076 151.843 107.974 151.74 107.974 151.586V148.918C107.974 148.815 108.025 148.764 108.076 148.712C108.179 148.61 108.332 148.661 108.435 148.764L109.922 150.816V148.918C109.922 148.764 110.024 148.661 110.178 148.661C110.332 148.661 110.435 148.764 110.435 148.918V151.586C110.435 151.74 110.332 151.843 110.178 151.843C110.127 151.843 110.024 151.791 109.973 151.74C109.973 151.74 109.973 151.74 109.973 151.689L108.486 149.636V151.586Z" fill="#C7C7C7"/>
<path d="M111.46 151.022C111.562 150.919 111.716 150.919 111.819 150.97C112.024 151.124 112.383 151.329 112.69 151.329C112.947 151.329 113.152 151.278 113.254 151.175C113.408 151.073 113.459 150.97 113.459 150.868C113.459 150.816 113.459 150.765 113.408 150.714C113.357 150.662 113.357 150.611 113.254 150.56C113.101 150.457 112.896 150.406 112.639 150.354C112.434 150.303 112.229 150.252 112.024 150.149C111.87 150.047 111.716 149.944 111.614 149.79C111.562 149.687 111.511 149.533 111.511 149.431C111.511 149.174 111.665 148.918 111.87 148.764C112.075 148.61 112.383 148.507 112.69 148.507C113.152 148.507 113.459 148.712 113.716 148.866C113.818 148.918 113.87 149.072 113.767 149.174C113.716 149.277 113.562 149.328 113.459 149.225C113.203 149.072 112.998 148.918 112.742 148.918C112.537 148.918 112.332 148.969 112.229 149.072C112.126 149.174 112.075 149.277 112.075 149.379C112.075 149.431 112.075 149.482 112.126 149.533C112.126 149.585 112.178 149.636 112.229 149.636C112.332 149.739 112.537 149.79 112.793 149.841C113.049 149.893 113.254 149.944 113.408 150.047C113.613 150.149 113.767 150.252 113.87 150.406C113.921 150.508 113.972 150.662 113.972 150.816C113.972 151.124 113.818 151.381 113.562 151.535C113.357 151.689 113.049 151.791 112.69 151.791C112.178 151.791 111.768 151.535 111.511 151.329C111.357 151.278 111.357 151.124 111.46 151.022Z" fill="#C7C7C7"/>
<path d="M116.536 149.123H115.818V151.586C115.818 151.74 115.715 151.842 115.562 151.842C115.408 151.842 115.305 151.74 115.305 151.586V149.123H114.587C114.434 149.123 114.331 149.02 114.331 148.866C114.331 148.712 114.434 148.61 114.587 148.61H116.536C116.689 148.61 116.792 148.712 116.792 148.866C116.792 148.969 116.689 149.123 116.536 149.123Z" fill="#C7C7C7"/>
<path d="M118.74 151.073H117.612L117.407 151.689C117.356 151.791 117.253 151.843 117.151 151.843C117.1 151.843 117.1 151.843 117.048 151.843C116.895 151.791 116.843 151.637 116.895 151.535L117.92 148.815C117.971 148.712 118.074 148.661 118.176 148.661C118.279 148.661 118.381 148.712 118.433 148.815L119.458 151.535C119.509 151.689 119.458 151.791 119.304 151.843C119.304 151.843 119.253 151.843 119.202 151.843C119.099 151.843 118.997 151.791 118.945 151.689L118.74 151.073ZM118.586 150.56L118.228 149.585L117.869 150.56H118.586Z" fill="#C7C7C7"/>
<path d="M120.073 151.586V148.866C120.073 148.712 120.176 148.61 120.33 148.61C120.484 148.61 120.586 148.712 120.586 148.866V151.329H121.817C121.971 151.329 122.074 151.432 122.074 151.586C122.074 151.74 121.971 151.842 121.817 151.842H120.33C120.176 151.842 120.073 151.74 120.073 151.586Z" fill="#C7C7C7"/>
<path d="M122.688 151.586V148.866C122.688 148.712 122.791 148.61 122.944 148.61C123.098 148.61 123.201 148.712 123.201 148.866V151.329H124.432C124.586 151.329 124.688 151.432 124.688 151.586C124.688 151.74 124.586 151.842 124.432 151.842H122.944C122.791 151.842 122.688 151.74 122.688 151.586Z" fill="#C7C7C7"/>
<path d="M125.354 148.866C125.354 148.712 125.457 148.61 125.61 148.61C125.764 148.61 125.867 148.712 125.867 148.866V151.586C125.867 151.74 125.764 151.842 125.61 151.842C125.457 151.842 125.354 151.74 125.354 151.586V148.866Z" fill="#C7C7C7"/>
<path d="M127.2 151.586C127.2 151.74 127.097 151.843 126.943 151.843C126.79 151.843 126.687 151.74 126.687 151.586V148.918C126.687 148.815 126.738 148.764 126.79 148.712C126.892 148.61 127.046 148.661 127.148 148.764L128.635 150.816V148.918C128.635 148.764 128.738 148.661 128.892 148.661C129.045 148.661 129.148 148.764 129.148 148.918V151.586C129.148 151.74 129.045 151.843 128.892 151.843C128.84 151.843 128.738 151.791 128.687 151.74C128.687 151.74 128.687 151.74 128.687 151.689L127.2 149.636V151.586Z" fill="#C7C7C7"/>
<path d="M129.917 150.2C129.917 149.277 130.686 148.558 131.609 148.558C132.019 148.558 132.378 148.712 132.686 148.918C132.788 149.02 132.839 149.174 132.737 149.277C132.634 149.379 132.48 149.431 132.378 149.328C132.173 149.174 131.917 149.072 131.66 149.072C131.353 149.072 131.045 149.174 130.84 149.431C130.635 149.636 130.481 149.944 130.481 150.252C130.481 150.56 130.635 150.816 130.84 151.021C131.045 151.227 131.353 151.381 131.66 151.381C131.917 151.381 132.122 151.329 132.275 151.227V150.611H131.609C131.455 150.611 131.353 150.508 131.353 150.354C131.353 150.2 131.455 150.098 131.609 150.098H132.532C132.686 150.098 132.788 150.2 132.788 150.354V151.381C132.788 151.432 132.788 151.432 132.788 151.483C132.788 151.535 132.737 151.586 132.686 151.586C132.378 151.791 132.019 151.945 131.66 151.945C130.686 151.843 129.917 151.124 129.917 150.2Z" fill="#C7C7C7"/>
<path d="M134.019 151.176C134.224 151.176 134.378 151.329 134.378 151.535C134.378 151.74 134.224 151.894 134.019 151.894C133.814 151.894 133.66 151.74 133.66 151.535C133.711 151.329 133.865 151.176 134.019 151.176Z" fill="#C7C7C7"/>
<path d="M135.095 151.176C135.301 151.176 135.454 151.329 135.454 151.535C135.454 151.74 135.301 151.894 135.095 151.894C134.89 151.894 134.736 151.74 134.736 151.535C134.736 151.329 134.89 151.176 135.095 151.176Z" fill="#C7C7C7"/>
<path d="M136.172 151.176C136.377 151.176 136.531 151.329 136.531 151.535C136.531 151.74 136.377 151.894 136.172 151.894C135.967 151.894 135.813 151.74 135.813 151.535C135.813 151.329 135.967 151.176 136.172 151.176Z" fill="#C7C7C7"/>
<path d="M168.235 39.0216C168.221 38.9623 168.233 38.9093 168.219 38.85C168.11 36.9222 166.599 35.3643 164.667 35.2462C164.614 35.2337 164.554 35.2478 164.501 35.2353C164.475 35.2291 164.475 35.2291 164.448 35.2229L79.183 34.4421C79.1564 34.4359 79.1564 34.4359 79.1237 34.4562C79.0644 34.4702 79.0113 34.4577 78.9521 34.4718C77.0233 34.5783 75.4664 36.0868 75.3504 38.0178C75.338 38.0708 75.3521 38.1301 75.3397 38.1831C75.3335 38.2096 75.3335 38.2096 75.3273 38.2362L73.9267 215.404C73.9152 217.247 75.3858 218.74 77.2304 218.753L163.474 219.54C165.319 219.554 166.81 218.086 166.822 216.242L168.249 39.0808C168.255 39.0543 168.235 39.0216 168.235 39.0216Z" fill="white"/>
<path opacity="0.8" d="M169.001 44.8893L74.4569 44.1246L74.2499 72.7387L168.794 73.5034L169.001 44.8893Z" fill="#90D2F5"/>
<path opacity="0.3" d="M170.346 73.5259L74.2283 72.7483L73.1672 219.425L169.285 220.203L170.346 73.5259Z" fill="#90D2F5"/>
<path d="M91.9725 52.1822L91.8655 68.1863L90.2988 68.1821L90.4198 50.9223L93.0444 50.9513L101.265 65.5822L101.374 51.0052L102.941 51.0095L102.82 68.2692L101.114 68.2603L91.9725 52.1822Z" fill="white"/>
<path d="M117.723 67.0102L117.705 68.4046L107.398 68.306L107.519 51.0459L117.469 51.1166L117.45 52.511L109.12 52.4571L109.08 58.4901L115.116 58.5369L115.097 59.9313L109.061 59.8845L109.01 66.9221L117.723 67.0102Z" fill="white"/>
<path d="M133.013 68.527L129.023 53.8829L124.823 68.4777L123.652 68.4546L118.914 51.1453L120.481 51.1495L124.34 65.3991L128.387 51.216L129.842 51.2219L133.668 65.4917L137.748 51.2884L139.315 51.2927L134.275 68.5157L133.013 68.527Z" fill="white"/>
<path d="M140.489 64.4328L141.882 63.8647C142.35 65.0937 142.946 66.0169 143.675 66.6078C144.405 67.1988 145.288 67.4902 146.346 67.5149C147.437 67.5193 148.318 67.2227 148.99 66.6251C149.662 66.0276 149.993 65.2102 150.004 64.2057C150.025 63.3993 149.79 62.7287 149.353 62.2063C148.915 61.6839 148.187 61.2053 147.143 60.7641C146.578 60.5475 145.806 60.2545 144.876 59.924C143.945 59.5936 143.327 59.3645 143.06 59.1899C142.22 58.7128 141.643 58.1858 141.298 57.6291C140.952 57.0723 140.77 56.4142 140.791 55.6078C140.789 54.1806 141.248 53.0575 142.141 52.2322C143.034 51.4068 144.245 51.0197 145.811 51.0239C147.18 51.0376 148.329 51.3914 149.205 52.0727C150.081 52.7541 150.765 53.7818 151.222 55.1761L149.867 55.5851C149.447 54.5074 148.906 53.709 148.217 53.1835C147.555 52.6643 146.718 52.4119 145.713 52.3997C144.761 52.3999 143.972 52.6622 143.366 53.2191C142.76 53.7761 142.453 54.4875 142.44 55.3796C142.424 56.0472 142.624 56.6258 142.995 57.0765C143.392 57.5334 143.973 57.9216 144.771 58.2208C145.077 58.3487 145.542 58.5139 146.14 58.7102C147.848 59.3072 148.945 59.7607 149.426 60.0975C150.201 60.6151 150.771 61.1687 151.131 61.7847C151.491 62.4007 151.66 63.1119 151.66 63.951C151.643 65.4577 151.166 66.6604 150.201 67.5528C149.236 68.4453 147.934 68.8667 146.308 68.8765C144.827 68.8644 143.625 68.4982 142.675 67.7716C141.772 67.084 141.028 65.9581 140.489 64.4328Z" fill="white"/>
<path opacity="0.3" d="M165.378 79.517L77.6225 78.812L77.6125 80.1909L165.368 80.8959L165.378 79.517Z" fill="#90D2F5"/>
<path opacity="0.3" d="M165.361 84.1253L77.6054 83.4204L77.5954 84.7993L165.351 85.5042L165.361 84.1253Z" fill="#90D2F5"/>
<path opacity="0.3" d="M165.316 88.7612L77.5604 88.0563L77.5504 89.4352L165.306 90.1401L165.316 88.7612Z" fill="#90D2F5"/>
<path opacity="0.3" d="M165.298 93.3704L77.5428 92.6654L77.5328 94.0443L165.288 94.7493L165.298 93.3704Z" fill="#90D2F5"/>
<path opacity="0.3" d="M123.229 99.0286L164.859 99.364L164.869 97.9807L123.239 97.6452L123.229 99.0286Z" fill="#90D2F5"/>
<path opacity="0.3" d="M123.178 103.644L164.808 103.98L164.818 102.596L123.188 102.261L123.178 103.644Z" fill="#90D2F5"/>
<path opacity="0.3" d="M123.154 108.26L164.784 108.596L164.794 107.212L123.164 106.877L123.154 108.26Z" fill="#90D2F5"/>
<path opacity="0.3" d="M123.103 112.848L164.733 113.184L164.743 111.801L123.113 111.465L123.103 112.848Z" fill="#90D2F5"/>
<path opacity="0.3" d="M123.079 117.465L164.709 117.8L164.719 116.417L123.089 116.081L123.079 117.465Z" fill="#90D2F5"/>
<path opacity="0.3" d="M123.055 122.081L164.685 122.416L164.695 121.033L123.065 120.697L123.055 122.081Z" fill="#90D2F5"/>
<path opacity="0.3" d="M123.004 126.697L164.634 127.032L164.644 125.649L123.014 125.313L123.004 126.697Z" fill="#90D2F5"/>
<path opacity="0.3" d="M165.024 130.266L77.2684 129.561L77.2583 130.94L165.014 131.645L165.024 130.266Z" fill="#90D2F5"/>
<path opacity="0.3" d="M164.979 134.875L77.2234 134.17L77.2133 135.549L164.969 136.254L164.979 134.875Z" fill="#90D2F5"/>
<path opacity="0.3" d="M130.295 140.72L77.304 140.293L77.294 141.675L130.285 142.102L130.295 140.72Z" fill="#90D2F5"/>
<path opacity="0.3" d="M130.268 145.859L77.2766 145.433L77.2666 146.815L130.258 147.241L130.268 145.859Z" fill="#90D2F5"/>
<path opacity="0.3" d="M130.213 150.998L77.2221 150.571L77.2121 151.953L130.203 152.38L130.213 150.998Z" fill="#90D2F5"/>
<path opacity="0.3" d="M130.185 156.137L77.194 155.711L77.1839 157.093L130.175 157.519L130.185 156.137Z" fill="#90D2F5"/>
<path opacity="0.3" d="M130.158 161.277L77.1668 160.85L77.1568 162.232L130.148 162.659L130.158 161.277Z" fill="#90D2F5"/>
<path opacity="0.3" d="M130.103 166.415L77.112 165.989L77.102 167.371L130.093 167.797L130.103 166.415Z" fill="#90D2F5"/>
<path opacity="0.3" d="M130.076 171.527L77.0851 171.1L77.0751 172.483L130.066 172.909L130.076 171.527Z" fill="#90D2F5"/>
<path opacity="0.3" d="M130.022 176.666L77.0303 176.24L77.0203 177.622L130.011 178.048L130.022 176.666Z" fill="#90D2F5"/>
<path opacity="0.3" d="M164.613 182.092L76.9939 181.388L76.9838 182.767L164.603 183.471L164.613 182.092Z" fill="#90D2F5"/>
<path opacity="0.3" d="M164.593 186.813L76.974 186.109L76.964 187.488L164.583 188.191L164.593 186.813Z" fill="#90D2F5"/>
<path opacity="0.3" d="M164.547 191.561L76.9275 190.857L76.9174 192.236L164.537 192.939L164.547 191.561Z" fill="#90D2F5"/>
<path opacity="0.3" d="M164.527 196.309L76.9078 195.605L76.8978 196.984L164.517 197.688L164.527 196.309Z" fill="#90D2F5"/>
<path opacity="0.3" d="M164.48 201.057L76.8602 200.353L76.8502 201.732L164.469 202.436L164.48 201.057Z" fill="#90D2F5"/>
<path opacity="0.3" d="M164.46 205.805L76.8406 205.101L76.8306 206.48L164.45 207.184L164.46 205.805Z" fill="#90D2F5"/>
<path d="M73.9182 37.1333L80.9249 32.4302L163.968 33.3882L171.211 39.8712C171.211 39.8712 170.457 47.2732 169.983 47.3856C169.536 47.5043 73.1083 47.7662 73.1516 46.2661C73.1949 44.7661 73.9182 37.1333 73.9182 37.1333Z" fill="#075681"/>
<g opacity="0.5">
<g opacity="0.5">
<g opacity="0.5">
<g opacity="0.5">
<g opacity="0.5">
<path opacity="0.5" d="M82.7769 41.1543C82.7651 41.683 82.4676 42.1166 82.0012 42.3147C81.8437 42.3896 81.6659 42.4318 81.4739 42.4147C81.2757 42.4241 81.1227 42.3602 80.9431 42.29C80.484 42.0983 80.1994 41.6399 80.1846 41.105C80.1806 40.4048 80.7666 39.8152 81.4876 39.8447C82.2414 39.8539 82.8055 40.4338 82.7769 41.1543Z" fill="white"/>
</g>
</g>
</g>
</g>
<g opacity="0.5">
<g opacity="0.5">
<g opacity="0.5">
<g opacity="0.5">
<path opacity="0.5" d="M86.7416 41.1901C86.7299 41.7187 86.4324 42.1523 85.9661 42.3505C85.8085 42.4254 85.6307 42.4675 85.4387 42.4504C85.2405 42.4598 85.0813 42.4224 84.908 42.3258C84.4551 42.1075 84.1642 41.6756 84.1494 41.1407C84.1454 40.4405 84.7313 39.8509 85.4524 39.8804C86.2061 39.8896 86.7703 40.4696 86.7416 41.1901Z" fill="white"/>
</g>
</g>
</g>
</g>
<g opacity="0.5">
<g opacity="0.5">
<g opacity="0.5">
<g opacity="0.5">
<path opacity="0.5" d="M90.7094 41.2248C90.6977 41.7535 90.4002 42.1871 89.9338 42.3853C89.7763 42.4602 89.5985 42.5023 89.4065 42.4852C89.2083 42.4946 89.0491 42.4572 88.8757 42.3605C88.4229 42.1423 88.132 41.7104 88.1172 41.1755C88.1131 40.4753 88.6991 39.8857 89.4201 39.9151C90.1739 39.9243 90.7381 40.5044 90.7094 41.2248Z" fill="white"/>
</g>
</g>
</g>
</g>
</g>
<path d="M166.867 214.406C166.845 217.254 164.513 219.559 161.664 219.533L79.0988 218.796C76.249 218.769 73.939 216.436 73.9615 213.589L75.3109 40.1917C75.3282 37.0068 77.9402 34.4595 81.1272 34.4808L162.489 35.2154C165.675 35.2367 168.228 37.8504 168.21 41.0353L166.867 214.406ZM162.694 31.3473L80.9687 30.6113C75.7185 30.5528 71.4265 34.7755 71.3685 40.0488L70.0262 215.21C69.9744 220.456 74.2052 224.751 79.4819 224.816L161.207 225.552C166.457 225.61 170.749 221.388 170.807 216.114L172.149 40.9535C172.201 35.7068 167.97 31.412 162.694 31.3473Z" fill="#053753"/>
<path d="M180.079 71.0461C180.575 71.5102 181.512 72.4101 182.3 73.1753C182.718 73.588 183.106 73.95 183.367 74.2005L184.479 75.2719C184.849 75.6245 185.222 75.9908 185.592 76.3434C186.335 77.0623 187.064 77.7856 187.793 78.5089L189.895 80.5998L192.688 79.6076C193.657 79.2698 194.626 78.932 195.596 78.5942L197.061 78.0991L198.525 77.604C198.622 77.5734 198.732 77.5385 198.842 77.5035C199.94 77.1401 201.947 76.4427 202.833 76.1768L199.34 75.3907L182.675 71.6319L180.079 71.0461Z" fill="white"/>
<path d="M180.079 71.046L176.815 85.4318L199.568 90.5626L202.832 76.1768C201.951 76.4565 199.94 77.1401 198.842 77.5035C198.718 77.5428 198.622 77.5734 198.525 77.604L197.06 78.0991L195.595 78.5942C194.622 78.9182 193.657 79.2698 192.688 79.6075L189.895 80.5997L187.793 78.5088C187.064 77.7855 186.334 77.0622 185.591 76.3433C185.222 75.9908 184.848 75.6244 184.479 75.2718L183.367 74.2004C183.105 73.9499 182.732 73.5835 182.299 73.1752C181.493 72.4006 180.57 71.4963 180.079 71.046Z" fill="#90D2F5"/>
<path d="M202.819 76.1812L193.424 65.0389L180.079 71.0458L191.69 76.1208L202.819 76.1812Z" fill="white"/>
<path d="M185.44 59.4501L182.3 73.1753C182.718 73.588 183.106 73.9499 183.367 74.2004L184.479 75.2719C184.849 75.6245 185.222 75.9908 185.592 76.3434C186.335 77.0623 187.064 77.7856 187.793 78.5089L189.896 80.5999L192.688 79.6077C193.657 79.2699 194.627 78.9321 195.596 78.5943L197.061 78.0992L198.526 77.6041C198.622 77.5735 198.732 77.5386 198.842 77.5036L202.1 63.2411L185.44 59.4501Z" fill="#E1F9FF"/>
<path d="M176.133 73.3739C176.628 73.8379 177.565 74.7379 178.353 75.5031C178.772 75.9158 179.159 76.2778 179.421 76.5283L180.533 77.5998C180.902 77.9524 181.276 78.3187 181.645 78.6713C182.388 79.3902 183.118 80.1135 183.847 80.8368L185.949 82.9278L188.742 81.9356C189.711 81.5978 190.68 81.26 191.649 80.9222L193.114 80.4271L194.579 79.9321C194.676 79.9015 194.786 79.8665 194.896 79.8316C195.994 79.4682 198.001 78.7708 198.886 78.5049L195.394 77.7188L178.728 73.9597L176.133 73.3739Z" fill="#90D2F5"/>
<path d="M198.887 78.5051L189.492 67.3625L176.133 73.3738L187.758 78.4445L198.887 78.5051Z" fill="#90D2F5"/>
<path d="M181.494 61.778L178.354 75.5032C178.772 75.9159 179.16 76.2779 179.421 76.5284L180.534 77.5999C180.903 77.9525 181.277 78.3188 181.646 78.6714C182.389 79.3903 183.118 80.1136 183.847 80.8369L185.95 82.9279L188.742 81.9358C189.712 81.598 190.681 81.2603 191.65 80.9225L193.115 80.4274L194.58 79.9323C194.676 79.9017 194.786 79.8668 194.896 79.8318L198.158 65.583L181.494 61.778Z" fill="#F3FFFE"/>
<path d="M181.709 63.022L197.383 66.6014L197.312 66.9112L181.638 63.3318L181.709 63.022Z" fill="#E1F9FF"/>
<path d="M181.342 64.6244L197.015 68.2039L196.944 68.5137L181.271 64.9342L181.342 64.6244Z" fill="#E1F9FF"/>
<path d="M180.971 66.2409L196.644 69.8203L196.573 70.1301L180.9 66.5507L180.971 66.2409Z" fill="#E1F9FF"/>
<path d="M180.603 67.8433L196.277 71.4227L196.206 71.7325L180.532 68.1531L180.603 67.8433Z" fill="#E1F9FF"/>
<path d="M180.232 69.4597L195.906 73.0392L195.835 73.349L180.161 69.7695L180.232 69.4597Z" fill="#E1F9FF"/>
<path d="M179.864 71.062L195.538 74.6415L195.467 74.9513L179.793 71.3718L179.864 71.062Z" fill="#E1F9FF"/>
<path d="M179.508 72.6819L195.181 76.2614L195.11 76.5711L179.437 72.9917L179.508 72.6819Z" fill="#E1F9FF"/>
<path d="M179.14 74.2842L194.813 77.8636L194.742 78.1734L179.069 74.594L179.14 74.2842Z" fill="#E1F9FF"/>
<path d="M178.763 75.8882C178.921 76.0504 179.07 76.185 179.2 76.3103L194.367 79.7875L194.435 79.4778L178.763 75.8882Z" fill="#E1F9FF"/>
<path d="M181.06 78.1144C181.209 78.249 181.348 78.4018 181.497 78.5365L191.787 80.8786L192.361 80.6813L181.06 78.1144Z" fill="#E1F9FF"/>
<path d="M176.133 73.3737L172.869 87.7597L195.622 92.891L198.886 78.505C198.005 78.7847 195.993 79.4683 194.896 79.8317C194.772 79.871 194.676 79.9016 194.579 79.9322L193.114 80.4272L192.361 80.6813L191.787 80.8786L191.649 80.9223C190.896 81.1764 190.161 81.4399 189.408 81.694C189.215 81.7552 189.027 81.8301 188.834 81.8913C188.793 81.9044 188.765 81.9131 188.724 81.9263L185.931 82.9184L183.829 80.8274C183.802 80.7905 183.761 80.7579 183.739 80.7347C183.59 80.6001 183.451 80.4473 183.302 80.3126C182.748 79.7609 182.181 79.2136 181.627 78.6618C181.582 78.6155 181.537 78.5692 181.492 78.5228C181.344 78.3882 181.204 78.2354 181.055 78.1007C180.88 77.9291 180.704 77.7575 180.529 77.5859L179.416 76.5144C179.353 76.4587 179.286 76.3892 179.2 76.3103C179.069 76.185 178.916 76.0366 178.763 75.8882C178.633 75.7629 178.498 75.6239 178.349 75.4892C177.561 74.724 176.624 73.824 176.133 73.3737Z" fill="white"/>
<path d="M183.32 80.3219C183.469 80.4565 183.608 80.6093 183.757 80.744L188.852 81.9006C189.045 81.8395 189.233 81.7645 189.426 81.7034L183.32 80.3219Z" fill="#E1F9FF"/>
<path d="M176.146 85.2348C175.51 85.9064 174.878 86.5917 174.269 87.3002C174.991 86.7076 175.685 86.078 176.366 85.4528C177.048 84.8275 177.72 84.1748 178.378 83.5264C179.037 82.878 179.691 82.2158 180.341 81.5399C180.945 80.909 181.544 80.2643 182.106 79.6008C182.601 80.1105 183.092 80.6065 183.587 81.1162L185.77 83.318L185.859 83.4107L185.983 83.3713L188.878 82.3167C189.544 82.075 190.21 81.8333 190.872 81.5779C191.097 82.431 191.358 83.2571 191.624 84.0971C191.903 84.9783 192.214 85.8646 192.535 86.7328C192.855 87.6009 193.18 88.4828 193.528 89.3422C193.876 90.2016 194.224 91.061 194.613 91.9073C194.371 90.9992 194.092 90.1179 193.813 89.2367C193.534 88.3554 193.223 87.4692 192.902 86.601C192.582 85.7329 192.257 84.851 191.909 83.9916C191.592 83.1829 191.244 82.3691 190.886 81.5735C191.184 81.4636 191.469 81.3581 191.768 81.2482L193.215 80.698L194.663 80.1478C195.619 79.7687 197.953 78.907 198.909 78.5279C197.931 78.8381 195.58 79.6448 194.606 79.9688L193.141 80.4639L191.676 80.959C190.703 81.2831 189.738 81.6346 188.769 81.9724L185.976 82.9646L183.874 80.8737C183.144 80.1504 182.415 79.4271 181.672 78.7082C181.303 78.3556 180.929 77.9893 180.56 77.6367L179.447 76.5652C178.704 75.8463 176.926 74.1073 176.16 73.4109C176.856 74.1748 178.602 75.9545 179.308 76.7003L180.374 77.8168C180.734 78.1875 181.094 78.5582 181.454 78.9289C181.679 79.1606 181.9 79.3785 182.111 79.6146C181.44 80.176 180.791 80.7606 180.147 81.3589C179.466 81.9841 178.794 82.6369 178.135 83.2853C177.436 83.9011 176.782 84.5633 176.146 85.2348Z" fill="#90D2F5"/>
<path d="M195.541 92.871L195.718 92.9055L198.982 78.4742L196.051 75.0096L195.922 75.1265L198.785 78.5216L195.541 92.871Z" fill="#075681"/>
<path d="M198.082 65.5644L198.251 65.603L194.987 79.8559L194.818 79.8173L198.082 65.5644Z" fill="#075681"/>
<path d="M172.768 87.8222L186.669 90.9435L186.703 90.7658L172.984 87.6929L176.228 73.3891L176.051 73.3545L172.768 87.8222Z" fill="#075681"/>
<path opacity="0.3" d="M119.514 97.6191L77.4976 97.2792L77.2874 126.338L119.304 126.678L119.514 97.6191Z" fill="#90D2F5"/>
<path opacity="0.3" d="M164.15 140.999L134.583 140.76L134.313 178.075L163.88 178.314L164.15 140.999Z" fill="#90D2F5"/>
<path d="M96.3868 17.0834L100.158 15.4223C100.158 15.4223 112.973 19.799 113.19 19.7846C113.407 19.7846 121.137 19.5535 121.137 19.5535L113.465 15.4223L99.7243 11.2622L96.3868 17.0834Z" fill="#1D96B2"/>
<path d="M99.7533 3.59204L121.137 19.5534L99.7244 11.2622L99.7533 3.59204Z" fill="#4CB7D8"/>
<path d="M100.158 15.4222L100.086 23.5546L121.137 19.5534L100.158 15.4222Z" fill="#4CB7D8"/>
<path d="M20.4053 225.48L94.4385 225.788C112.434 211.625 114.28 190.688 101.462 178.013C93.6694 170.316 83.8257 171.907 74.4434 170.675C74.4434 170.675 74.4434 170.675 74.3921 170.675C71.1109 170.265 67.9322 169.495 64.856 167.853C55.166 162.721 49.7315 150.714 41.5796 140.553C40.5542 139.27 39.5288 138.039 38.4009 136.858C31.7359 129.726 18.4058 129.469 11.4331 139.527C-6.25486 165.082 1.84572 203.107 20.4053 225.48Z" fill="url(#paint4_linear_139_6415)"/>
<path opacity="0.5" d="M20.4053 225.48L94.4385 225.788C112.434 211.625 114.28 190.688 101.462 178.013C93.6694 170.316 83.8257 171.907 74.4434 170.675C74.4434 170.675 74.4434 170.675 74.3921 170.675C71.1109 170.265 67.9322 169.495 64.856 167.853C55.166 162.721 49.7315 150.714 41.5796 140.553C40.5542 139.27 39.5288 138.039 38.4009 136.858C31.7359 129.726 18.4058 129.469 11.4331 139.527C-6.25486 165.082 1.84572 203.107 20.4053 225.48Z" fill="white"/>
<path d="M18.7647 167.032C20.7129 197.411 55.7813 208.751 77.6734 199.669C96.6944 191.766 90.4907 173.703 74.3921 170.675C74.3921 170.675 74.3921 170.675 74.3408 170.675C71.0596 170.265 67.8809 169.495 64.8047 167.853C55.1148 162.721 49.6802 150.714 41.5283 140.553C29.48 134.241 17.3291 144.761 18.7647 167.032Z" fill="url(#paint5_linear_139_6415)"/>
<path d="M87.0044 230.253C85.8765 229.842 60.0879 209.213 59.5752 207.776C59.3701 207.263 62.19 203.312 65.6763 198.642C66.4453 197.616 67.2144 196.59 68.0347 195.563C73.2642 188.79 78.9551 181.657 78.9551 181.657L96.2329 195.409L84.8511 208.905L82.3389 211.882C82.3389 211.882 88.6963 224.197 89.0552 225.788C89.4141 227.43 88.1836 230.663 87.0044 230.253Z" fill="#D3766A"/>
<path d="M87.8247 230.56C86.6455 230.15 59.6778 209.316 59.1138 207.879C58.9087 207.315 61.7285 203.209 65.2149 198.334C65.2661 198.283 65.2661 198.232 65.3174 198.18L82.8516 211.42L82.5952 211.728C82.5952 211.728 89.3628 224.3 89.773 225.942C90.2344 227.636 89.0039 230.971 87.8247 230.56Z" fill="#263238"/>
<path d="M88.2861 229.278C83.8257 225.634 65.4712 211.471 60.8057 208.238C60.7544 208.187 60.7544 208.238 60.8057 208.29C65.1636 211.984 83.6206 225.993 88.2349 229.38C88.3374 229.432 88.3887 229.38 88.2861 229.278Z" fill="white"/>
<path d="M84.082 212.908C82.544 211.215 80.1343 209.778 77.7759 209.983C77.6733 209.983 77.6733 210.137 77.7759 210.137C79.9805 210.958 81.8775 211.882 83.877 213.113C84.0308 213.216 84.1846 213.062 84.082 212.908Z" fill="white"/>
<path d="M84.7998 214.704C83.2617 213.011 80.852 211.574 78.4937 211.779C78.3911 211.779 78.3911 211.933 78.4937 211.933C80.6982 212.754 82.5952 213.678 84.5947 214.909C84.7485 215.012 84.9023 214.807 84.7998 214.704Z" fill="white"/>
<path d="M85.4663 216.449C83.9282 214.755 81.5186 213.318 79.1602 213.524C79.0576 213.524 79.0576 213.678 79.1602 213.678C81.3647 214.499 83.2617 215.422 85.2612 216.654C85.4151 216.757 85.5689 216.603 85.4663 216.449Z" fill="white"/>
<path d="M88.9527 229.893C89.3115 230.458 87.9273 231.997 87.4658 231.843C87.0044 231.689 57.6782 208.905 57.2681 208.392C56.8579 207.879 58.396 206.237 59.0625 206.596C59.7803 206.955 88.9527 229.893 88.9527 229.893Z" fill="url(#paint6_linear_139_6415)"/>
<path d="M67.4708 204.697C66.2916 202.234 62.3951 204.082 63.6255 206.545C64.8047 209.059 68.7012 207.161 67.4708 204.697Z" fill="white"/>
<path d="M113.716 168.982C112.537 177.962 90.3882 203.928 87.8247 206.904C87.4658 207.366 87.2607 207.571 87.2607 207.571L68.9575 193.459L69.1626 193.203L85.3125 172.061C85.3125 172.061 58.6523 187.661 45.271 180.579C39.2725 177.398 34.812 171.753 34.812 171.753L52.2437 162.465C52.2437 162.465 57.063 164.004 60.1392 163.594C70.752 162.054 94.541 153.023 100.181 153.228C107.461 153.536 114.792 160.771 113.716 168.982Z" fill="#263238"/>
<path d="M91.0547 164.261C90.4395 164.877 89.9268 165.698 89.4141 166.416C88.8501 167.186 88.2861 167.904 87.6709 168.674C87.7734 168.469 87.876 168.212 87.9785 168.007C88.3374 167.237 88.645 166.467 89.0552 165.8C89.1064 165.749 89.0039 165.698 89.0039 165.749C88.5425 166.467 88.0811 167.135 87.6709 167.853C87.5171 168.212 87.312 168.571 87.1582 168.931C87.0557 169.136 87.0044 169.341 86.9019 169.546C86.8506 169.649 86.7993 169.752 86.7993 169.854C86.543 170.213 86.2866 170.573 86.0303 170.881C85.4663 171.65 85.0049 172.523 84.4409 173.292C84.3897 173.344 84.4922 173.395 84.4922 173.344C85.0562 172.625 85.6714 171.907 86.2354 171.188C86.7993 170.47 87.3633 169.7 87.876 168.931C88.3887 168.161 88.9014 167.442 89.4653 166.673C90.0293 165.852 90.6445 165.082 91.0547 164.261C91.106 164.261 91.0547 164.21 91.0547 164.261Z" fill="#37474F"/>
<path d="M72.5977 190.329C73.6231 191.253 74.6997 192.125 75.7251 192.998C76.8018 193.87 77.8784 194.742 78.9551 195.615C81.1084 197.359 83.2617 199.053 85.4151 200.746C86.5943 201.67 87.8247 202.594 89.0552 203.466C89.1065 203.517 89.1577 203.415 89.1065 203.363C87.0557 201.516 84.9024 199.823 82.749 198.078C80.5957 196.333 78.4424 194.64 76.2378 192.946C75.0586 192.023 73.8794 191.048 72.5977 190.227C72.5977 190.175 72.5464 190.278 72.5977 190.329Z" fill="#37474F"/>
<path d="M43.9893 144.966C47.8857 154.254 60.0879 163.491 64.0356 163.748C68.6499 164.056 80.4419 158.411 84.8511 151.843C85.8765 150.303 75.9302 143.324 74.2895 144.504C70.957 146.916 64.6509 150.252 64.1382 150.303C63.0615 150.406 55.4224 146.3 49.5264 142.401C42.2461 137.526 42.4512 141.272 43.9893 144.966Z" fill="#D3766A"/>
<path d="M83.5693 153.587C83.5693 153.587 87.6709 149.123 88.0298 144.966C88.2861 142.093 87.7734 134.549 80.8008 129.674C79.1602 128.494 75.9815 128.032 77.981 130.906C79.4165 132.958 80.9546 133.831 81.5698 135.165C81.5698 135.165 77.4683 135.011 76.3403 136.756C75.8276 137.526 74.5459 139.629 73.7769 141.426C73.7769 141.426 74.1357 141.682 74.5972 141.99C74.5972 141.99 73.7256 143.683 74.4434 146.506L83.5693 153.587Z" fill="#D3766A"/>
<path d="M72.7002 126.955L68.4448 141.99C68.291 142.452 68.4961 142.811 68.9062 142.811L76.6992 143.068C77.1606 143.068 77.6221 142.76 77.8271 142.298L82.0825 127.262C82.2363 126.801 82.0312 126.441 81.6211 126.441L73.8281 126.185C73.3667 126.185 72.9053 126.493 72.7002 126.955Z" fill="#455A64"/>
<path d="M73.623 126.955L69.3677 141.99C69.2138 142.452 69.4189 142.811 69.8291 142.811L77.622 143.068C78.0835 143.068 78.5449 142.76 78.75 142.298L83.0053 127.262C83.1592 126.801 82.9541 126.441 82.5439 126.441L74.751 126.185C74.2895 126.185 73.8281 126.544 73.623 126.955Z" fill="#37474F"/>
<path d="M75.777 127.724C75.777 128.083 75.4692 128.391 75.0589 128.339C74.6998 128.339 74.3921 128.032 74.4434 127.621C74.4434 127.262 74.7511 126.955 75.1615 127.006C75.5718 127.057 75.777 127.365 75.777 127.724Z" fill="#263238"/>
<path d="M87.4658 140.964C86.5942 139.732 84.646 137.218 82.3389 135.73C79.7754 134.036 74.3921 131.47 73.2129 133.369C72.3413 134.755 74.2895 135.935 74.2895 135.935C74.2895 135.935 71.8286 135.37 71.3159 136.807C70.8032 138.09 72.3926 138.911 72.3926 138.911C72.3926 138.911 70.8545 138.808 70.5981 140.143C70.3418 141.785 73.623 141.733 74.751 143.581C75.0073 143.991 87.4658 140.964 87.4658 140.964Z" fill="#D3766A"/>
<path d="M81.0059 138.706C79.9805 137.731 77.0581 136.037 74.2895 135.884C74.2383 135.884 74.187 135.935 74.2383 135.935C77.2632 136.756 79.9292 138.09 81.0059 138.706Z" fill="#263238"/>
<path d="M79.2627 141.22C78.2886 140.451 75.2124 138.86 72.3926 138.808C72.3413 138.808 72.29 138.86 72.3413 138.86C75.52 139.578 78.0835 140.656 79.2627 141.22C79.2627 141.272 79.2627 141.22 79.2627 141.22Z" fill="#263238"/>
<path d="M74.1872 142.914C74.2384 143.837 74.2384 144.71 74.341 145.582C74.3923 146.044 74.4949 146.454 74.5462 146.865C74.6488 147.276 74.8027 147.686 74.9566 148.148C74.341 147.429 74.0846 146.506 73.9307 145.633C73.8794 145.172 73.8794 144.71 73.8794 144.248C73.982 143.786 74.0333 143.324 74.1872 142.914Z" fill="#263238"/>
<path d="M49.2187 154.511L56.1914 146.249C56.1914 146.249 50.3467 141.477 46.1426 139.732C41.9385 137.987 41.4258 140.707 43.374 144.658C45.3223 148.712 49.2187 154.511 49.2187 154.511Z" fill="#455A64"/>
<path d="M50.398 142.093C50.2441 141.99 50.0903 141.887 49.9365 141.785C50.0903 142.093 50.2954 142.452 50.5518 142.708C50.4492 142.503 50.4492 142.298 50.398 142.093ZM55.4736 145.685C55.0635 145.736 54.6533 145.89 54.2944 146.044C53.7817 146.249 53.3203 146.506 52.9102 146.814C53.4741 146.762 53.9355 146.608 54.4482 146.403C54.8584 146.249 55.2686 146.044 55.6274 145.787C55.5762 145.736 55.5249 145.736 55.4736 145.685ZM46.2964 146.916C46.0913 147.378 45.9375 147.891 45.8862 148.456C46.2451 148.045 46.5015 147.532 46.7065 147.07C46.9116 146.557 47.0654 146.095 47.1167 145.531C46.7065 145.941 46.5015 146.454 46.2964 146.916Z" fill="white"/>
<path d="M54.3457 148.456L49.2187 154.511C49.2187 154.511 45.271 148.712 43.374 144.71C41.9385 141.733 41.8359 139.424 43.6816 139.219L54.3457 148.456Z" fill="#263238"/>
<path d="M54.0894 145.12C52.9102 146.3 49.7827 149.585 48.0396 152.048L48.0908 152.099C49.834 150.303 53.064 146.506 54.1406 145.223C54.1919 145.12 54.1406 145.069 54.0894 145.12Z" fill="#263238"/>
<path d="M26.4551 175.858C27.4805 176.166 56.6016 167.75 56.6016 167.75L53.1665 157.641C53.1665 157.641 54.8584 154.408 54.0894 151.278C53.0127 147.122 45.3223 140.245 44.707 139.835C42.2461 138.193 39.9902 138.244 37.9395 139.322C29.48 143.735 26.4551 175.858 26.4551 175.858Z" fill="#455A64"/>
<path d="M54.2432 152.664C54.0381 152.51 53.7817 152.407 53.5254 152.304C53.064 152.099 52.5513 151.945 51.9873 151.894C52.3975 152.253 52.9102 152.51 53.3716 152.715C53.6792 152.818 53.9356 152.92 54.2432 153.023C54.2432 152.92 54.2432 152.766 54.2432 152.664ZM40.4517 151.227C39.939 151.022 39.4775 150.868 38.9136 150.816C39.3237 151.175 39.8364 151.432 40.2979 151.637C40.8105 151.843 41.272 151.996 41.8359 152.048C41.4258 151.637 40.9644 151.432 40.4517 151.227ZM47.2192 169.495C46.7578 169.29 46.2451 169.136 45.6812 169.085C46.0913 169.444 46.5527 169.649 47.0654 169.906C47.3731 170.06 47.7319 170.162 48.0908 170.214C48.1934 170.162 48.2959 170.162 48.3984 170.111C47.9883 169.854 47.5781 169.649 47.2192 169.495ZM32.4023 168.828C31.8896 168.623 31.4282 168.469 30.8643 168.417C31.2744 168.777 31.7358 169.033 32.2485 169.238C32.7612 169.444 33.2227 169.598 33.7866 169.649C33.3252 169.29 32.8638 169.085 32.4023 168.828ZM40.1953 162.875C39.9902 163.389 39.8364 163.85 39.7852 164.415C40.144 164.004 40.4004 163.542 40.6055 163.029C40.8105 162.567 40.9644 162.054 41.0156 161.49C40.6567 161.9 40.4517 162.414 40.1953 162.875ZM46.2964 146.916C46.0913 147.378 45.9375 147.891 45.8862 148.456C46.2451 148.045 46.5015 147.532 46.7065 147.07C46.9116 146.557 47.0654 146.095 47.1167 145.531C46.7065 145.941 46.5015 146.454 46.2964 146.916ZM51.5772 162.003C51.1157 162.208 50.603 162.465 50.1929 162.773C50.7568 162.721 51.2695 162.567 51.731 162.362C52.1924 162.157 52.7051 161.9 53.1152 161.592C52.5513 161.644 52.0386 161.798 51.5772 162.003ZM32.5049 159.591C31.9922 159.796 31.5308 160.053 31.1206 160.361C31.6846 160.31 32.1973 160.156 32.6587 159.95C33.1714 159.745 33.6328 159.489 34.043 159.181C33.479 159.232 33.0176 159.386 32.5049 159.591ZM37.5806 142.708C37.1191 142.914 36.6064 143.17 36.1963 143.478C36.7603 143.427 37.2729 143.273 37.7344 143.068C38.1958 142.862 38.7085 142.606 39.1187 142.298C38.606 142.349 38.0933 142.554 37.5806 142.708ZM39.2212 172.163C39.2212 172.317 39.2725 172.471 39.2725 172.625C39.3237 172.625 39.4263 172.574 39.4775 172.574C39.4263 172.471 39.3237 172.317 39.2212 172.163ZM32.7612 151.329C32.5562 150.868 32.2998 150.354 31.9922 149.944C32.0435 150.508 32.1973 150.97 32.4023 151.483C32.6074 151.945 32.8125 152.458 33.1714 152.869C33.1201 152.304 32.9663 151.791 32.7612 151.329ZM46.6553 156.564C46.4502 156.102 46.1938 155.589 45.8862 155.178C45.9375 155.743 46.0913 156.256 46.2964 156.718C46.5015 157.231 46.7578 157.693 47.0654 158.103C47.0142 157.59 46.8604 157.077 46.6553 156.564Z" fill="white"/>
<path d="M44.4507 157.744C45.6811 157.539 46.9629 157.333 48.2446 157.333C48.8599 157.333 49.5264 157.333 50.1416 157.385C50.4492 157.385 50.7568 157.385 51.0644 157.385C51.3721 157.385 51.731 157.385 52.0386 157.282C52.0898 157.282 52.0898 157.333 52.0386 157.333C51.731 157.436 51.4233 157.539 51.1157 157.59C50.8081 157.641 50.5005 157.641 50.1929 157.692C49.5264 157.692 48.9111 157.692 48.2446 157.692C46.9629 157.744 45.6299 157.744 44.3481 157.846C44.3994 157.846 44.3481 157.744 44.4507 157.744Z" fill="#263238"/>
<path d="M41.7334 159.693C42.7075 159.334 43.7329 158.975 44.707 158.719C45.2197 158.565 45.7324 158.462 46.2451 158.36C46.5015 158.308 46.7578 158.257 46.9629 158.257C47.2192 158.206 47.5269 158.206 47.7832 158.155C47.8345 158.155 47.8345 158.206 47.7832 158.206C47.5269 158.257 47.2705 158.36 47.0142 158.411C46.7578 158.462 46.5015 158.514 46.2451 158.616C45.7324 158.77 45.2197 158.873 44.707 159.027C43.6816 159.283 42.6562 159.539 41.6821 159.796C41.6821 159.796 41.6821 159.693 41.7334 159.693Z" fill="#263238"/>
<path d="M39.6314 139.681C39.7852 140.194 42.5024 143.427 44.9121 143.17C45.6812 143.068 45.3735 138.808 45.3735 138.808L45.4248 138.5L46.1426 133.985L39.939 130.598C39.939 130.598 39.5801 139.476 39.6314 139.681Z" fill="#D3766A"/>
<path d="M46.1426 133.985L45.4249 138.5C44.1431 138.09 41.3233 136.91 39.7852 133.625C39.8365 132.086 39.8878 130.803 39.8878 130.649L40.6568 131.06L46.1426 133.985Z" fill="#263238"/>
<path d="M37.0679 126.39C37.273 126.544 37.4268 126.852 37.3242 127.108C37.2217 127.468 36.9141 127.724 36.5039 127.673C36.5039 127.776 36.5039 127.878 36.5039 127.981C36.4014 128.391 36.0425 128.648 35.6323 128.597C35.6323 128.699 35.6323 128.751 35.6323 128.853C35.5298 129.212 35.1709 129.469 34.7608 129.366C34.607 129.315 34.4531 129.212 34.3506 129.11C34.2481 129.469 33.8892 129.674 33.5303 129.572C33.4278 129.572 33.3252 129.52 33.2739 129.418V129.469C33.1714 129.828 32.8125 130.085 32.4024 129.982C32.1973 129.931 31.9922 129.777 31.8897 129.572C31.7359 129.88 31.4282 130.033 31.0694 129.982C30.813 129.931 30.6079 129.726 30.5567 129.469C30.4028 129.52 30.1978 129.572 30.044 129.52C29.8389 129.469 29.6338 129.315 29.5313 129.161C29.3775 129.264 29.1724 129.315 28.9673 129.264C28.6084 129.161 28.4033 128.905 28.3521 128.545C28.2495 128.545 28.147 128.545 28.0957 128.545C27.7368 128.443 27.5318 128.135 27.5318 127.776C27.4292 127.776 27.3267 127.827 27.1729 127.776C26.7627 127.673 26.5064 127.262 26.6089 126.852C26.6089 126.749 26.6602 126.698 26.7114 126.595C26.6602 126.595 26.6089 126.595 26.6089 126.595C26.25 126.493 25.9937 126.134 26.0962 125.723C26.1475 125.569 26.1987 125.466 26.3013 125.364C25.9424 125.261 25.686 124.851 25.7886 124.44C25.8399 124.286 25.8911 124.184 25.9937 124.081C25.7373 123.927 25.5835 123.568 25.686 123.26C25.7373 123.003 25.8911 122.849 26.0962 122.747C25.9937 122.593 25.9424 122.387 25.9937 122.182C26.0449 121.977 26.1475 121.823 26.3526 121.72C26.1987 121.515 26.1475 121.31 26.1987 121.053C26.3013 120.694 26.5576 120.489 26.9165 120.437C26.8652 120.335 26.8652 120.232 26.9165 120.078C27.0191 119.719 27.3267 119.514 27.6856 119.514C27.6856 119.411 27.6856 119.309 27.6856 119.155C27.7881 118.744 28.1983 118.487 28.6084 118.59C28.6597 118.59 28.711 118.641 28.7622 118.641C28.7622 118.59 28.7622 118.539 28.7622 118.539C28.8648 118.128 29.2749 117.872 29.6851 117.974C29.7363 117.974 29.7876 118.026 29.8902 118.026C29.8902 117.974 29.8902 117.872 29.8902 117.82C29.9927 117.41 30.4028 117.153 30.813 117.256C31.0181 117.307 31.2232 117.461 31.3257 117.615C31.5308 117.41 31.7871 117.307 32.0435 117.41C32.2486 117.461 32.4024 117.564 32.5049 117.718C32.6587 117.461 32.9663 117.307 33.2739 117.359C33.5303 117.41 33.7354 117.615 33.7866 117.82C33.9404 117.718 34.1455 117.666 34.3506 117.718C34.6582 117.769 34.8633 118.026 34.9146 118.334C35.0684 118.231 35.3247 118.18 35.5298 118.231C35.8887 118.334 36.145 118.641 36.145 119.001C36.2476 119.001 36.2988 119.001 36.4014 119.001C36.7603 119.103 37.0166 119.462 36.9141 119.873C36.9141 119.976 36.8628 120.027 36.8115 120.13H36.8628C37.273 120.232 37.5293 120.643 37.4268 121.053C37.4268 121.105 37.3755 121.207 37.3242 121.259C37.3755 121.259 37.4268 121.259 37.5293 121.259C37.8882 121.361 38.1445 121.72 38.042 122.131C37.9907 122.336 37.8882 122.49 37.7344 122.593C37.9395 122.747 37.9907 123.003 37.9395 123.26C37.8882 123.465 37.7857 123.619 37.6319 123.722C37.9395 123.876 38.0933 124.235 37.9907 124.594C37.9395 124.902 37.6319 125.159 37.3242 125.21C37.478 125.364 37.5806 125.62 37.5293 125.877C37.5806 126.134 37.3242 126.339 37.0679 126.39Z" fill="#263238"/>
<path d="M48.5523 118.693C48.7573 118.847 48.9111 119.155 48.8086 119.411C48.7061 119.77 48.3985 120.027 47.9883 119.976C47.9883 120.078 47.9883 120.181 47.9883 120.284C47.8858 120.694 47.5269 120.951 47.1167 120.899C47.1167 121.002 47.1167 121.053 47.1167 121.156C47.0142 121.515 46.6553 121.772 46.2451 121.669C46.0913 121.618 45.9375 121.515 45.835 121.412C45.7324 121.772 45.3736 121.977 45.0147 121.874C44.9121 121.874 44.8096 121.823 44.7583 121.772V121.823C44.6558 122.182 44.2969 122.439 43.8867 122.336C43.6817 122.285 43.4766 122.131 43.374 121.926C43.2202 122.234 42.9126 122.387 42.5537 122.336C42.2974 122.285 42.0923 122.08 42.041 121.823C41.8872 121.874 41.6821 121.926 41.5283 121.874C41.3233 121.823 41.1182 121.669 41.0156 121.515C40.8618 121.618 40.6568 121.669 40.4517 121.618C40.0928 121.515 39.8877 121.259 39.8364 120.899C39.7339 120.899 39.6314 120.899 39.5801 120.899C39.2212 120.797 39.0161 120.489 39.0161 120.13C38.9136 120.13 38.8111 120.181 38.6572 120.13C38.2471 120.027 37.9907 119.616 38.0933 119.206C38.0933 119.103 38.1445 119.052 38.1958 118.949C38.1445 118.949 38.0933 118.949 38.0933 118.949C37.7344 118.847 37.478 118.487 37.5806 118.077C37.6319 117.923 37.6831 117.82 37.7857 117.718C37.4268 117.615 37.1704 117.205 37.273 116.794C37.3242 116.64 37.3755 116.537 37.478 116.435C37.2217 116.281 37.0679 115.922 37.1704 115.614C37.2217 115.357 37.3755 115.203 37.5806 115.101C37.478 114.947 37.4268 114.741 37.478 114.536C37.5293 114.331 37.6319 114.177 37.8369 114.074C37.6831 113.869 37.6319 113.664 37.6831 113.407C37.7857 113.048 38.042 112.843 38.4009 112.791C38.3496 112.689 38.3496 112.586 38.4009 112.432C38.5034 112.073 38.8111 111.868 39.1699 111.868C39.1699 111.765 39.1699 111.663 39.1699 111.509C39.2725 111.098 39.6826 110.841 40.0928 110.944C40.1441 110.944 40.1953 110.995 40.2466 110.995C40.2466 110.944 40.2466 110.893 40.2466 110.893C40.3491 110.482 40.7593 110.226 41.1695 110.328C41.2207 110.328 41.272 110.38 41.3745 110.38C41.3745 110.328 41.3745 110.226 41.3745 110.174C41.4771 109.764 41.8872 109.507 42.2974 109.61C42.5025 109.661 42.7075 109.815 42.8101 109.969C43.0152 109.764 43.2715 109.661 43.5278 109.764C43.7329 109.815 43.8867 109.918 43.9893 110.072C44.1431 109.815 44.4507 109.661 44.7583 109.713C45.0147 109.764 45.2197 109.969 45.271 110.174C45.4248 110.072 45.6299 110.02 45.835 110.072C46.1426 110.123 46.3477 110.38 46.3989 110.688C46.5528 110.585 46.8091 110.534 47.0142 110.585C47.3731 110.688 47.6294 110.995 47.6294 111.355C47.732 111.355 47.7832 111.355 47.8858 111.355C48.2446 111.457 48.501 111.816 48.3985 112.227C48.3985 112.33 48.3472 112.381 48.2959 112.484H48.3472C48.7573 112.586 49.0137 112.997 48.9112 113.407C48.9112 113.459 48.8599 113.561 48.8086 113.613C48.8599 113.613 48.9111 113.613 49.0137 113.613C49.3726 113.715 49.6289 114.074 49.5264 114.485C49.4751 114.69 49.3726 114.844 49.2188 114.947C49.4238 115.101 49.4751 115.357 49.4238 115.614C49.3726 115.819 49.27 115.973 49.1162 116.076C49.4238 116.23 49.5777 116.589 49.4751 116.948C49.4238 117.256 49.1162 117.512 48.8086 117.564C48.9624 117.718 49.065 117.974 49.0137 118.231C49.065 118.436 48.8086 118.641 48.5523 118.693Z" fill="#263238"/>
<path d="M51.2695 125.928C53.6792 133.523 49.4238 135.832 47.7832 136.345C46.2964 136.807 41.1694 138.244 37.9907 130.906C34.812 123.568 37.5806 120.078 40.9131 118.795C44.2456 117.564 48.8599 118.282 51.2695 125.928Z" fill="#D3766A"/>
<path d="M49.8859 125.107C49.6807 125.107 49.5268 125.107 49.3216 125.107C49.1165 125.107 48.9626 125.158 48.7574 125.004C48.6548 124.953 48.6035 124.748 48.6548 124.645C48.7574 124.389 49.0139 124.337 49.2704 124.337C49.5268 124.337 49.7833 124.389 49.9885 124.543C50.2962 124.696 50.1424 125.056 49.8859 125.107Z" fill="#263238"/>
<path d="M44.7586 127.005C44.9125 126.954 45.0663 126.851 45.2715 126.749C45.4767 126.646 45.6306 126.595 45.7332 126.39C45.7845 126.287 45.7332 126.133 45.6306 126.031C45.4254 125.877 45.1689 125.928 44.9125 126.031C44.656 126.133 44.5021 126.287 44.3482 126.544C44.2456 126.851 44.5021 127.108 44.7586 127.005Z" fill="#263238"/>
<path d="M46.1427 127.878L46.0914 127.929C46.2453 128.442 46.3479 129.058 45.9375 129.366V129.417C46.5017 129.161 46.3479 128.34 46.1427 127.878Z" fill="#263238"/>
<path d="M45.5276 127.468C44.6556 127.621 45.0659 129.365 45.8354 129.212C46.6048 129.058 46.2457 127.314 45.5276 127.468Z" fill="#263238"/>
<path d="M45.2202 127.622C45.1176 127.775 44.9637 127.981 44.8099 128.032C44.6047 128.083 44.3995 127.981 44.2456 127.827C44.2456 127.827 44.1943 127.827 44.2456 127.878C44.2969 128.186 44.5021 128.494 44.8612 128.494C45.1689 128.442 45.3741 128.134 45.3741 127.775C45.3228 127.673 45.2715 127.57 45.2202 127.622Z" fill="#263238"/>
<path d="M49.2188 127.057C49.2188 127.006 49.27 127.057 49.2188 127.057C49.3726 127.621 49.5778 128.237 50.0907 128.288V128.339C49.4752 128.339 49.2188 127.57 49.2188 127.057Z" fill="#263238"/>
<path d="M49.5779 126.39C50.3986 126.134 50.8602 127.826 50.0908 128.083C49.3214 128.288 48.8598 126.595 49.5779 126.39Z" fill="#263238"/>
<path d="M49.9365 126.39C50.0904 126.441 50.2443 126.595 50.4495 126.544C50.6547 126.493 50.7059 126.287 50.8085 126.082C50.8085 126.082 50.8085 126.082 50.8598 126.082C50.9624 126.39 50.9111 126.749 50.6547 126.903C50.3982 127.057 50.0904 126.8 49.9365 126.493C49.8852 126.493 49.8852 126.39 49.9365 126.39Z" fill="#263238"/>
<path d="M47.0142 132.394C47.1681 132.497 47.322 132.65 47.5271 132.65C47.7323 132.65 47.9375 132.497 48.0914 132.445H48.1427C48.0401 132.65 47.7836 132.856 47.5271 132.856C47.2194 132.856 47.0655 132.65 47.0142 132.394C46.9629 132.394 47.0142 132.394 47.0142 132.394Z" fill="#263238"/>
<path d="M48.8599 129.828C48.8599 129.828 49.1162 130.598 49.2187 130.957C49.2187 131.008 49.1162 131.008 49.0137 131.06C48.3984 131.316 47.6807 131.214 47.168 130.752C47.1167 130.701 47.168 130.649 47.2192 130.701C47.7832 130.957 48.3472 130.957 48.9624 130.803C48.9624 130.701 48.4497 129.52 48.501 129.469C48.706 129.418 49.1162 129.469 49.3726 129.469C48.8599 127.827 48.0395 126.339 47.5781 124.697C47.5781 124.645 47.6294 124.594 47.6807 124.645C48.6035 126.185 49.27 128.032 49.834 129.726C49.834 129.982 49.0137 129.879 48.8599 129.828Z" fill="#263238"/>
<path d="M48.9633 130.957C48.9633 130.957 48.7581 131.573 48.2965 131.88C48.1426 131.983 47.9374 132.085 47.7322 132.085C47.2706 132.085 47.168 131.726 47.1167 131.367C47.1167 131.06 47.168 130.803 47.168 130.803C47.168 130.803 47.9374 131.213 48.9633 130.957Z" fill="#263238"/>
<path d="M48.2965 131.881C48.1426 131.983 47.9374 132.086 47.7322 132.086C47.2706 132.086 47.168 131.727 47.1167 131.368C47.5783 131.265 48.1426 131.47 48.2965 131.881Z" fill="#FF9CBD"/>
<path d="M43.9893 119.924C43.9893 119.924 44.5532 121.053 44.3482 121.977C43.8867 123.927 41.6821 123.927 41.0669 124.799C40.5542 125.62 41.0669 126.903 40.6055 127.724C39.939 128.802 39.2212 128.289 39.2212 128.956C39.2212 129.623 39.2725 131.624 38.5034 132.086C37.7857 132.497 31.2744 120.335 41.5796 118.487C41.5796 118.487 42.8613 117.512 45.271 118.231C48.6548 119.206 50.0903 123.106 50.0903 123.106C50.0903 123.106 49.4238 123.106 49.0137 122.901C48.4497 122.593 48.0908 122.285 47.6807 122.131C47.0142 121.823 46.7578 122.182 46.04 121.926C45.0659 121.361 43.9893 119.924 43.9893 119.924Z" fill="#263238"/>
<path d="M43.8354 119.514C44.0918 119.976 44.3481 120.489 44.502 121.002C44.6558 121.515 44.7583 122.08 44.6045 122.593C44.4507 123.106 44.0918 123.465 43.6304 123.773C43.1689 124.081 42.6563 124.235 42.1948 124.543C41.9897 124.697 41.7334 124.902 41.6309 125.21C41.5283 125.518 41.5283 125.774 41.5283 126.082C41.5283 126.647 41.5283 127.16 41.272 127.622C41.0156 128.083 40.5542 128.391 40.0415 128.494C39.5288 128.597 38.9136 128.597 38.4521 128.956C38.9136 128.648 39.4775 128.699 40.0415 128.648C40.6055 128.597 41.1182 128.237 41.4258 127.724C41.7334 127.211 41.7334 126.595 41.7334 126.082C41.7334 125.826 41.7334 125.569 41.8359 125.312C41.9385 125.107 42.1436 124.902 42.3486 124.748C42.7588 124.44 43.3228 124.286 43.7842 123.927C44.0405 123.773 44.2456 123.568 44.3994 123.362C44.5532 123.157 44.7583 122.901 44.8096 122.593C44.9121 122.028 44.8096 121.464 44.6045 120.951C44.3994 120.437 44.1431 119.976 43.8354 119.514Z" fill="#263238"/>
<path d="M44.1431 119.924C44.3481 120.386 44.6045 120.797 44.9634 121.207C45.271 121.618 45.7324 121.926 46.2451 122.08C46.5015 122.182 46.7578 122.182 47.0142 122.182C47.2192 122.234 47.4756 122.285 47.6294 122.439C47.7832 122.593 47.9883 122.798 48.1934 122.952C48.3984 123.106 48.6548 123.157 48.9111 123.209C48.6548 123.106 48.4497 123.055 48.2446 122.849C48.0395 122.695 47.8857 122.49 47.7319 122.285C47.5269 122.08 47.2705 121.977 47.0142 121.926C46.7578 121.874 46.5015 121.874 46.2964 121.823C45.835 121.669 45.4248 121.412 45.1172 121.053C44.707 120.745 44.3994 120.335 44.1431 119.924Z" fill="#263238"/>
<path d="M39.375 131.111C39.375 131.111 37.1192 129.058 36.1451 129.931C35.1709 130.803 37.273 134.036 38.6573 134.19C40.0415 134.395 40.2466 133.061 40.2466 133.061L39.375 131.111Z" fill="#D3766A"/>
<path d="M36.7603 130.854C37.7344 131.06 38.4009 131.778 38.9649 132.599C38.606 132.343 38.1959 132.24 37.837 132.65C37.837 132.65 37.837 132.702 37.8882 132.702C38.2471 132.548 38.5035 132.548 38.8624 132.804C39.0675 132.958 39.2725 133.215 39.4263 133.42C39.4776 133.472 39.6314 133.42 39.5801 133.318C39.3238 132.086 38.0421 130.7 36.7603 130.854Z" fill="#263238"/>
<path d="M36.0425 146.301C38.042 158.514 43.6304 167.442 45.9888 167.802C52.2437 168.828 62.8565 158.565 65.9839 156.204C67.2656 155.229 56.8579 146.506 55.6275 147.686C52.7051 150.508 48.8599 154.254 48.6548 154.254C48.1934 154.254 46.7066 151.227 41.272 144.043C36.709 138.09 35.2222 141.323 36.0425 146.301Z" fill="#D3766A"/>
<path d="M71.7261 135.935C72.5977 137.269 69.1626 139.116 69.1626 139.116C69.1626 139.116 70.2393 139.065 71.0083 139.783C71.8799 140.604 71.0083 142.349 71.0083 142.349C71.0083 142.349 72.1362 142.554 72.854 143.375C73.623 144.248 72.9565 146.147 72.9565 146.147C72.9565 146.147 73.8794 146.916 73.9819 148.097C74.3921 151.432 67.1118 156.204 64.7534 157.128L55.2173 148.507C55.2173 148.507 58.7549 140.604 61.626 138.552C63.2666 137.372 70.4443 133.933 71.7261 135.935Z" fill="#D3766A"/>
<path d="M69.1113 139.116C67.0605 139.732 65.1636 140.861 63.3179 141.939C63.2666 141.939 63.3179 142.041 63.3691 141.99C65.1636 140.861 67.3169 140.245 69.1626 139.219C69.2139 139.168 69.1626 139.065 69.1113 139.116Z" fill="#263238"/>
<path d="M70.9058 142.247C70.4443 142.401 70.0342 142.708 69.624 142.965C69.2139 143.273 68.7524 143.529 68.3423 143.837C67.522 144.453 66.6504 145.069 65.8813 145.736C65.8301 145.787 65.8813 145.839 65.9326 145.787C66.7529 145.172 67.6245 144.607 68.4961 144.043C68.9063 143.735 69.3677 143.478 69.7778 143.222C70.188 142.965 70.6494 142.708 70.957 142.401C71.0083 142.349 70.957 142.247 70.9058 142.247Z" fill="#263238"/>
<path d="M72.9565 146.146C72.5464 146.249 72.1875 146.608 71.8286 146.865C71.4697 147.173 71.0596 147.429 70.7007 147.686C69.9316 148.25 69.1626 148.815 68.3936 149.328C68.3423 149.379 68.3936 149.431 68.4448 149.379C69.2651 148.866 70.0342 148.302 70.8545 147.789C71.2646 147.532 71.6235 147.275 72.0337 146.968C72.29 146.814 72.7515 146.557 72.9565 146.146C73.0078 146.198 72.9565 146.146 72.9565 146.146Z" fill="#263238"/>
<path d="M73.6743 146.968C74.0332 147.481 74.187 148.096 74.1357 148.712C74.0845 149.328 73.7768 149.944 73.4692 150.457C72.8027 151.483 71.9311 152.356 71.0083 153.228C70.0854 154.049 69.1113 154.819 68.0859 155.486C67.0605 156.153 65.9839 156.717 64.856 157.231H64.9072C64.1894 157.846 59.4727 161.9 58.7036 162.208C59.3701 161.541 64.0356 157.692 64.7534 157.077C65.8301 156.564 66.8555 155.948 67.8808 155.229C68.855 154.562 69.8291 153.792 70.7519 153.023C71.6235 152.202 72.4951 151.381 73.2129 150.406C73.5718 149.944 73.8794 149.379 73.9819 148.815C74.0332 148.148 73.9307 147.532 73.6743 146.968Z" fill="#263238"/>
<path d="M37.6318 156.615L47.0654 151.329C47.0654 151.329 43.2202 144.812 39.8877 141.733C36.5552 138.654 35.1196 140.964 35.5811 145.377C35.9912 149.79 37.6318 156.615 37.6318 156.615Z" fill="#455A64"/>
<path d="M37.5806 142.708C37.1191 142.914 36.6064 143.17 36.1963 143.478C36.7603 143.427 37.2729 143.273 37.7344 143.068C38.1958 142.862 38.7085 142.606 39.1187 142.298C38.606 142.349 38.0933 142.554 37.5806 142.708ZM40.4517 151.227C39.939 151.022 39.4775 150.868 38.9136 150.816C39.3237 151.175 39.8364 151.432 40.2979 151.637C40.8105 151.843 41.272 151.996 41.8359 152.048C41.4258 151.637 40.9644 151.432 40.4517 151.227Z" fill="white"/>
<path d="M45.4248 149.482C43.8867 150.149 39.8364 152.15 37.3242 153.844C37.3242 153.844 37.3242 153.895 37.3755 153.895C39.6313 152.818 43.9893 150.406 45.4761 149.585C45.5273 149.585 45.4761 149.482 45.4248 149.482Z" fill="#263238"/>
<path d="M38.5547 156.102C38.2471 156.307 37.9907 156.512 37.6831 156.666L37.5806 156.718L37.5293 156.615C37.1704 155.178 36.8115 153.741 36.5039 152.304C36.3501 151.586 36.1963 150.868 36.0937 150.149C35.9912 149.431 35.8374 148.712 35.7861 147.943C35.9912 148.661 36.1963 149.379 36.3501 150.098C36.5552 150.816 36.709 151.535 36.8628 152.253C37.1704 153.69 37.4268 155.127 37.6831 156.564L37.5806 156.512C37.8882 156.358 38.1958 156.204 38.5547 156.102Z" fill="#263238"/>
<path d="M36.3505 150.713C36.1453 150.457 35.9914 150.2 35.8888 149.944C35.735 149.687 35.6324 149.379 35.5298 149.123C35.735 149.379 35.8888 149.636 35.9914 149.892C36.094 150.149 36.2479 150.405 36.3505 150.713Z" fill="#263238"/>
<path d="M46.6553 151.586C46.7578 151.483 46.8603 151.381 46.9629 151.278V151.381C46.2964 150.406 45.6812 149.379 45.0146 148.404L43.0664 145.428C43.938 146.249 44.6558 147.224 45.3223 148.199C45.9888 149.174 46.604 150.252 47.1167 151.329L47.168 151.381L47.1167 151.432C46.9629 151.432 46.8091 151.535 46.6553 151.586Z" fill="#263238"/>
<path d="M44.8099 147.531C44.656 147.275 44.5534 146.967 44.3995 146.711C44.2969 146.403 44.1944 146.146 44.1431 145.839C44.2969 146.095 44.3995 146.403 44.5534 146.659C44.656 146.967 44.7586 147.224 44.8099 147.531Z" fill="#263238"/>
<path d="M153.911 206.853C153.501 207.982 132.788 233.742 131.404 234.204C130.891 234.409 126.943 231.587 122.329 228.097C121.304 227.328 120.278 226.558 119.253 225.737C112.485 220.503 105.41 214.755 105.41 214.755L119.202 197.513L132.686 208.957L135.659 211.471C135.659 211.471 147.964 205.159 149.604 204.8C151.091 204.441 154.321 205.724 153.911 206.853Z" fill="#D3766A"/>
<path d="M153.809 206.391C153.347 207.571 131.404 233.639 129.917 234.101C129.353 234.307 125.405 231.33 120.688 227.584C120.637 227.533 120.586 227.482 120.535 227.482L134.531 210.496L134.788 210.753C134.788 210.753 147.656 204.544 149.297 204.184C150.989 203.825 154.27 205.262 153.809 206.391Z" fill="#263238"/>
<path d="M152.527 205.826C148.733 210.137 133.762 227.841 130.327 232.408C130.276 232.459 130.327 232.459 130.378 232.408C134.224 228.2 149.041 210.394 152.629 205.878C152.681 205.826 152.629 205.775 152.527 205.826Z" fill="white"/>
<path d="M136.018 209.367C134.224 210.804 132.737 213.165 132.839 215.525C132.839 215.628 132.993 215.628 132.993 215.525C133.916 213.37 134.89 211.471 136.223 209.572C136.326 209.419 136.172 209.265 136.018 209.367Z" fill="white"/>
<path d="M137.813 208.751C136.018 210.188 134.531 212.549 134.634 214.909C134.634 215.012 134.788 215.012 134.788 214.909C135.71 212.754 136.685 210.855 138.018 208.957C138.12 208.803 137.966 208.649 137.813 208.751Z" fill="white"/>
<path d="M139.607 208.136C137.813 209.572 136.326 211.933 136.428 214.293C136.428 214.396 136.582 214.396 136.582 214.293C137.505 212.138 138.479 210.24 139.812 208.341C139.915 208.187 139.761 208.033 139.607 208.136Z" fill="white"/>
<path d="M153.193 205.211C153.757 204.903 155.244 206.34 155.09 206.75C154.937 207.212 130.891 235.487 130.378 235.897C129.866 236.308 128.276 234.666 128.687 233.999C129.045 233.383 153.193 205.211 153.193 205.211Z" fill="url(#paint7_linear_139_6415)"/>
<path d="M127.046 225.583C124.534 226.661 126.226 230.612 128.738 229.534C131.301 228.457 129.609 224.505 127.046 225.583Z" fill="white"/>
<path d="M131.865 206.34L117.51 225.737L69.0601 192.074L64.3945 188.841C64.3945 188.841 63.0615 189.713 61.062 190.842C58.2935 192.382 54.2432 194.332 50.6543 194.845C44.6558 195.717 34.6069 195.615 29.5313 188.841C25.2759 183.145 27.583 175.653 27.583 175.653L34.1968 172.831C34.1968 172.831 49.834 159.796 59.9341 159.386C64.2407 159.232 70.4956 162.465 76.2891 165.903C82.1338 169.341 131.865 206.34 131.865 206.34Z" fill="#263238"/>
<path d="M64.3945 188.841C64.3945 188.841 63.0615 189.713 61.062 190.842C57.5244 186.634 50.0903 178.988 49.8853 178.681L64.3945 188.841Z" fill="#37474F"/>
<path d="M39.939 168.469C39.0161 169.136 38.0933 169.803 37.1704 170.47C36.2476 171.137 35.3247 171.753 34.4531 172.471C33.5816 173.19 32.7612 173.96 31.9409 174.781C31.5308 175.14 31.1719 175.55 30.7617 175.91C30.4028 176.32 29.9414 176.679 29.6338 177.141C29.5825 177.192 29.6851 177.244 29.6851 177.192C30.1465 176.885 30.5567 176.525 30.9155 176.166C31.377 175.807 31.7871 175.448 32.1973 175.037C33.0176 174.319 33.8892 173.652 34.7095 172.933C35.5298 172.215 36.2988 171.445 37.1192 170.727C38.0933 169.957 39.0674 169.238 39.939 168.469C39.9902 168.52 39.939 168.469 39.939 168.469Z" fill="#37474F"/>
<path d="M126.943 204.39C126.072 205.467 125.303 206.596 124.482 207.674C123.662 208.803 122.893 209.932 122.073 211.061C120.483 213.319 118.894 215.576 117.305 217.834C116.433 219.066 115.613 220.349 114.844 221.632C114.792 221.683 114.895 221.734 114.946 221.683C116.689 219.528 118.228 217.27 119.817 215.012C121.406 212.754 122.996 210.496 124.534 208.238C125.405 207.007 126.277 205.724 127.046 204.441C127.097 204.39 126.995 204.338 126.943 204.39Z" fill="#37474F"/>
<path d="M88.7475 205.878C86.3379 203.979 83.8257 202.183 81.3647 200.387C78.9038 198.591 76.3916 196.846 73.8794 195.101C73.1616 194.588 72.4438 194.126 71.6748 193.613C70.957 193.151 70.188 192.69 69.4702 192.176C69.4189 192.125 69.3677 192.228 69.4189 192.228C70.0854 192.69 70.7007 193.203 71.3159 193.716C71.9312 194.178 72.5464 194.64 73.1616 195.101C74.3921 195.974 75.5713 196.898 76.8018 197.77C79.2627 199.566 81.7749 201.311 84.2871 203.055C85.7226 204.03 87.1582 205.005 88.5937 205.98C88.7475 206.083 88.8501 205.929 88.7475 205.878Z" fill="#37474F"/>
<path d="M104.231 185.865C102.026 184.017 99.6167 182.375 97.2583 180.63C94.8999 178.886 92.5415 177.141 90.1831 175.448C87.8247 173.754 85.4663 172.061 83.1079 170.367C80.852 168.725 78.5449 167.032 76.1352 165.595C74.8022 164.774 73.4692 164.056 72.085 163.388C70.752 162.721 69.3164 162.106 67.8809 161.695C67.8296 161.695 67.8296 161.746 67.8296 161.746C69.0088 162.413 70.2393 162.978 71.4697 163.594C72.6489 164.21 73.8281 164.877 74.956 165.595C77.3657 167.032 79.6216 168.674 81.8774 170.316C86.5942 173.703 91.311 177.09 96.0278 180.477C98.6938 182.324 101.257 184.325 104.026 186.019C104.231 186.07 104.333 185.916 104.231 185.865Z" fill="#37474F"/>
<path d="M9.68991 105.813C10.3564 112.073 15.9448 116.64 22.2509 115.973C24.7632 115.716 27.019 114.639 28.7622 112.997L34.4531 113.818L31.582 108.891C32.2998 107.198 32.5561 105.299 32.351 103.401C31.6845 97.1402 26.0962 92.5732 19.79 93.2403C13.5864 93.9074 9.02341 99.5007 9.68991 105.813Z" fill="white"/>
<path d="M13.125 96.3706C14.3555 95.139 15.8936 94.2153 17.5342 93.6508C19.1748 93.0864 20.9692 92.9324 22.7124 93.189C24.4556 93.4456 26.1475 94.0614 27.583 95.0364C29.0185 96.0113 30.3003 97.3456 31.1719 98.8337C32.9663 101.861 33.2739 105.761 31.8896 109.045V108.84L34.7095 113.818L34.9145 114.177L34.5044 114.126L28.8135 113.253L28.9673 113.202C27.3779 114.639 25.4297 115.614 23.3276 115.973C22.8149 116.076 22.3022 116.127 21.7383 116.127C21.2256 116.178 20.6616 116.127 20.1489 116.076C19.1235 115.973 18.0469 115.768 17.0728 115.357C16.0986 114.947 15.1758 114.485 14.3042 113.818C13.8428 113.51 13.4839 113.151 13.0737 112.792C12.7148 112.381 12.356 112.022 12.0483 111.611C10.7666 109.969 9.99756 107.917 9.74121 105.813C9.33106 102.374 10.5615 98.7311 13.125 96.3706ZM12.0483 111.56C12.356 111.97 12.7148 112.33 13.0737 112.74C13.4839 113.099 13.8428 113.459 14.3042 113.767C15.1245 114.382 16.0986 114.895 17.0728 115.255C18.0469 115.665 19.0723 115.819 20.1489 115.922C20.6616 115.922 21.1743 115.973 21.687 115.922C22.1997 115.922 22.7124 115.819 23.2251 115.717C25.2759 115.306 27.1728 114.331 28.7109 112.894L28.7622 112.843H28.8647L34.6069 113.664L34.4018 113.972L31.5308 109.045L31.4795 108.943L31.5308 108.84C32.146 107.249 32.4536 105.556 32.3511 103.863C32.1973 102.169 31.7871 100.476 30.9155 99.039C30.0439 97.5508 28.916 96.2679 27.4805 95.2929C26.0962 94.3179 24.4556 93.7022 22.7637 93.4456C21.0718 93.189 19.3286 93.2916 17.688 93.8048C16.0474 94.3179 14.5605 95.2416 13.2788 96.4219C10.7666 98.7824 9.48486 102.374 9.79248 105.813C9.94629 107.865 10.7153 109.918 12.0483 111.56Z" fill="#075681"/>
<path d="M19.4553 107.901C19.4553 108.464 19.0072 108.912 18.4434 108.912C17.8797 108.912 17.4316 108.464 17.4316 107.901C17.4316 107.338 17.8797 106.89 18.4434 106.89C19.0072 106.89 19.4553 107.338 19.4553 107.901Z" fill="url(#paint8_linear_139_6415)"/>
<path d="M21.9549 104.29C21.9549 104.853 21.5068 105.3 20.9431 105.3C20.3793 105.3 19.9312 104.853 19.9312 104.29C19.9312 103.727 20.3793 103.279 20.9431 103.279C21.5068 103.279 21.9549 103.727 21.9549 104.29Z" fill="url(#paint9_linear_139_6415)"/>
<path d="M24.7434 100.563C24.7434 101.126 24.2953 101.574 23.7316 101.574C23.1678 101.574 22.7197 101.126 22.7197 100.563C22.7197 99.9997 23.1678 99.5521 23.7316 99.5521C24.2953 99.5521 24.7434 99.9997 24.7434 100.563Z" fill="url(#paint10_linear_139_6415)"/>
</g>
</svg>
