<svg width="284" height="101" viewBox="0 0 284 101" fill="none" xmlns="http://www.w3.org/2000/svg">
<path d="M121.697 51.0513C122.118 50.8427 122.291 50.3328 122.082 49.9126L118.688 43.0636C118.479 42.6433 117.969 42.4717 117.548 42.6804C117.127 42.889 116.955 43.3988 117.163 43.8191L120.181 49.9071L114.084 52.9293C113.663 53.1379 113.49 53.6478 113.699 54.0681C113.907 54.4884 114.417 54.6599 114.838 54.4513L121.697 51.0513ZM67.7376 33.1646L121.048 51.0956L121.592 49.4851L68.282 31.5541L67.7376 33.1646Z" fill="#152F82"/>
<path d="M227.688 31.5991C228.109 31.8077 228.281 32.3175 228.073 32.7378L224.678 39.5868C224.47 40.0071 223.959 40.1787 223.539 39.97C223.118 39.7614 222.945 39.2515 223.154 38.8313L226.171 32.7433L220.074 29.7211C219.653 29.5125 219.481 29.0026 219.689 28.5823C219.897 28.162 220.407 27.9905 220.828 28.1991L227.688 31.5991ZM173.728 49.4858L227.038 31.5548L227.583 33.1653L174.272 51.0962L173.728 49.4858Z" fill="#152F82"/>
<path d="M224.529 70.9189L229.431 63.249H230.75V73.2021H229.431V65.5254L224.529 73.2021H223.217V63.249H224.529V70.9189ZM237.976 69.0117V70.0371H234.065V69.0117H237.976ZM234.332 65.8057V73.2021H233.067V65.8057H234.332ZM239.001 65.8057V73.2021H237.729V65.8057H239.001ZM244.053 65.8057V73.2021H242.781V65.8057H244.053ZM246.534 65.8057V66.8311H240.348V65.8057H246.534ZM250.301 73.3389C249.786 73.3389 249.319 73.2523 248.899 73.0791C248.485 72.9014 248.127 72.653 247.826 72.334C247.53 72.015 247.302 71.6367 247.143 71.1992C246.983 70.7617 246.903 70.2832 246.903 69.7637V69.4766C246.903 68.875 246.992 68.3395 247.17 67.8701C247.348 67.3962 247.589 66.9951 247.895 66.667C248.2 66.3389 248.546 66.0905 248.934 65.9219C249.321 65.7533 249.722 65.6689 250.137 65.6689C250.665 65.6689 251.121 65.7601 251.504 65.9424C251.891 66.1247 252.208 66.3799 252.454 66.708C252.7 67.0316 252.882 67.4144 253.001 67.8564C253.119 68.2939 253.179 68.7725 253.179 69.292V69.8594H247.655V68.8271H251.914V68.7314C251.896 68.4033 251.827 68.0843 251.709 67.7744C251.595 67.4645 251.413 67.2093 251.162 67.0088C250.911 66.8083 250.57 66.708 250.137 66.708C249.85 66.708 249.585 66.7695 249.344 66.8926C249.102 67.0111 248.895 67.1888 248.722 67.4258C248.549 67.6628 248.414 67.9521 248.318 68.2939C248.223 68.6357 248.175 69.0299 248.175 69.4766V69.7637C248.175 70.1146 248.223 70.445 248.318 70.7549C248.419 71.0602 248.562 71.3291 248.749 71.5615C248.94 71.7939 249.171 71.9762 249.439 72.1084C249.713 72.2406 250.023 72.3066 250.369 72.3066C250.816 72.3066 251.194 72.2155 251.504 72.0332C251.814 71.8509 252.085 71.6071 252.317 71.3018L253.083 71.9102C252.924 72.1517 252.721 72.3818 252.475 72.6006C252.229 72.8193 251.925 72.9971 251.565 73.1338C251.21 73.2705 250.788 73.3389 250.301 73.3389ZM255.92 67.2275V76.0459H254.648V65.8057H255.811L255.92 67.2275ZM260.903 69.4424V69.5859C260.903 70.1237 260.84 70.6227 260.712 71.083C260.584 71.5387 260.397 71.9352 260.151 72.2725C259.91 72.6097 259.611 72.8717 259.256 73.0586C258.9 73.2454 258.493 73.3389 258.032 73.3389C257.563 73.3389 257.148 73.2614 256.788 73.1064C256.428 72.9515 256.123 72.7259 255.872 72.4297C255.621 72.1335 255.421 71.778 255.271 71.3633C255.125 70.9486 255.024 70.4814 254.97 69.9619V69.1963C255.024 68.6494 255.127 68.1595 255.277 67.7266C255.428 67.2936 255.626 66.9245 255.872 66.6191C256.123 66.3092 256.426 66.0745 256.781 65.915C257.137 65.751 257.547 65.6689 258.012 65.6689C258.477 65.6689 258.889 65.7601 259.249 65.9424C259.609 66.1201 259.912 66.3753 260.158 66.708C260.404 67.0407 260.589 67.4395 260.712 67.9043C260.84 68.3646 260.903 68.8773 260.903 69.4424ZM259.632 69.5859V69.4424C259.632 69.0732 259.593 68.7269 259.516 68.4033C259.438 68.0752 259.317 67.7881 259.153 67.542C258.994 67.2913 258.789 67.0954 258.538 66.9541C258.287 66.8083 257.989 66.7354 257.643 66.7354C257.324 66.7354 257.046 66.79 256.809 66.8994C256.576 67.0088 256.378 67.1569 256.214 67.3438C256.05 67.526 255.915 67.7357 255.811 67.9727C255.71 68.2051 255.635 68.4466 255.585 68.6973V70.4678C255.676 70.7868 255.804 71.0876 255.968 71.3701C256.132 71.6481 256.351 71.8737 256.624 72.0469C256.897 72.2155 257.242 72.2998 257.656 72.2998C257.998 72.2998 258.292 72.2292 258.538 72.0879C258.789 71.9421 258.994 71.7438 259.153 71.4932C259.317 71.2425 259.438 70.9554 259.516 70.6318C259.593 70.3037 259.632 69.9551 259.632 69.5859ZM267.534 69.0117V70.0371H263.624V69.0117H267.534ZM263.891 65.8057V73.2021H262.626V65.8057H263.891ZM268.56 65.8057V73.2021H267.288V65.8057H268.56ZM273.666 73.3389C273.151 73.3389 272.684 73.2523 272.265 73.0791C271.85 72.9014 271.492 72.653 271.191 72.334C270.895 72.015 270.667 71.6367 270.508 71.1992C270.348 70.7617 270.269 70.2832 270.269 69.7637V69.4766C270.269 68.875 270.357 68.3395 270.535 67.8701C270.713 67.3962 270.954 66.9951 271.26 66.667C271.565 66.3389 271.911 66.0905 272.299 65.9219C272.686 65.7533 273.087 65.6689 273.502 65.6689C274.031 65.6689 274.486 65.7601 274.869 65.9424C275.257 66.1247 275.573 66.3799 275.819 66.708C276.065 67.0316 276.248 67.4144 276.366 67.8564C276.485 68.2939 276.544 68.7725 276.544 69.292V69.8594H271.021V68.8271H275.279V68.7314C275.261 68.4033 275.193 68.0843 275.074 67.7744C274.96 67.4645 274.778 67.2093 274.527 67.0088C274.277 66.8083 273.935 66.708 273.502 66.708C273.215 66.708 272.951 66.7695 272.709 66.8926C272.467 67.0111 272.26 67.1888 272.087 67.4258C271.914 67.6628 271.779 67.9521 271.684 68.2939C271.588 68.6357 271.54 69.0299 271.54 69.4766V69.7637C271.54 70.1146 271.588 70.445 271.684 70.7549C271.784 71.0602 271.927 71.3291 272.114 71.5615C272.306 71.7939 272.536 71.9762 272.805 72.1084C273.078 72.2406 273.388 72.3066 273.734 72.3066C274.181 72.3066 274.559 72.2155 274.869 72.0332C275.179 71.8509 275.45 71.6071 275.683 71.3018L276.448 71.9102C276.289 72.1517 276.086 72.3818 275.84 72.6006C275.594 72.8193 275.291 72.9971 274.931 73.1338C274.575 73.2705 274.154 73.3389 273.666 73.3389ZM280.953 65.8057V73.2021H279.682V65.8057H280.953ZM283.435 65.8057V66.8311H277.248V65.8057H283.435Z" fill="#152F82"/>
<g clip-path="url(#clip0_139_3773)">
<path d="M253 5.63086C242.328 5.63086 233.645 14.2919 233.645 24.9368C233.645 35.5818 242.328 44.2428 253 44.2428C263.672 44.2428 272.355 35.5818 272.355 24.9368C272.355 14.2919 263.672 5.63086 253 5.63086ZM253 42.634C243.217 42.634 235.258 34.6952 235.258 24.9368C235.258 15.1784 243.217 7.23972 253 7.23972C262.783 7.23972 270.742 15.1784 270.742 24.9368C270.742 34.6952 262.783 42.634 253 42.634Z" fill="#152F82"/>
<path d="M274.642 12.4677L273.247 13.2736C275.301 16.8114 276.388 20.8447 276.388 24.9368C276.388 37.7994 265.896 48.2648 253 48.2648C240.105 48.2648 229.613 37.7994 229.613 24.9368C229.613 12.0742 240.105 1.60886 253 1.60886C256.675 1.60886 260.308 2.48644 263.564 4.13229C263.515 4.35595 263.484 4.58755 263.484 4.82658C263.484 6.60116 264.931 8.0443 266.71 8.0443C268.489 8.0443 269.936 6.60116 269.936 4.82658C269.936 3.052 268.489 1.60886 266.71 1.60886C265.75 1.60886 264.896 2.0376 264.305 2.70368C260.821 0.940416 256.931 0 253 0C239.215 0 228 11.1862 228 24.9368C228 38.6875 239.215 49.8737 253 49.8737C266.786 49.8737 278 38.6875 278 24.9368C278 20.5625 276.84 16.2499 274.642 12.4677ZM266.71 3.21772C267.6 3.21772 268.323 3.93921 268.323 4.82658C268.323 5.71395 267.6 6.43544 266.71 6.43544C265.82 6.43544 265.097 5.71395 265.097 4.82658C265.097 3.93921 265.821 3.21772 266.71 3.21772Z" fill="#152F82"/>
<path d="M240.563 26.6756L242.121 20.627H242.937L242.846 22.186L241.181 28.4275H240.332L240.563 26.6756ZM239.397 20.627L240.66 26.6274L240.772 28.4275H239.87L238.06 20.627H239.397ZM244.704 26.6113L245.95 20.627H247.293L245.483 28.4275H244.581L244.704 26.6113ZM243.254 20.627L244.795 26.6917L245.021 28.4275H244.172L242.534 22.186L242.448 20.627H243.254Z" fill="#152F82"/>
<path d="M251.682 26.6756L253.24 20.627H254.056L253.965 22.186L252.3 28.4275H251.451L251.682 26.6756ZM250.517 20.627L251.779 26.6274L251.892 28.4275H250.99L249.18 20.627H250.517ZM255.824 26.6113L257.07 20.627H258.412L256.602 28.4275H255.7L255.824 26.6113ZM254.373 20.627L255.915 26.6917L256.14 28.4275H255.292L253.654 22.186L253.568 20.627H254.373Z" fill="#152F82"/>
<path d="M262.802 26.6756L264.36 20.627H265.176L265.085 22.186L263.42 28.4275H262.571L262.802 26.6756ZM261.636 20.627L262.899 26.6274L263.011 28.4275H262.109L260.299 20.627H261.636ZM266.943 26.6113L268.189 20.627H269.532L267.722 28.4275H266.819L266.943 26.6113ZM265.493 20.627L267.034 26.6917L267.26 28.4275H266.411L264.773 22.186L264.687 20.627H265.493Z" fill="#152F82"/>
</g>
<path d="M2.53613 62.8936V72.8467H1.2168V62.8936H2.53613ZM8.66797 62.8936L4.34766 68.3691H2.00977L1.80469 67.2754H3.56152L7.03418 62.8936H8.66797ZM7.3418 72.8467L3.60254 68.1982L4.34082 67.043L8.95508 72.8467H7.3418ZM9.43359 69.2305V69.0732C9.43359 68.54 9.51107 68.0456 9.66602 67.5898C9.82096 67.1296 10.0443 66.7308 10.3359 66.3936C10.6276 66.0518 10.9808 65.7874 11.3955 65.6006C11.8102 65.4092 12.2751 65.3135 12.79 65.3135C13.3096 65.3135 13.7767 65.4092 14.1914 65.6006C14.6107 65.7874 14.9661 66.0518 15.2578 66.3936C15.554 66.7308 15.7796 67.1296 15.9346 67.5898C16.0895 68.0456 16.167 68.54 16.167 69.0732V69.2305C16.167 69.7637 16.0895 70.2581 15.9346 70.7139C15.7796 71.1696 15.554 71.5684 15.2578 71.9102C14.9661 72.2474 14.613 72.5117 14.1982 72.7031C13.7881 72.89 13.3232 72.9834 12.8037 72.9834C12.2842 72.9834 11.8171 72.89 11.4023 72.7031C10.9876 72.5117 10.6322 72.2474 10.3359 71.9102C10.0443 71.5684 9.82096 71.1696 9.66602 70.7139C9.51107 70.2581 9.43359 69.7637 9.43359 69.2305ZM10.6982 69.0732V69.2305C10.6982 69.5996 10.7415 69.9482 10.8281 70.2764C10.9147 70.5999 11.0446 70.887 11.2178 71.1377C11.3955 71.3883 11.6165 71.5866 11.8809 71.7324C12.1452 71.8737 12.4528 71.9443 12.8037 71.9443C13.1501 71.9443 13.4531 71.8737 13.7129 71.7324C13.9772 71.5866 14.196 71.3883 14.3691 71.1377C14.5423 70.887 14.6722 70.5999 14.7588 70.2764C14.8499 69.9482 14.8955 69.5996 14.8955 69.2305V69.0732C14.8955 68.7087 14.8499 68.3646 14.7588 68.041C14.6722 67.7129 14.54 67.4235 14.3623 67.1729C14.1891 66.9176 13.9704 66.7171 13.7061 66.5713C13.4463 66.4255 13.141 66.3525 12.79 66.3525C12.4437 66.3525 12.1383 66.4255 11.874 66.5713C11.6143 66.7171 11.3955 66.9176 11.2178 67.1729C11.0446 67.4235 10.9147 67.7129 10.8281 68.041C10.7415 68.3646 10.6982 68.7087 10.6982 69.0732ZM22.0049 71.165L24.5205 65.4502H25.7373L22.4424 72.8467H21.5674L18.2861 65.4502H19.5029L22.0049 71.165ZM19.1338 65.4502V72.8467H17.8691V65.4502H19.1338ZM24.835 72.8467V65.4502H26.1064V72.8467H24.835ZM33.0723 65.4502V66.4961H29.333V65.4502H33.0723ZM29.5176 65.4502V72.8467H28.2529V65.4502H29.5176ZM34.1934 65.4502V72.8467H32.9219V65.4502H34.1934ZM37.2627 67.9932H39.4844C40.0814 67.9932 40.585 68.098 40.9951 68.3076C41.4053 68.5127 41.7152 68.7975 41.9248 69.1621C42.139 69.5221 42.2461 69.9323 42.2461 70.3926C42.2461 70.7344 42.1868 71.0557 42.0684 71.3564C41.9499 71.6527 41.7721 71.9124 41.5352 72.1357C41.3027 72.359 41.0133 72.5345 40.667 72.6621C40.3252 72.7852 39.931 72.8467 39.4844 72.8467H36.3398V65.4502H37.6045V71.8076H39.4844C39.849 71.8076 40.1406 71.7415 40.3594 71.6094C40.5781 71.4772 40.7354 71.3063 40.8311 71.0967C40.9268 70.887 40.9746 70.6683 40.9746 70.4404C40.9746 70.2171 40.9268 69.9984 40.8311 69.7842C40.7354 69.57 40.5781 69.3923 40.3594 69.251C40.1406 69.1051 39.849 69.0322 39.4844 69.0322H37.2627V67.9932ZM48.0361 68.5879V69.6201H44.1055V68.5879H48.0361ZM45.2061 65.4502V72.8467H43.9414V65.4502H45.2061ZM46.9561 69.2305V69.0732C46.9561 68.54 47.0335 68.0456 47.1885 67.5898C47.3434 67.1296 47.5667 66.7308 47.8584 66.3936C48.1546 66.0518 48.5078 65.7874 48.918 65.6006C49.3327 65.4092 49.7975 65.3135 50.3125 65.3135C50.8366 65.3135 51.306 65.4092 51.7207 65.6006C52.1354 65.7874 52.4886 66.0518 52.7803 66.3936C53.0765 66.7308 53.3021 67.1296 53.457 67.5898C53.612 68.0456 53.6895 68.54 53.6895 69.0732V69.2305C53.6895 69.7637 53.612 70.2581 53.457 70.7139C53.3021 71.1696 53.0788 71.5684 52.7871 71.9102C52.4954 72.2474 52.1423 72.5117 51.7275 72.7031C51.3128 72.89 50.8457 72.9834 50.3262 72.9834C49.8066 72.9834 49.3395 72.89 48.9248 72.7031C48.5101 72.5117 48.1546 72.2474 47.8584 71.9102C47.5667 71.5684 47.3434 71.1696 47.1885 70.7139C47.0335 70.2581 46.9561 69.7637 46.9561 69.2305ZM48.2275 69.0732V69.2305C48.2275 69.5996 48.2708 69.9482 48.3574 70.2764C48.444 70.5999 48.5739 70.887 48.7471 71.1377C48.9248 71.3883 49.1436 71.5866 49.4033 71.7324C49.6676 71.8737 49.9753 71.9443 50.3262 71.9443C50.6771 71.9443 50.9824 71.8737 51.2422 71.7324C51.5065 71.5866 51.7253 71.3883 51.8984 71.1377C52.0716 70.887 52.2015 70.5999 52.2881 70.2764C52.3792 69.9482 52.4248 69.5996 52.4248 69.2305V69.0732C52.4248 68.7087 52.3792 68.3646 52.2881 68.041C52.2015 67.7129 52.0693 67.4235 51.8916 67.1729C51.7184 66.9176 51.4997 66.7171 51.2354 66.5713C50.971 66.4255 50.6634 66.3525 50.3125 66.3525C49.9661 66.3525 49.6631 66.4255 49.4033 66.5713C49.1436 66.7171 48.9248 66.9176 48.7471 67.1729C48.5739 67.4235 48.444 67.7129 48.3574 68.041C48.2708 68.3646 48.2275 68.7087 48.2275 69.0732ZM58.2695 65.4502V72.8467H56.998V65.4502H58.2695ZM60.751 65.4502V66.4756H54.5645V65.4502H60.751ZM64.5176 72.9834C64.0026 72.9834 63.5355 72.8968 63.1162 72.7236C62.7015 72.5459 62.3438 72.2975 62.043 71.9785C61.7467 71.6595 61.5189 71.2812 61.3594 70.8438C61.1999 70.4062 61.1201 69.9277 61.1201 69.4082V69.1211C61.1201 68.5195 61.209 67.984 61.3867 67.5146C61.5645 67.0407 61.806 66.6396 62.1113 66.3115C62.4167 65.9834 62.763 65.735 63.1504 65.5664C63.5378 65.3978 63.9388 65.3135 64.3535 65.3135C64.8822 65.3135 65.3379 65.4046 65.7207 65.5869C66.1081 65.7692 66.4248 66.0244 66.6709 66.3525C66.917 66.6761 67.0993 67.0589 67.2178 67.501C67.3363 67.9385 67.3955 68.417 67.3955 68.9365V69.5039H61.8721V68.4717H66.1309V68.376C66.1126 68.0479 66.0443 67.7288 65.9258 67.4189C65.8118 67.109 65.6296 66.8538 65.3789 66.6533C65.1283 66.4528 64.7865 66.3525 64.3535 66.3525C64.0664 66.3525 63.8021 66.4141 63.5605 66.5371C63.319 66.6556 63.1117 66.8333 62.9385 67.0703C62.7653 67.3073 62.6309 67.5967 62.5352 67.9385C62.4395 68.2803 62.3916 68.6745 62.3916 69.1211V69.4082C62.3916 69.7591 62.4395 70.0895 62.5352 70.3994C62.6354 70.7048 62.779 70.9736 62.9658 71.2061C63.1572 71.4385 63.3874 71.6208 63.6562 71.7529C63.9297 71.8851 64.2396 71.9512 64.5859 71.9512C65.0326 71.9512 65.4108 71.86 65.7207 71.6777C66.0306 71.4954 66.3018 71.2516 66.5342 70.9463L67.2998 71.5547C67.1403 71.7962 66.9375 72.0264 66.6914 72.2451C66.4453 72.4639 66.1423 72.6416 65.7822 72.7783C65.4268 72.915 65.0052 72.9834 64.5176 72.9834ZM70.1367 66.8721V75.6904H68.8652V65.4502H70.0273L70.1367 66.8721ZM75.1201 69.0869V69.2305C75.1201 69.7682 75.0563 70.2673 74.9287 70.7275C74.8011 71.1833 74.6143 71.5798 74.3682 71.917C74.1266 72.2542 73.8281 72.5163 73.4727 72.7031C73.1172 72.89 72.7093 72.9834 72.249 72.9834C71.7796 72.9834 71.3649 72.9059 71.0049 72.751C70.6449 72.596 70.3395 72.3704 70.0889 72.0742C69.8382 71.778 69.6377 71.4225 69.4873 71.0078C69.3415 70.5931 69.2412 70.126 69.1865 69.6064V68.8408C69.2412 68.2939 69.3438 67.804 69.4941 67.3711C69.6445 66.9382 69.8428 66.569 70.0889 66.2637C70.3395 65.9538 70.6426 65.7191 70.998 65.5596C71.3535 65.3955 71.7637 65.3135 72.2285 65.3135C72.6934 65.3135 73.1058 65.4046 73.4658 65.5869C73.8258 65.7646 74.1289 66.0199 74.375 66.3525C74.6211 66.6852 74.8057 67.084 74.9287 67.5488C75.0563 68.0091 75.1201 68.5218 75.1201 69.0869ZM73.8486 69.2305V69.0869C73.8486 68.7178 73.8099 68.3714 73.7324 68.0479C73.6549 67.7197 73.5342 67.4326 73.3701 67.1865C73.2106 66.9359 73.0055 66.7399 72.7549 66.5986C72.5042 66.4528 72.2057 66.3799 71.8594 66.3799C71.5404 66.3799 71.2624 66.4346 71.0254 66.5439C70.793 66.6533 70.5947 66.8014 70.4307 66.9883C70.2666 67.1706 70.1322 67.3802 70.0273 67.6172C69.9271 67.8496 69.8519 68.0911 69.8018 68.3418V70.1123C69.8929 70.4313 70.0205 70.7321 70.1846 71.0146C70.3486 71.2926 70.5674 71.5182 70.8408 71.6914C71.1143 71.86 71.4583 71.9443 71.873 71.9443C72.2148 71.9443 72.5088 71.8737 72.7549 71.7324C73.0055 71.5866 73.2106 71.3883 73.3701 71.1377C73.5342 70.887 73.6549 70.5999 73.7324 70.2764C73.8099 69.9482 73.8486 69.5996 73.8486 69.2305Z" fill="#152F82"/>
<path d="M13.5009 2.64486H13.5011L13.5008 2.63133C13.4699 1.49258 14.3658 0.540389 15.5092 0.49998H60.4908C61.6342 0.540388 62.53 1.49247 62.4992 2.63136L62.4991 2.63136V2.64486V38.915H62.4989L62.4992 38.9285C62.5301 40.0673 61.6342 41.0194 60.4907 41.0598H46.0146H45.2047L45.5677 41.7839L47.2343 45.1086L47.3726 45.3846H47.6813H50.4995C51.6052 45.3846 52.4994 46.2784 52.4994 47.3782C52.4994 48.478 51.6052 49.3718 50.4995 49.3718H25.5005C24.3948 49.3718 23.5006 48.478 23.5006 47.3782C23.5006 46.2784 24.3948 45.3846 25.5005 45.3846H28.3187H28.6274L28.7657 45.1086L30.4322 41.7839L30.7952 41.0598H29.9853H15.5093C14.3658 41.0194 13.4699 40.0673 13.5008 38.9285L13.5009 38.9285V38.915V2.64486ZM15.5009 1.16235H15.4752L15.4496 1.16498C14.6922 1.24304 14.1284 1.89991 14.1675 2.65907V34.9102V35.4102H14.6675H61.3324H61.8324V34.9102V2.65901C61.8716 1.89985 61.3077 1.24303 60.5504 1.16498L60.5248 1.16235H60.4991H15.5009ZM45.8181 45.3846H46.628L46.265 44.6605L44.5984 41.3358L44.4601 41.0598H44.1514H31.8486H31.5399L31.4016 41.3358L29.735 44.6605L29.372 45.3846H30.1819H45.8181ZM60.4991 40.3974H60.5248L60.5504 40.3947C61.3078 40.3167 61.8716 39.6598 61.8325 38.9007V36.5726V36.0727H61.3325H14.6676H14.1676V36.5726V38.9007C14.1284 39.6599 14.6923 40.3167 15.4496 40.3947L15.4752 40.3974H15.5009H60.4991ZM50.4995 48.7093C51.2347 48.7093 51.8328 48.1146 51.8328 47.3782C51.8328 46.6419 51.2348 46.0469 50.4995 46.047C50.4995 46.047 50.4994 46.047 50.4994 46.047H25.5005C24.7654 46.047 24.1672 46.6419 24.1672 47.3782C24.1672 48.1144 24.7653 48.7093 25.5005 48.7093H50.4995Z" fill="#152F82" stroke="#152F82" stroke-width="0.999961"/>
<path d="M132.164 94.8761H133.477C133.408 95.505 133.228 96.0678 132.937 96.5646C132.645 97.0613 132.232 97.4555 131.699 97.7472C131.166 98.0343 130.501 98.1779 129.703 98.1779C129.12 98.1779 128.589 98.0685 128.11 97.8497C127.636 97.631 127.229 97.3211 126.887 96.92C126.545 96.5144 126.281 96.0291 126.094 95.464C125.911 94.8943 125.82 94.2609 125.82 93.5636V92.5724C125.82 91.8751 125.911 91.2439 126.094 90.6788C126.281 90.1092 126.547 89.6215 126.894 89.2159C127.244 88.8103 127.666 88.4982 128.158 88.2794C128.65 88.0607 129.204 87.9513 129.819 87.9513C130.571 87.9513 131.207 88.0926 131.727 88.3751C132.246 88.6577 132.649 89.0496 132.937 89.5509C133.228 90.0476 133.408 90.6241 133.477 91.2804H132.164C132.1 90.8156 131.982 90.4168 131.809 90.0841C131.635 89.7469 131.389 89.4871 131.07 89.3048C130.751 89.1225 130.334 89.0314 129.819 89.0314C129.377 89.0314 128.988 89.1157 128.65 89.2843C128.318 89.4529 128.037 89.6922 127.81 90.0021C127.586 90.312 127.418 90.6834 127.304 91.1163C127.19 91.5493 127.133 92.0301 127.133 92.5587V93.5636C127.133 94.0512 127.183 94.5092 127.283 94.9376C127.388 95.366 127.545 95.742 127.755 96.0656C127.965 96.3891 128.231 96.6443 128.555 96.8312C128.878 97.0135 129.261 97.1046 129.703 97.1046C130.264 97.1046 130.71 97.0157 131.043 96.838C131.376 96.6603 131.626 96.4051 131.795 96.0724C131.968 95.7397 132.091 95.3409 132.164 94.8761ZM138.152 98.1779C137.637 98.1779 137.17 98.0913 136.751 97.9181C136.336 97.7404 135.979 97.492 135.678 97.173C135.382 96.854 135.154 96.4757 134.994 96.0382C134.835 95.6007 134.755 95.1222 134.755 94.6027V94.3156C134.755 93.714 134.844 93.1785 135.021 92.7091C135.199 92.2351 135.441 91.8341 135.746 91.506C136.051 91.1779 136.398 90.9295 136.785 90.7609C137.173 90.5922 137.574 90.5079 137.988 90.5079C138.517 90.5079 138.973 90.5991 139.355 90.7814C139.743 90.9637 140.06 91.2189 140.306 91.547C140.552 91.8706 140.734 92.2534 140.853 92.6954C140.971 93.1329 141.03 93.6115 141.03 94.131V94.6984H135.507V93.6661H139.766V93.5704C139.747 93.2423 139.679 92.9233 139.561 92.6134C139.447 92.3035 139.264 92.0483 139.014 91.8478C138.763 91.6473 138.421 91.547 137.988 91.547C137.701 91.547 137.437 91.6085 137.195 91.7316C136.954 91.8501 136.746 92.0278 136.573 92.2648C136.4 92.5017 136.266 92.7911 136.17 93.1329C136.074 93.4747 136.026 93.8689 136.026 94.3156V94.6027C136.026 94.9536 136.074 95.284 136.17 95.5939C136.27 95.8992 136.414 96.1681 136.601 96.4005C136.792 96.6329 137.022 96.8152 137.291 96.9474C137.564 97.0795 137.874 97.1456 138.221 97.1456C138.667 97.1456 139.046 97.0545 139.355 96.8722C139.665 96.6899 139.937 96.4461 140.169 96.1407L140.935 96.7491C140.775 96.9907 140.572 97.2208 140.326 97.4396C140.08 97.6583 139.777 97.8361 139.417 97.9728C139.062 98.1095 138.64 98.1779 138.152 98.1779ZM143.771 92.0665V100.885H142.5V90.6447H143.662L143.771 92.0665ZM148.755 94.2814V94.4249C148.755 94.9627 148.691 95.4617 148.563 95.922C148.436 96.3777 148.249 96.7742 148.003 97.1115C147.761 97.4487 147.463 97.7107 147.107 97.8976C146.752 98.0844 146.344 98.1779 145.884 98.1779C145.414 98.1779 145 98.1004 144.64 97.9454C144.28 97.7905 143.974 97.5649 143.724 97.2687C143.473 96.9725 143.272 96.617 143.122 96.2023C142.976 95.7876 142.876 95.3204 142.821 94.8009V94.0353C142.876 93.4884 142.979 92.9985 143.129 92.5656C143.279 92.1326 143.478 91.7635 143.724 91.4581C143.974 91.1482 144.277 90.9135 144.633 90.754C144.988 90.59 145.398 90.5079 145.863 90.5079C146.328 90.5079 146.741 90.5991 147.101 90.7814C147.461 90.9591 147.764 91.2143 148.01 91.547C148.256 91.8797 148.44 92.2784 148.563 92.7433C148.691 93.2036 148.755 93.7163 148.755 94.2814ZM147.483 94.4249V94.2814C147.483 93.9122 147.445 93.5659 147.367 93.2423C147.29 92.9142 147.169 92.6271 147.005 92.381C146.845 92.1303 146.64 91.9344 146.39 91.7931C146.139 91.6473 145.84 91.5743 145.494 91.5743C145.175 91.5743 144.897 91.629 144.66 91.7384C144.428 91.8478 144.229 91.9959 144.065 92.1827C143.901 92.365 143.767 92.5747 143.662 92.8116C143.562 93.0441 143.487 93.2856 143.437 93.5363V95.3068C143.528 95.6258 143.655 95.9266 143.819 96.2091C143.983 96.4871 144.202 96.7127 144.476 96.8859C144.749 97.0545 145.093 97.1388 145.508 97.1388C145.85 97.1388 146.144 97.0682 146.39 96.9269C146.64 96.781 146.845 96.5828 147.005 96.3322C147.169 96.0815 147.29 95.7944 147.367 95.4708C147.445 95.1427 147.483 94.7941 147.483 94.4249ZM153.841 94.7872H151.414L151.4 93.7755H153.383C153.775 93.7755 154.101 93.7368 154.36 93.6593C154.625 93.5818 154.823 93.4656 154.955 93.3107C155.087 93.1557 155.153 92.9643 155.153 92.7365C155.153 92.5587 155.115 92.4038 155.037 92.2716C154.964 92.1349 154.853 92.0232 154.702 91.9366C154.552 91.8455 154.365 91.7794 154.142 91.7384C153.923 91.6928 153.665 91.67 153.369 91.67H151.749V98.0411H150.484V90.6447H153.369C153.839 90.6447 154.26 90.6857 154.634 90.7677C155.012 90.8497 155.333 90.9751 155.598 91.1437C155.867 91.3077 156.072 91.5174 156.213 91.7726C156.354 92.0278 156.425 92.3286 156.425 92.6749C156.425 92.8982 156.379 93.1101 156.288 93.3107C156.197 93.5112 156.062 93.6889 155.885 93.8439C155.707 93.9988 155.488 94.1264 155.229 94.2267C154.969 94.3224 154.67 94.3839 154.333 94.4113L153.841 94.7872ZM153.841 98.0411H150.956L151.585 97.0157H153.841C154.192 97.0157 154.483 96.9725 154.716 96.8859C154.948 96.7947 155.121 96.6671 155.235 96.5031C155.354 96.3344 155.413 96.1339 155.413 95.9015C155.413 95.6691 155.354 95.4708 155.235 95.3068C155.121 95.1381 154.948 95.0105 154.716 94.924C154.483 94.8328 154.192 94.7872 153.841 94.7872H151.92L151.934 93.7755H154.333L154.791 94.1583C155.197 94.1902 155.541 94.2905 155.823 94.4591C156.106 94.6277 156.32 94.8419 156.466 95.1017C156.612 95.3569 156.685 95.6349 156.685 95.9357C156.685 96.282 156.618 96.5874 156.486 96.8517C156.359 97.116 156.172 97.337 155.926 97.5148C155.68 97.6879 155.381 97.8201 155.03 97.9113C154.679 97.9978 154.283 98.0411 153.841 98.0411ZM159.747 96.0382L163.158 90.6447H164.43V98.0411H163.158V92.6476L159.747 98.0411H158.489V90.6447H159.747V96.0382ZM169.42 97.1388C169.721 97.1388 169.999 97.0773 170.254 96.9542C170.509 96.8312 170.719 96.6626 170.883 96.4484C171.047 96.2296 171.14 95.9812 171.163 95.7032H172.366C172.343 96.1407 172.195 96.5486 171.922 96.9269C171.653 97.3006 171.3 97.6036 170.862 97.8361C170.425 98.0639 169.944 98.1779 169.42 98.1779C168.864 98.1779 168.379 98.0799 167.964 97.8839C167.554 97.6879 167.212 97.4191 166.938 97.0773C166.67 96.7355 166.467 96.3435 166.33 95.9015C166.198 95.4549 166.132 94.9832 166.132 94.4865V94.1993C166.132 93.7026 166.198 93.2332 166.33 92.7911C166.467 92.3445 166.67 91.9503 166.938 91.6085C167.212 91.2667 167.554 90.9978 167.964 90.8019C168.379 90.6059 168.864 90.5079 169.42 90.5079C169.999 90.5079 170.505 90.6264 170.938 90.8634C171.37 91.0958 171.71 91.4148 171.956 91.8204C172.207 92.2215 172.343 92.6772 172.366 93.1876H171.163C171.14 92.8823 171.054 92.6066 170.903 92.3605C170.757 92.1144 170.557 91.9184 170.302 91.7726C170.051 91.6222 169.757 91.547 169.42 91.547C169.033 91.547 168.707 91.6245 168.442 91.7794C168.183 91.9298 167.975 92.1349 167.82 92.3947C167.67 92.6499 167.561 92.9347 167.492 93.2491C167.428 93.559 167.396 93.8758 167.396 94.1993V94.4865C167.396 94.81 167.428 95.129 167.492 95.4435C167.556 95.7579 167.663 96.0428 167.813 96.298C167.968 96.5532 168.176 96.7583 168.436 96.9132C168.7 97.0636 169.028 97.1388 169.42 97.1388Z" fill="#152F82"/>
<path fill-rule="evenodd" clip-rule="evenodd" d="M167.991 34.8318C167.94 34.7385 167.763 34.4871 167.172 34.1134C166.329 33.5811 164.997 33.0386 163.2 32.5583C159.63 31.6043 154.604 30.9939 148.987 30.9939C143.369 30.9939 138.343 31.6043 134.773 32.5583C132.976 33.0386 131.644 33.5811 130.802 34.1134C130.21 34.4871 130.033 34.7385 129.982 34.8318C130.033 34.9252 130.21 35.1765 130.802 35.5502C131.644 36.0826 132.976 36.625 134.773 37.1053C138.343 38.0593 143.369 38.6697 148.987 38.6697C154.604 38.6697 159.63 38.0593 163.2 37.1053C164.997 36.625 166.329 36.0826 167.172 35.5502C167.763 35.1765 167.94 34.9252 167.991 34.8318ZM148.987 40.3697C157.658 40.3697 165.085 38.9461 168.175 36.9258V42.4375V42.4381C168.175 42.6791 167.97 43.138 167.01 43.7242C166.099 44.2802 164.725 44.8113 162.952 45.2693C159.418 46.1819 154.489 46.7559 149.013 46.7559C143.537 46.7559 138.609 46.1819 135.075 45.2693C133.302 44.8113 131.928 44.2802 131.017 43.7242C130.057 43.138 129.851 42.6791 129.851 42.4381V41.6992V36.9606C132.973 38.9625 140.365 40.3697 148.987 40.3697ZM128.151 41.6992V35.2804C128.151 35.1254 128.193 34.9802 128.265 34.8551L128.265 34.8318C128.265 31.7733 137.542 29.2939 148.987 29.2939C160.356 29.2939 169.587 31.7411 169.707 34.7721C169.813 34.9139 169.875 35.0898 169.875 35.2804V42.4375V42.4381V49.82V49.8213V57.2038C169.875 57.3228 169.866 57.439 169.849 57.5523V64.4382C169.849 65.6243 168.934 66.5248 167.869 67.1752C166.754 67.8558 165.198 68.4381 163.35 68.9154C159.641 69.8732 154.563 70.456 148.987 70.456C143.41 70.456 138.332 69.8732 134.623 68.9154C132.775 68.4381 131.219 67.8558 130.104 67.1752C129.039 66.5248 128.125 65.6243 128.125 64.4382V56.3174H128.151V49.82V49.083V42.4381V41.6992ZM129.825 59.7434V64.4382C129.825 64.6791 130.03 65.1381 130.99 65.7243C131.901 66.2803 133.275 66.8114 135.048 67.2694C138.582 68.182 143.511 68.756 148.987 68.756C154.462 68.756 159.391 68.182 162.925 67.2694C164.698 66.8114 166.072 66.2803 166.983 65.7243C167.943 65.1381 168.149 64.6791 168.149 64.4382V59.7796C168.066 59.835 167.981 59.8887 167.896 59.9408C166.781 60.6214 165.225 61.2038 163.377 61.681C159.668 62.6388 154.59 63.2216 149.013 63.2216C143.437 63.2216 138.359 62.6388 134.65 61.681C132.802 61.2038 131.246 60.6214 130.131 59.9408C130.027 59.8774 129.925 59.8116 129.825 59.7434ZM168.175 57.0556H168.149V57.3669C168.068 57.6265 167.785 58.0168 167.01 58.4899C166.099 59.0459 164.725 59.5771 162.952 60.035C159.418 60.9476 154.489 61.5216 149.013 61.5216C143.537 61.5216 138.609 60.9476 135.075 60.035C133.302 59.5771 131.928 59.0459 131.017 58.4899C130.057 57.9037 129.851 57.4448 129.851 57.2038V52.3778C129.943 52.4396 130.036 52.4993 130.131 52.557C131.246 53.2376 132.802 53.82 134.65 54.2972C138.359 55.255 143.437 55.8378 149.013 55.8378C154.59 55.8378 159.668 55.255 163.377 54.2972C165.225 53.82 166.781 53.2376 167.896 52.557C167.99 52.4993 168.084 52.4396 168.175 52.3778V57.0556ZM131.017 51.1061C130.057 50.52 129.851 50.061 129.851 49.82V49.083V44.9959C129.943 45.0576 130.036 45.1174 130.131 45.1751C131.246 45.8557 132.802 46.438 134.65 46.9153C138.359 47.8731 143.437 48.4559 149.013 48.4559C154.59 48.4559 159.668 47.8731 163.377 46.9153C165.225 46.438 166.781 45.8557 167.896 45.1751C167.99 45.1174 168.084 45.0576 168.175 44.9959V49.82C168.175 50.061 167.97 50.52 167.01 51.1061C166.099 51.6621 164.725 52.1933 162.952 52.6512C159.418 53.5638 154.489 54.1378 149.013 54.1378C143.537 54.1378 138.609 53.5638 135.075 52.6512C133.302 52.1933 131.928 51.6621 131.017 51.1061Z" fill="#152F82"/>
<defs>
<clipPath id="clip0_139_3773">
<rect width="50" height="49.8737" fill="white" transform="translate(228)"/>
</clipPath>
</defs>
</svg>
