<svg width="50" height="51" viewBox="0 0 50 51" fill="none" xmlns="http://www.w3.org/2000/svg">
<path fill-rule="evenodd" clip-rule="evenodd" d="M43.991 10.8318C43.9402 10.7385 43.7629 10.4871 43.1715 10.1134C42.3291 9.58106 40.9971 9.03862 39.1999 8.55831C35.6303 7.60432 30.6044 6.99395 24.9865 6.99395C19.3686 6.99395 14.3428 7.60432 10.7731 8.55831C8.97591 9.03862 7.64396 9.58106 6.80151 10.1134C6.21005 10.4871 6.03285 10.7385 5.98204 10.8318C6.03285 10.9252 6.21005 11.1765 6.80151 11.5502C7.64396 12.0826 8.97591 12.625 10.7731 13.1053C14.3428 14.0593 19.3686 14.6697 24.9865 14.6697C30.6044 14.6697 35.6303 14.0593 39.1999 13.1053C40.9971 12.625 42.3291 12.0826 43.1715 11.5502C43.7629 11.1765 43.9402 10.9252 43.991 10.8318ZM24.9865 16.3697C33.658 16.3697 41.0854 14.9461 44.1754 12.9258V18.4375V18.4381C44.1754 18.6791 43.9699 19.138 43.0098 19.7242C42.0992 20.2802 40.7249 20.8113 38.9515 21.2693C35.4175 22.1819 30.4893 22.7559 25.0134 22.7559C19.5375 22.7559 14.6092 22.1819 11.0753 21.2693C9.30191 20.8113 7.9276 20.2802 7.01694 19.7242C6.05689 19.138 5.85137 18.6791 5.85137 18.4381V17.6992V12.9606C8.9731 14.9625 16.3649 16.3697 24.9865 16.3697ZM4.15137 17.6992V11.2804C4.15137 11.1254 4.19281 10.9802 4.26522 10.8551L4.26504 10.8318C4.26504 7.77333 13.5424 5.29395 24.9865 5.29395C36.3561 5.29395 45.5871 7.74114 45.7068 10.7721C45.8127 10.9139 45.8754 11.0898 45.8754 11.2804V18.4375V18.4381V25.82V25.8213V33.2038C45.8754 33.3228 45.8662 33.439 45.8486 33.5523V40.4382C45.8486 41.6243 44.9341 42.5248 43.8688 43.1752C42.7542 43.8558 41.1978 44.4381 39.3497 44.9154C35.6407 45.8732 30.563 46.456 24.9865 46.456C19.4101 46.456 14.3323 45.8732 10.6234 44.9154C8.77528 44.4381 7.2189 43.8558 6.10423 43.1752C5.03895 42.5248 4.12451 41.6243 4.12451 40.4382V32.3174H4.15137V25.82V25.083V18.4381V17.6992ZM5.82451 35.7434V40.4382C5.82451 40.6791 6.03004 41.1381 6.99008 41.7243C7.90074 42.2803 9.27506 42.8114 11.0484 43.2694C14.5824 44.182 19.5106 44.756 24.9865 44.756C30.4625 44.756 35.3907 44.182 38.9246 43.2694C40.698 42.8114 42.0723 42.2803 42.983 41.7243C43.943 41.1381 44.1486 40.6791 44.1486 40.4382V35.7796C44.0655 35.835 43.9811 35.8887 43.8957 35.9408C42.781 36.6214 41.2247 37.2038 39.3766 37.681C35.6676 38.6388 30.5898 39.2216 25.0134 39.2216C19.437 39.2216 14.3592 38.6388 10.6502 37.681C8.80213 37.2038 7.24575 36.6214 6.13108 35.9408C6.02722 35.8774 5.9248 35.8116 5.82451 35.7434ZM44.1754 33.0556H44.1486V33.3669C44.0681 33.6265 43.7848 34.0168 43.0098 34.4899C42.0992 35.0459 40.7249 35.5771 38.9515 36.035C35.4175 36.9476 30.4893 37.5216 25.0134 37.5216C19.5375 37.5216 14.6092 36.9476 11.0753 36.035C9.30191 35.5771 7.9276 35.0459 7.01694 34.4899C6.05689 33.9037 5.85137 33.4448 5.85137 33.2038V28.3778C5.94306 28.4396 6.03648 28.4993 6.13108 28.557C7.24575 29.2376 8.80213 29.82 10.6502 30.2972C14.3592 31.255 19.437 31.8378 25.0134 31.8378C30.5898 31.8378 35.6676 31.255 39.3766 30.2972C41.2247 29.82 42.781 29.2376 43.8957 28.557C43.9903 28.4993 44.0837 28.4396 44.1754 28.3778V33.0556ZM7.01694 27.1061C6.05689 26.52 5.85137 26.061 5.85137 25.82V25.083V20.9959C5.94306 21.0576 6.03648 21.1174 6.13108 21.1751C7.24575 21.8557 8.80213 22.438 10.6502 22.9153C14.3592 23.8731 19.437 24.4559 25.0134 24.4559C30.5898 24.4559 35.6676 23.8731 39.3766 22.9153C41.2247 22.438 42.781 21.8557 43.8957 21.1751C43.9903 21.1174 44.0837 21.0576 44.1754 20.9959V25.82C44.1754 26.061 43.9699 26.52 43.0098 27.1061C42.0992 27.6621 40.7249 28.1933 38.9515 28.6512C35.4175 29.5638 30.4893 30.1378 25.0134 30.1378C19.5375 30.1378 14.6092 29.5638 11.0753 28.6512C9.30191 28.1933 7.9276 27.6621 7.01694 27.1061Z" fill="#152F82"/>
</svg>
