<svg width="572" height="806" viewBox="0 0 572 806" fill="none" xmlns="http://www.w3.org/2000/svg">
<g filter="url(#filter0_d)">
<path fill-rule="evenodd" clip-rule="evenodd" d="M295.902 62.2038L301.909 70.8903C336.453 120.843 327.712 188.208 281.576 227.584L267.864 211.519C303.017 181.513 311.711 131.708 290.08 91.9107L261.136 111.925C224.203 137.464 214.935 188.283 240.474 225.215L273.128 272.435L255.755 284.448L180.084 175.022C154.547 138.093 103.724 128.827 66.7941 154.364L37.8561 174.374C69.7421 211.206 125.099 218.908 166.071 190.576L178.084 207.949C124.598 244.935 50.9913 231.508 14.0069 178.026L8.00003 169.339L54.7803 136.991C101.149 104.927 164.893 116.438 197.151 162.591L197.163 162.583L205.076 174.026C206.577 143.22 221.849 113.412 249.122 94.5523L295.902 62.2038Z" fill="#27C33A"/>
<path fill-rule="evenodd" clip-rule="evenodd" d="M296.686 57.9092L304.448 69.1346C339.891 120.387 330.923 189.526 283.58 229.932L281.232 231.936L263.512 211.175L265.859 209.171C298.999 180.884 307.849 134.432 288.957 96.4401L262.892 114.464C227.361 139.033 218.444 187.93 243.013 223.459L277.422 273.218L254.971 288.743L177.545 176.778C152.977 141.251 104.077 132.335 68.5498 156.903L42.4951 174.919C73.6705 208.352 125.624 214.792 164.315 188.037L166.854 186.281L182.379 208.732L179.84 210.488C124.951 248.443 49.422 234.666 11.4679 179.781L3.70532 168.556L53.0246 134.452C99.9465 102.005 164.131 112.872 197.886 158.331L197.947 158.289L202.765 165.256C206.501 136.665 221.821 109.678 247.366 92.0134L296.686 57.9092ZM196.231 166.662L207.716 183.271L208.159 174.176C209.616 144.283 224.432 115.379 250.878 97.0913L295.119 66.4984L299.37 72.646C332.427 120.449 324.786 184.603 281.893 223.202L272.185 211.827C306.515 180.684 314.629 130.613 292.792 90.4366L291.151 87.4171L259.38 109.386C221.045 135.895 211.426 188.637 237.935 226.971L268.833 271.651L256.538 280.154L182.623 173.266C156.116 134.935 103.37 125.318 65.0384 151.825L33.2697 173.793L35.5222 176.395C67.7662 213.64 123.258 222.022 165.261 194.832L173.766 207.132C121.917 240.989 51.9736 227.501 16.5459 176.27L12.2947 170.122L56.5361 139.53C101.507 108.433 163.335 119.597 194.621 164.359L196.231 166.662Z" fill="#27C33A"/>
<path fill-rule="evenodd" clip-rule="evenodd" d="M281.5 727.263C398.453 727.263 493.262 632.456 493.262 515.505C493.262 398.554 398.453 303.746 281.5 303.746C164.547 303.746 69.7382 398.554 69.7382 515.505C69.7382 632.456 164.547 727.263 281.5 727.263ZM281.5 789C432.55 789 555 666.552 555 515.505C555 364.457 432.55 242.009 281.5 242.009C130.45 242.009 8 364.457 8 515.505C8 666.552 130.45 789 281.5 789Z" fill="#FE8D19"/>
<path d="M297.581 529.072V421.574C297.581 415.322 295.097 409.326 290.676 404.905C286.255 400.484 280.259 398 274.006 398C267.754 398 261.758 400.484 257.337 404.905C252.916 409.326 250.432 415.322 250.432 421.574H234.716C232.632 421.574 230.633 422.402 229.16 423.876C227.686 425.349 226.858 427.348 226.858 429.432V453.006C226.858 455.09 227.686 457.089 229.16 458.563C230.633 460.036 232.632 460.864 234.716 460.864H250.432V529.072C239.148 534.425 230.022 543.458 224.553 554.686C219.085 565.914 217.6 578.669 220.343 590.853C223.087 603.037 229.894 613.925 239.647 621.726C249.4 629.527 261.517 633.777 274.006 633.777C286.495 633.777 298.613 629.527 308.366 621.726C318.118 613.925 324.926 603.037 327.669 590.853C330.413 578.669 328.928 565.914 323.46 554.686C317.991 543.458 308.865 534.425 297.581 529.072ZM274.006 602.309C269.344 602.309 264.786 600.927 260.909 598.336C257.033 595.746 254.011 592.064 252.227 587.757C250.442 583.449 249.976 578.709 250.885 574.136C251.795 569.563 254.04 565.363 257.337 562.066C260.634 558.769 264.834 556.524 269.407 555.614C273.98 554.704 278.72 555.171 283.028 556.955C287.335 558.74 291.017 561.761 293.608 565.638C296.198 569.515 297.581 574.073 297.581 578.735C297.581 584.987 295.097 590.984 290.676 595.405C286.255 599.826 280.259 602.309 274.006 602.309Z" fill="#FCFDFF"/>
<path d="M391.877 484.439C389.793 484.439 387.794 483.611 386.321 482.137C384.847 480.663 384.019 478.665 384.019 476.58C384.019 459.908 377.396 443.918 365.607 432.129C353.817 420.339 337.827 413.716 321.155 413.716C319.071 413.716 317.072 412.888 315.598 411.415C314.125 409.941 313.297 407.942 313.297 405.858C313.297 403.774 314.125 401.775 315.598 400.302C317.072 398.828 319.071 398 321.155 398C331.474 398 341.692 400.033 351.226 403.982C360.76 407.931 369.423 413.719 376.719 421.016C384.016 428.313 389.805 436.975 393.754 446.509C397.703 456.043 399.735 466.261 399.735 476.58C399.735 478.665 398.907 480.663 397.434 482.137C395.96 483.611 393.961 484.439 391.877 484.439Z" fill="#FCFDFF"/>
<path d="M360.445 484.439C358.361 484.439 356.362 483.611 354.888 482.137C353.415 480.663 352.587 478.665 352.587 476.581C352.587 468.244 349.275 460.249 343.381 454.355C337.486 448.46 329.491 445.148 321.155 445.148C319.071 445.148 317.072 444.32 315.598 442.847C314.125 441.373 313.297 439.374 313.297 437.29C313.297 435.206 314.125 433.208 315.598 431.734C317.072 430.26 319.071 429.432 321.155 429.432C333.659 429.432 345.652 434.4 354.494 443.242C363.336 452.084 368.303 464.076 368.303 476.581C368.303 478.665 367.475 480.663 366.001 482.137C364.528 483.611 362.529 484.439 360.445 484.439Z" fill="#FCFDFF"/>
<path d="M329.013 484.438C326.929 484.438 324.93 483.61 323.456 482.137C321.983 480.663 321.155 478.664 321.155 476.58C319.071 476.58 317.072 475.752 315.598 474.279C314.125 472.805 313.297 470.806 313.297 468.722C313.297 466.638 314.125 464.639 315.598 463.166C317.072 461.692 319.071 460.864 321.155 460.864C325.323 460.864 329.32 462.52 332.268 465.467C335.215 468.415 336.871 472.412 336.871 476.58C336.871 478.664 336.043 480.663 334.569 482.137C333.096 483.61 331.097 484.438 329.013 484.438Z" fill="#FCFDFF"/>
</g>
<defs>
<filter id="filter0_d" x="0.705322" y="-3" width="571.295" height="809" filterUnits="userSpaceOnUse" color-interpolation-filters="sRGB">
<feFlood flood-opacity="0" result="BackgroundImageFix"/>
<feColorMatrix in="SourceAlpha" type="matrix" values="0 0 0 0 0 0 0 0 0 0 0 0 0 0 0 0 0 0 127 0" result="hardAlpha"/>
<feOffset dx="7" dy="7"/>
<feGaussianBlur stdDeviation="5"/>
<feComposite in2="hardAlpha" operator="out"/>
<feColorMatrix type="matrix" values="0 0 0 0 0 0 0 0 0 0 0 0 0 0 0 0 0 0 0.5 0"/>
<feBlend mode="normal" in2="BackgroundImageFix" result="effect1_dropShadow"/>
<feBlend mode="normal" in="SourceGraphic" in2="effect1_dropShadow" result="shape"/>
</filter>
</defs>
</svg>
