<svg width="14" height="20" viewBox="0 0 14 20" fill="none" xmlns="http://www.w3.org/2000/svg">
<path d="M12.0111 8.19112V5.57556C12.0374 4.25061 11.5377 2.9692 10.6215 2.01174C9.70526 1.05428 8.44708 0.498737 7.12225 0.466675C5.79742 0.498737 4.53923 1.05428 3.623 2.01174C2.70677 2.9692 2.20711 4.25061 2.23336 5.57556V8.19112H0.400024V18.58C0.400024 18.9042 0.528794 19.215 0.758005 19.4443C0.987216 19.6735 1.29809 19.8022 1.62225 19.8022H12.6222C12.9464 19.8022 13.2573 19.6735 13.4865 19.4443C13.7157 19.215 13.8445 18.9042 13.8445 18.58V8.19112H12.0111ZM3.45558 5.57556C3.42923 4.57471 3.8001 3.60411 4.48714 2.87584C5.17419 2.14758 6.12156 1.72085 7.12225 1.6889C8.12294 1.72085 9.0703 2.14758 9.75735 2.87584C10.4444 3.60411 10.8153 4.57471 10.7889 5.57556V8.19112H3.45558V5.57556ZM1.62225 18.58V9.41334H12.6222V18.58H1.62225Z" fill="#31C259"/>
</svg>
