<svg width="35" height="35" viewBox="0 0 35 35" fill="none" xmlns="http://www.w3.org/2000/svg">
<path d="M19.375 0.625H15.625V19.375H19.375V0.625ZM28.4312 4.69375L25.7687 7.35625C28.7312 9.7375 30.625 13.3938 30.625 17.5C30.625 24.7563 24.7563 30.625 17.5 30.625C10.2438 30.625 4.375 24.7563 4.375 17.5C4.375 13.3938 6.26875 9.7375 9.2125 7.3375L6.56875 4.69375C2.93125 7.7875 0.625 12.3625 0.625 17.5C0.625 26.8188 8.18125 34.375 17.5 34.375C26.8188 34.375 34.375 26.8188 34.375 17.5C34.375 12.3625 32.0688 7.7875 28.4312 4.69375Z" fill="#319FDA"/>
</svg>
